SplineFontDB: 3.0
FontName: GOST2.304-81TypeA
FullName: GOST 2.304-81 Type A
FamilyName: GOST 2.304-81
Weight: Regular
Copyright: 
Version: 01.00.0000
StrokeWidth: 100
ItalicAngle: 0
UnderlinePosition: -100
UnderlineWidth: 100
Ascent: 1800
Descent: 400
InvalidEm: 0
LayerCount: 2
Layer: 0 1 "Back" 1
Layer: 1 1 "Fore" 0
StrokedFont: 1
XUID: [1021 655 1312083872 19032]
BaseHoriz: 4 'ideo' 'idtp' 'math' 'romn'
BaseScript: 'DFLT' 3  -400 1400 0 0
FSType: 0
OS2Version: 0
OS2_WeightWidthSlopeOnly: 1
OS2_UseTypoMetrics: 0
CreationTime: 1422632559
ModificationTime: 1425809019
PfmFamily: 33
TTFWeight: 400
TTFWidth: 5
LineGap: 0
VLineGap: 0
Panose: 2 0 5 3 0 0 2 4 0 3
OS2TypoAscent: 0
OS2TypoAOffset: 1
OS2TypoDescent: 0
OS2TypoDOffset: 1
OS2TypoLinegap: 0
OS2WinAscent: 0
OS2WinAOffset: 1
OS2WinDescent: 0
OS2WinDOffset: 1
HheadAscent: 0
HheadAOffset: 1
HheadDescent: 0
HheadDOffset: 1
OS2CapHeight: 1400
OS2XHeight: 1000
OS2FamilyClass: 2048
OS2Vendor: 'PfEd'
Lookup: 1 0 0 "'dtls' Dotless Forms lookup 0" { "'dtls' Dotless Forms lookup 0-1"  } ['dtls' ('DFLT' <'dflt' > 'cyrl' <'dflt' > 'grek' <'dflt' > 'latn' <'LTH ' 'ROM ' 'TRK ' 'dflt' > ) ]
Lookup: 260 0 0 "'mark' Mark Positioning lookup 1" { "'mark' Mark Positioning lookup 1-1"  } ['mark' ('DFLT' <'dflt' > 'cyrl' <'dflt' > 'grek' <'dflt' > 'latn' <'LTH ' 'ROM ' 'TRK ' 'dflt' > ) ]
Lookup: 262 0 0 "'mkmk' Mark Positioning lookup 1" { "'mkmk' Mark Positioning lookup 1-1"  } ['mkmk' ('DFLT' <'dflt' > 'cyrl' <'dflt' > 'grek' <'dflt' > 'latn' <'LTH ' 'ROM ' 'TRK ' 'dflt' > ) ]
Lookup: 258 8 0 "'kern' Horizontal Kerning lookup 0" { "'kern' Horizontal Kerning lookup 0 subtable"  } ['kern' ('cyrl' <'dflt' > 'grek' <'dflt' > 'latn' <'LTH ' 'ROM ' 'TRK ' 'dflt' > ) ]
MarkAttachClasses: 1
DEI: 91125
ShortTable: maxp 16
  0
  0
  0
  0
  0
  0
  0
  2
  1
  2
  22
  0
  256
  0
  0
  0
EndShort
ShortTable: cvt  1
  0
EndShort
LangName: 1033 "" "" "Normal" "" "" "01.00.0000" "" "" "" "Sergei S. Betke"

StartChar: .notdef
Encoding: 1114112 -1 0
Width: 900
Flags: W
LayerCount: 2
Back
Fore
SplineSet
100 0 m 1,0,-1
 100 1400 l 1,1,-1
 800 1400 l 1,2,-1
 800 0 l 1,3,-1
 100 0 l 1,0,-1
200 100 m 1,4,-1
 700 100 l 1,5,-1
 700 1300 l 1,6,-1
 200 1300 l 1,7,-1
 200 100 l 1,4,-1
EndSplineSet
EndChar

StartChar: uni26AC
Encoding: 9900 9900 1
Width: 800
Flags: W
LayerCount: 2
Back
Fore
SplineSet
150 1099 m 135,-1,1
 150 1202 150 1202 223 1276 c 132,-1,2
 296 1350 296 1350 400 1350 c 135,-1,3
 504 1350 504 1350 577 1276 c 132,-1,4
 650 1202 650 1202 650 1099 c 135,-1,5
 650 996 650 996 577 923 c 132,-1,6
 504 850 504 850 400 850 c 135,-1,7
 296 850 296 850 223 923 c 132,-1,0
 150 996 150 996 150 1099 c 135,-1,1
EndSplineSet
EndChar

StartChar: exclam
Encoding: 33 33 4
Width: 300
UnlinkRmOvrlpSave: 1
Flags: W
LayerCount: 2
Back
Fore
SplineSet
150 1350 m 25,0,-1
 150 350 l 1049
EndSplineSet
Refer: 17 46 N 1 0 0 1 0 0 2
EndChar

StartChar: numbersign
Encoding: 35 35 6
Width: 900
Flags: MW
LayerCount: 2
Back
Fore
SplineSet
300 1350 m 25,0,-1
 300 50 l 1049,1,-1
150 400 m 25,2,-1
 750 400 l 1049,3,-1
150 1000 m 25,4,-1
 750 1000 l 1049,5,-1
600 1350 m 25,6,-1
 600 50 l 1049,7,-1
EndSplineSet
EndChar

StartChar: dollar
Encoding: 36 36 7
Width: 900
UnlinkRmOvrlpSave: 1
Flags: W
LayerCount: 2
Back
Fore
SplineSet
450 1550 m 25,0,-1
 450 -150 l 1025
EndSplineSet
Refer: 54 83 N 1 0 0 1 0 0 2
EndChar

StartChar: ampersand
Encoding: 38 38 9
Width: 1100
Flags: W
LayerCount: 2
Back
Fore
SplineSet
950 450 m 0,0,1
 663 139 663 139 662 138 c 0,2,3
 574 50 574 50 450 50 c 131,-1,4
 326 50 326 50 238 138 c 128,-1,5
 150 226 150 226 150 350 c 3,6,7
 150 442 150 442 193 507 c 18,8,-1
 564 1067 l 28,9,10
 600 1114 600 1114 600 1174.5 c 3,11,12
 600 1249 600 1249 549 1299 c 0,13,14
 498 1350 498 1350 425 1350 c 131,-1,15
 352 1350 352 1350 301.25 1298.75 c 0,16,17
 250 1247 250 1247 250 1174.5 c 3,18,19
 250 1113 250 1113 287 1066 c 24,20,-1
 950 50 l 1025,21,22
EndSplineSet
EndChar

StartChar: quotesingle
Encoding: 39 39 10
Width: 250
Flags: W
LayerCount: 2
Back
Fore
SplineSet
150 1350 m 25,0,-1
 100 1150 l 1049,1,-1
EndSplineSet
EndChar

StartChar: parenleft
Encoding: 40 40 11
Width: 400
Flags: MW
LayerCount: 2
Back
Fore
SplineSet
250 -50 m 5,0,1
 150 360 150 360 150 700 c 155,-1,2
 150 1040 150 1040 250 1450 c 1025,3,-1
EndSplineSet
EndChar

StartChar: asterisk
Encoding: 42 42 13
Width: 900
Flags: W
LayerCount: 2
Back
Fore
SplineSet
250 1150 m 25,0,-1
 650 1150 l 1053,1,-1
350 950 m 25,2,-1
 550 1350 l 1049,3,-1
350 1350 m 25,4,-1
 550 950 l 1049,5,-1
EndSplineSet
EndChar

StartChar: plus
Encoding: 43 43 14
Width: 800
UnlinkRmOvrlpSave: 1
Flags: W
LayerCount: 2
Back
Fore
SplineSet
400 750 m 25,0,-1
 400 250 l 1049,1,-1
150 500 m 25,2,-1
 650 500 l 1053,3,-1
EndSplineSet
EndChar

StartChar: comma
Encoding: 44 44 15
Width: 300
Flags: W
LayerCount: 2
Back
Fore
SplineSet
150 50 m 25,0,-1
 100 -150 l 1053,1,-1
EndSplineSet
EndChar

StartChar: hyphen
Encoding: 45 45 16
Width: 800
Flags: MW
LayerCount: 2
Back
Fore
SplineSet
150 500 m 25,0,-1
 650 500 l 1049,1,-1
EndSplineSet
EndChar

StartChar: period
Encoding: 46 46 17
Width: 300
Flags: W
LayerCount: 2
Back
Fore
SplineSet
150 50 m 1053,0,-1
EndSplineSet
EndChar

StartChar: slash
Encoding: 47 47 18
Width: 1100
Flags: W
LayerCount: 2
Back
Fore
SplineSet
950 1350 m 25,0,-1
 150 50 l 1053,1,-1
EndSplineSet
EndChar

StartChar: zero
Encoding: 48 48 19
Width: 900
Flags: W
LayerCount: 2
Back
Fore
SplineSet
750 1050 m 18,0,1
 750 1174 750 1174 662 1262 c 128,-1,2
 574 1350 574 1350 450 1350 c 131,-1,3
 326 1350 326 1350 238 1262 c 128,-1,4
 150 1174 150 1174 150 1050 c 2,5,-1
 150 350 l 2,6,7
 150 226 150 226 238 138 c 128,-1,8
 326 50 326 50 450 50 c 131,-1,9
 574 50 574 50 662 138 c 128,-1,10
 750 226 750 226 750 350 c 2,11,-1
 750 1050 l 18,0,1
EndSplineSet
EndChar

StartChar: one
Encoding: 49 49 20
Width: 600
Flags: MW
LayerCount: 2
Back
Fore
SplineSet
150 1050 m 29,0,-1
 450 1350 l 25,1,-1
 450 50 l 1049,2,-1
EndSplineSet
EndChar

StartChar: two
Encoding: 50 50 21
Width: 900
Flags: MW
LayerCount: 2
Back
Fore
SplineSet
150 50 m 25,0,-1
 750 50 l 1049,1,-1
165.95703125 1150 m 1,2,3
 187 1211 187 1211 238 1262 c 0,4,5
 326 1350 326 1350 450 1350 c 128,-1,6
 574 1350 574 1350 662 1262 c 128,-1,7
 750 1174 750 1174 750 1050 c 0,8,9
 750 968 750 968 710 900 c 9,10,-1
 150 51 l 1049,11,-1
EndSplineSet
EndChar

StartChar: three
Encoding: 51 51 22
Width: 800
Flags: W
LayerCount: 2
Back
Fore
SplineSet
150 1350 m 21,0,-1
 300 1350 l 6,1,2
 424 1350 424 1350 512 1262 c 132,-1,3
 600 1174 600 1174 600 1050 c 132,-1,4
 600 926 600 926 537 838 c 4,5,6
 476 751 476 751 350 751 c 1029,7,8
350 749 m 5,9,10
 418 749 418 749 476 705 c 4,11,12
 568 637 568 637 603 577 c 4,13,14
 650 499 650 499 650 400 c 4,15,16
 650 305 650 305 603 226 c 4,17,18
 554 144 554 144 476 98 c 4,19,20
 393 50 393 50 300 50 c 6,21,-1
 150 50 l 1053,22,-1
EndSplineSet
EndChar

StartChar: four
Encoding: 52 52 23
Width: 900
Flags: MW
LayerCount: 2
Back
Fore
SplineSet
550 650 m 25,0,-1
 550 50 l 1049,1,-1
400 1350 m 25,2,-1
 150 350 l 25,3,-1
 750 350 l 1049,4,-1
EndSplineSet
EndChar

StartChar: five
Encoding: 53 53 24
Width: 800
Flags: W
LayerCount: 2
Back
Fore
SplineSet
350 750 m 2,0,1
 474 750 474 750 562 648 c 128,-1,2
 650 546 650 546 650 400 c 128,-1,3
 650 254 650 254 562 152 c 128,-1,4
 474 50 474 50 312 50 c 2,5,-1
 150 50 l 1049,6,-1
650 1350 m 25,7,-1
 150 1350 l 1,8,-1
 150 750 l 1,9,-1
 350 750 l 1025,10,-1
EndSplineSet
EndChar

StartChar: six
Encoding: 54 54 25
Width: 900
Flags: W
LayerCount: 2
Back
Fore
SplineSet
550 1350 m 0,0,1
 465 1303 465 1303 381 1216 c 24,2,3
 288 1119 288 1119 232 1017 c 0,4,5
 150 867 150 867 150 800 c 30,6,-1
 150 400 l 2,7,8
 150 256 150 256 238 152.75 c 0,9,10
 326 50 326 50 450 50 c 0,11,12
 575 50 575 50 662 152.75 c 0,13,14
 750 257 750 257 750 400 c 4,15,16
 750 545 750 545 662 646.75 c 0,17,18
 572 750 572 750 450 750 c 24,19,20
 300 750 300 750 150 750 c 1049,21,-1
EndSplineSet
EndChar

StartChar: seven
Encoding: 55 55 26
Width: 900
Flags: MW
LayerCount: 2
Back
Fore
SplineSet
150 1200 m 25,0,-1
 150 1350 l 25,1,-1
 750 1350 l 25,2,-1
 450 50 l 1053,3,-1
EndSplineSet
EndChar

StartChar: eight
Encoding: 56 56 27
Width: 1000
Flags: W
LayerCount: 2
Back
Fore
SplineSet
150 400 m 128,-1,1
 150 495 150 495 197 576 c 0,2,3
 245 658 245 658 324 704 c 128,-1,5
 403 750 403 750 500 750 c 132,-1,6
 597 750 597 750 676 704 c 0,7,8
 758 656 758 656 803 576 c 0,9,10
 850 495 850 495 850 400 c 128,-1,11
 850 305 850 305 803 225 c 0,12,13
 756 144 756 144 676 97 c 0,14,15
 595 50 595 50 500 50 c 128,-1,16
 405 50 405 50 324 97 c 0,17,18
 245 144 245 144 197 225 c 0,19,20
 150 305 150 305 150 400 c 128,-1,1
200 1050 m 128,-1,22
 200 1174 200 1174 288 1262 c 128,-1,23
 376 1350 376 1350 500 1350 c 128,-1,24
 624 1350 624 1350 712 1262 c 128,-1,25
 800 1174 800 1174 800 1050 c 128,-1,26
 800 926 800 926 712 838 c 128,-1,27
 624 750 624 750 500 750 c 128,-1,28
 376 750 376 750 288 838 c 128,-1,21
 200 926 200 926 200 1050 c 128,-1,22
EndSplineSet
EndChar

StartChar: less
Encoding: 60 60 31
Width: 800
Flags: MW
LayerCount: 2
Back
Fore
SplineSet
650 750 m 25,0,-1
 150 500 l 25,1,-1
 650 250 l 1049,2,-1
EndSplineSet
EndChar

StartChar: question
Encoding: 63 63 34
Width: 800
UnlinkRmOvrlpSave: 1
Flags: MW
LayerCount: 2
Back
Fore
SplineSet
150 1249 m 0,0,1
 208 1350 208 1350 400 1350 c 0,2,3
 504 1350 504 1350 577 1277 c 0,4,5
 650 1203 650 1203 650 1100 c 0,6,7
 650 994.783333333 650 994.783333333 577 923 c 0,8,9
 517 864 517 864 464 814 c 24,10,11
 400 750.70636227 400 750.70636227 400 650 c 26,12,-1
 400 350 l 1049
EndSplineSet
Refer: 17 46 N 1 0 0 1 250 1 2
EndChar

StartChar: at
Encoding: 64 64 35
Width: 1600
UnlinkRmOvrlpSave: 1
Flags: W
LayerCount: 2
Back
Fore
SplineSet
1151 50 m 6,0,1
 1278 50 1278 50 1364 138 c 0,2,3
 1450 227 1450 227 1450 350 c 2,4,-1
 1450 700 l 2,5,6
 1450 832 1450 832 1398 952 c 0,7,8
 1347 1072 1347 1072 1260 1159 c 0,9,10
 1173 1246 1173 1246 1053 1298 c 0,11,12
 932 1350 932 1350 800 1350 c 0,13,14
 667 1350 667 1350 547 1298 c 0,15,16
 427 1246 427 1246 340 1159 c 0,17,18
 254 1072 254 1072 202 952 c 0,19,20
 150 832 150 832 150 700 c 2,21,-1
 150 300 l 2,22,23
 150 168 150 168 202 48 c 0,24,25
 254 -72 254 -72 340 -159 c 0,26,27
 427 -246 427 -246 547 -298 c 0,28,29
 667 -350 667 -350 800 -350 c 1024
EndSplineSet
Refer: 68 97 N 1 0 0 1 400 0 2
EndChar

StartChar: A
Encoding: 65 65 36
Width: 1000
Flags: MW
AnchorPoint: "Ogonek" 850 0 basechar 0
AnchorPoint: "Top" 500 1650 basechar 0
LayerCount: 2
Back
Fore
SplineSet
850 50 m 25,0,-1
 501 1350 l 1049,1,-1
499 1350 m 28,2,-1
 150 50 l 1025,3,-1
259 450 m 1,4,-1
 742 450 l 1025,5,-1
EndSplineSet
EndChar

StartChar: B
Encoding: 66 66 37
Width: 900
Flags: W
AnchorPoint: "Top" 400 1650 basechar 0
LayerCount: 2
Back
Fore
SplineSet
150 750 m 1,0,-1
 400 750 l 1,1,-1
 524 750 524 750 612 838 c 128,-1,3
 700 926 700 926 700 1050 c 128,-1,4
 700 1174 700 1174 612 1262 c 0,5,6
 524.749498998 1349.250501 524.749498998 1349.250501 400 1349.5 c 2,7,-1
 150 1350 l 25,8,-1
 150 50 l 1,9,-1
 400 50 l 18,10,11
 495 50 495 50 576 97 c 0,12,13
 656 144 656 144 703 225 c 0,14,15
 750 305 750 305 750 400 c 0,16,17
 750 492 750 492 703 576 c 0,18,19
 658 656 658 656 576 704 c 0,20,21
 497 750 497 750 400 750 c 1152,-1,0
EndSplineSet
EndChar

StartChar: C
Encoding: 67 67 38
Width: 800
Flags: W
AnchorPoint: "Cedilla" 450 0 basechar 0
AnchorPoint: "Top" 400 1650 basechar 0
LayerCount: 2
Back
Fore
SplineSet
650 1350 m 24,0,-1
 450 1350 l 2,1,2
 326 1350 326 1350 238 1262 c 128,-1,3
 150 1174 150 1174 150 1050 c 2,4,-1
 150 351 l 2,5,6
 150 227 150 227 238 138.5 c 128,-1,7
 326 50 326 50 450 50 c 2,8,-1
 650 50 l 1048,9,-1
EndSplineSet
EndChar

StartChar: D
Encoding: 68 68 39
Width: 900
Flags: W
AnchorPoint: "Top" 400 1650 basechar 0
LayerCount: 2
Back
Fore
SplineSet
150 50 m 17,0,1
 150 1350 l 1,2,-1
 450 1350 l 2,3,4
 574 1350 574 1350 662 1262 c 128,-1,5
 750 1174 750 1174 750 1050 c 2,6,7
 750 351 l 2,8,9
 750 227 750 227 662 138.5 c 128,-1,10
 574 50 574 50 450 50 c 2,11,-1
 150 50 l 17,0,1
EndSplineSet
EndChar

StartChar: E
Encoding: 69 69 40
Width: 800
Flags: W
AnchorPoint: "Ogonek" 650 0 basechar 0
AnchorPoint: "Top" 400 1650 basechar 0
LayerCount: 2
Back
Fore
SplineSet
450 750 m 29,0,-1
 150 750 l 1053,1,-1
650 1350 m 29,2,-1
 150 1350 l 29,3,-1
 150 50 l 29,4,-1
 650 50 l 1053,5,-1
EndSplineSet
EndChar

StartChar: F
Encoding: 70 70 41
Width: 800
Flags: W
LayerCount: 2
Back
Fore
SplineSet
650 750 m 29,0,-1
 150 750 l 1049,1,-1
650 1350 m 25,2,-1
 150 1350 l 25,3,-1
 150 50 l 1049,4,-1
EndSplineSet
EndChar

StartChar: G
Encoding: 71 71 42
Width: 900
Flags: W
AnchorPoint: "Cedilla" 450 0 basechar 0
AnchorPoint: "Bottom" 500 -150 basechar 0
AnchorPoint: "Top" 500 1650 basechar 0
LayerCount: 2
Back
Fore
SplineSet
750 1350 m 1,0,-1
 450 1350 l 2,1,2
 326 1350 326 1350 238 1262 c 128,-1,3
 150 1174 150 1174 150 1050 c 2,4,-1
 150 351 l 2,5,6
 150 227 150 227 238 138.5 c 128,-1,7
 326 50 326 50 450 50 c 2,8,-1
 750 50 l 1,9,-1
 750 750 l 9,10,-1
 550 750 l 1049,11,-1
EndSplineSet
EndChar

StartChar: H
Encoding: 72 72 43
Width: 900
Flags: W
LayerCount: 2
Back
Fore
SplineSet
150 750 m 25,0,-1
 750 750 l 1053,1,-1
750 1350 m 17,2,-1
 750 50 l 1033,3,-1
150 1350 m 17,4,-1
 150 50 l 1033,5,-1
EndSplineSet
EndChar

StartChar: I
Encoding: 73 73 44
Width: 300
Flags: MW
AnchorPoint: "Ogonek" 150 0 basechar 0
AnchorPoint: "Top" 150 1650 basechar 0
LayerCount: 2
Back
Fore
SplineSet
150 1350 m 25,0,-1
 150 50 l 1049,1,-1
EndSplineSet
EndChar

StartChar: J
Encoding: 74 74 45
Width: 700
Flags: MW
LayerCount: 2
Back
Fore
SplineSet
150 50 m 28,0,-1
 250 50 l 6,1,2
 371 50 371 50 464.75 133.75 c 4,3,4
 550 210 550 210 550 350 c 6,5,6
 550 1351 l 1052,7,-1
EndSplineSet
EndChar

StartChar: K
Encoding: 75 75 46
Width: 900
Flags: W
AnchorPoint: "Cedilla" 400 0 basechar 0
AnchorPoint: "Bottom" 450 -150 basechar 0
LayerCount: 2
Back
Fore
SplineSet
750 50 m 25,0,-1
 344 807 l 1049,1,-1
750 1350 m 25,2,-1
 150 550 l 1049,3,-1
150 1350 m 25,4,-1
 150 50 l 1049,5,-1
EndSplineSet
EndChar

StartChar: L
Encoding: 76 76 47
Width: 700
Flags: W
AnchorPoint: "Right" 350 750 basechar 0
AnchorPoint: "TopRight" 351 1350 basechar 0
AnchorPoint: "Bottom" 350 -150 basechar 0
AnchorPoint: "Cedilla" 300 0 basechar 0
AnchorPoint: "Top" 150 1650 basechar 0
LayerCount: 2
Back
Fore
SplineSet
550 50 m 25,0,-1
 150 50 l 1,1,-1
 150 1350 l 1049,2,-1
EndSplineSet
EndChar

StartChar: M
Encoding: 77 77 48
Width: 1100
Flags: W
LayerCount: 2
Back
Fore
SplineSet
948 1350 m 25,0,-1
 552 650 l 1053,1,-1
950 50 m 25,2,-1
 950 1350 l 1049,3,-1
150 50 m 25,4,-1
 150 1350 l 1049,5,-1
151 1350 m 25,6,-1
 548 650 l 1049,7,-1
EndSplineSet
EndChar

StartChar: N
Encoding: 78 78 49
Width: 900
Flags: MW
AnchorPoint: "Cedilla" 400 0 basechar 0
AnchorPoint: "Bottom" 450 -150 basechar 0
AnchorPoint: "Top" 450 1650 basechar 0
LayerCount: 2
Back
Fore
SplineSet
750 1350 m 25,0,-1
 750 50 l 1049,1,-1
150 50 m 25,2,-1
 150 1350 l 1049,3,-1
151 1350 m 25,4,-1
 749 50 l 1049,5,-1
EndSplineSet
EndChar

StartChar: P
Encoding: 80 80 51
Width: 900
Flags: MW
LayerCount: 2
Back
Fore
SplineSet
150 650 m 1,0,-1
 400 650 l 2,1,2
 497 650 497 650 576 696 c 0,3,4
 658 744 658 744 703 824 c 0,5,6
 750 908 750 908 750 1000 c 0,7,8
 750 1095 750 1095 703 1175 c 0,9,10
 656 1256 656 1256 576 1303 c 0,11,12
 495 1350 495 1350 400 1350 c 10,13,-1
 150 1350 l 1,14,-1
 150 50 l 1049,15,-1
EndSplineSet
EndChar

StartChar: Q
Encoding: 81 81 52
Width: 900
UnlinkRmOvrlpSave: 1
Flags: W
LayerCount: 2
Back
Fore
SplineSet
450 350 m 25,0,-1
 850 50 l 1053
EndSplineSet
Refer: 19 48 N 1 0 0 1 0 0 2
EndChar

StartChar: R
Encoding: 82 82 53
Width: 900
UnlinkRmOvrlpSave: 1
Flags: W
AnchorPoint: "Top" 400 1650 basechar 0
LayerCount: 2
Back
Fore
SplineSet
750 50 m 25,0,-1
 400 650 l 1049
EndSplineSet
Refer: 51 80 N 1 0 0 1 0 0 2
EndChar

StartChar: S
Encoding: 83 83 54
Width: 900
Flags: W
LayerCount: 2
Back
Fore
SplineSet
150 150 m 5,0,1
 280 50 280 50 450 50 c 7,2,3
 594 50 594 50 672 117 c 132,-1,4
 750 184 750 184 750 281 c 7,5,6
 750 407.931034483 750 407.931034483 661 500 c 6,7,-1
 226 950 l 6,8,9
 150 1028 150 1028 150 1123 c 7,10,11
 150 1215 150 1215 228.5 1283 c 4,12,13
 306 1350 306 1350 450 1350 c 7,14,15
 621 1350 621 1350 750 1250 c 1029,16,-1
EndSplineSet
EndChar

StartChar: T
Encoding: 84 84 55
Width: 900
Flags: MW
LayerCount: 2
Back
Fore
SplineSet
450 50 m 25,0,-1
 450 1350 l 1053,1,-1
150 1350 m 25,2,-1
 750 1350 l 1049,3,-1
EndSplineSet
EndChar

StartChar: U
Encoding: 85 85 56
Width: 900
Flags: W
AnchorPoint: "Ogonek" 350 0 basechar 0
AnchorPoint: "Top" 450 1650 basechar 0
LayerCount: 2
Back
Fore
SplineSet
150 1350 m 1,0,-1
 150 350 l 2,1,2
 150 226 150 226 238 138 c 128,-1,3
 326 50 326 50 450 50 c 131,-1,4
 574 50 574 50 662 138 c 128,-1,5
 750 226 750 226 750 350 c 2,6,-1
 750 1350 l 1042,7,8
EndSplineSet
EndChar

StartChar: V
Encoding: 86 86 57
Width: 1000
Flags: MW
LayerCount: 2
Back
Fore
SplineSet
850 1350 m 5,0,-1
 501 50 l 1053,1,-1
150 1350 m 29,2,-1
 499 50 l 1053,3,-1
EndSplineSet
EndChar

StartChar: W
Encoding: 87 87 58
Width: 1400
Flags: MW
LayerCount: 2
Back
Fore
SplineSet
701 950 m 5,0,-1
 999 50 l 1053,1,-1
1250 1350 m 29,2,-1
 1001 50 l 1053,3,-1
150 1350 m 29,4,-1
 399 50 l 1053,5,-1
401 50 m 29,6,-1
 699 950 l 1053,7,-1
EndSplineSet
EndChar

StartChar: X
Encoding: 88 88 59
Width: 1000
Flags: MW
LayerCount: 2
Back
Fore
SplineSet
150 50 m 25,0,-1
 850 1350 l 1053,1,-1
150 1350 m 25,2,-1
 850 50 l 1049,3,-1
EndSplineSet
EndChar

StartChar: Y
Encoding: 89 89 60
Width: 1000
Flags: MW
AnchorPoint: "Top" 500 1650 basechar 0
LayerCount: 2
Back
Fore
SplineSet
500 50 m 29,0,-1
 500 700 l 1049,1,-1
150 1350 m 25,2,-1
 500 700 l 25,3,-1
 850 1350 l 1049,4,-1
EndSplineSet
EndChar

StartChar: Z
Encoding: 90 90 61
Width: 900
Flags: W
LayerCount: 2
Back
Fore
SplineSet
750 50 m 25,0,-1
 150 50 l 1053,1,-1
150 1350 m 25,2,-1
 750 1350 l 1049,3,-1
750 1349 m 25,4,-1
 150 51 l 1049,5,-1
EndSplineSet
EndChar

StartChar: bracketleft
Encoding: 91 91 62
Width: 400
Flags: MW
LayerCount: 2
Back
Fore
SplineSet
250 1450 m 29,0,-1
 150 1450 l 29,1,-1
 150 -50 l 29,2,-1
 250 -50 l 1053,3,-1
EndSplineSet
EndChar

StartChar: backslash
Encoding: 92 92 63
Width: 1100
Flags: W
LayerCount: 2
Back
Fore
SplineSet
150 1350 m 25,0,-1
 950 50 l 1049,1,-1
EndSplineSet
EndChar

StartChar: asciicircum
Encoding: 94 94 65
Width: 700
Flags: W
LayerCount: 2
Back
Fore
SplineSet
150 1150 m 25,0,-1
 350 1350 l 25,1,-1
 550 1150 l 1053,2,-1
EndSplineSet
EndChar

StartChar: underscore
Encoding: 95 95 66
Width: 600
Flags: W
LayerCount: 2
Back
Fore
SplineSet
0 -150 m 25,0,-1
 600 -150 l 1053,1,-1
EndSplineSet
EndChar

StartChar: grave
Encoding: 96 96 67
Width: 300
Flags: W
LayerCount: 2
Back
Fore
SplineSet
150 1350 m 25,0,-1
 200 1150 l 1053,1,-1
EndSplineSet
EndChar

StartChar: a
Encoding: 97 97 68
Width: 900
Flags: W
AnchorPoint: "Ogonek" 750 0 basechar 0
AnchorPoint: "Top" 400 1350 basechar 0
LayerCount: 2
Back
Fore
SplineSet
750 50 m 0,0,1
 708 50 708 50 679 79 c 0,2,3
 650 109 650 109 650 150 c 10,4,5
 650 300 l 1049,6,-1
150 750 m 18,7,8
 150 834 150 834 208 892 c 0,9,10
 265 950 265 950 349.5 950 c 2,11,-1
 650 950 l 1,12,-1
 650 300 l 2,13,14
 650 197 650 197 577 123.5 c 128,-1,15
 504 50 504 50 400 50 c 128,-1,16
 296 50 296 50 223 123.5 c 128,-1,17
 150 197 150 197 150 300 c 2,18,-1
 150 750 l 18,7,8
EndSplineSet
EndChar

StartChar: c
Encoding: 99 99 70
Width: 700
Flags: W
AnchorPoint: "Cedilla" 400 0 basechar 0
AnchorPoint: "Top" 350 1350 basechar 0
LayerCount: 2
Back
Fore
SplineSet
550 950 m 1,0,-1
 350 950 l 2,1,2
 265 950 265 950 208 892 c 0,3,4
 150 834 150 834 150 750 c 2,5,-1
 150 250 l 2,6,7
 150 163 150 163 207 108 c 0,8,9
 267 50 267 50 350 50 c 2,10,-1
 550 50 l 1025,11,-1
EndSplineSet
EndChar

StartChar: d
Encoding: 100 100 71
Width: 800
Flags: MW
AnchorPoint: "TopRight" 850 1350 basechar 0
AnchorPoint: "Top" 650 1650 basechar 0
LayerCount: 2
Back
Fore
SplineSet
650 950 m 1,0,-1
 350 950 l 2,1,2
 265 950 265 950 208 892 c 0,3,4
 150 834 150 834 150 750 c 2,5,-1
 150 250 l 2,6,7
 150 163 150 163 206 106 c 0,8,9
 261 50 261 50 350 50 c 2,10,-1
 650 50 l 1,11,-1
 650 1350 l 1049,12,-1
EndSplineSet
EndChar

StartChar: e
Encoding: 101 101 72
Width: 800
Flags: W
AnchorPoint: "Ogonek" 650 0 basechar 0
AnchorPoint: "Top" 400 1350 basechar 0
LayerCount: 2
Back
Fore
SplineSet
650 700 m 1049,0,-1
650 50 m 1,1,-1
 349.5 50 l 2,2,3
 265 50 265 50 208 108 c 0,4,5
 150 166 150 166 150 250 c 10,6,-1
 150 700 l 2,7,8
 150 803 150 803 223 876.5 c 128,-1,9
 296 950 296 950 400 950 c 128,-1,10
 504 950 504 950 577 876.5 c 128,-1,11
 650 803 650 803 650 700 c 2,12,-1
 650 500 l 9,13,-1
 150 500 l 1049,14,-1
EndSplineSet
EndChar

StartChar: g
Encoding: 103 103 74
Width: 800
Flags: W
AnchorPoint: "Cedilla" 450 1350 basechar 0
AnchorPoint: "Top" 400 1350 basechar 0
LayerCount: 2
Back
Fore
SplineSet
650 50 m 1,0,-1
 350 50 l 2,1,2
 265 50 265 50 208 108 c 0,3,4
 150 166 150 166 150 250 c 2,5,-1
 150 750 l 2,6,7
 150 837 150 837 206 894 c 0,8,9
 261 950 261 950 350 950 c 2,10,-1
 650 950 l 1,11,-1
 650 -151.5 l 1,12,13
 650 -238.023504274 650 -238.023504274 591 -294.25 c 0,14,15
 532.5 -350 532.5 -350 450 -350 c 10,16,17
 150 -350 l 1049,18,-1
EndSplineSet
EndChar

StartChar: h
Encoding: 104 104 75
Width: 800
Flags: MW
AnchorPoint: "Top" 150 1650 basechar 0
LayerCount: 2
Back
Fore
SplineSet
150 50 m 1,0,-1
 150 950 l 17,1,-1
 450 950 l 2,2,3
 535 950 535 950 592 892 c 0,4,5
 650 834 650 834 650 750 c 2,6,-1
 650 51 l 1026,7,-1
150 1350 m 1,8,-1
 150 950 l 1025,9,-1
EndSplineSet
EndChar

StartChar: k
Encoding: 107 107 78
Width: 800
Flags: MW
AnchorPoint: "Bottom" 400 -150 basechar 0
AnchorPoint: "Cedilla" 350 0 basechar 0
AnchorPoint: "Top" 150 1650 basechar 0
LayerCount: 2
Back
Fore
SplineSet
650 50 m 29,0,-1
 300 600 l 1053,1,-1
650 950 m 29,2,-1
 150 450 l 1053,3,-1
150 50 m 29,4,-1
 150 1350 l 1053,5,-1
EndSplineSet
EndChar

StartChar: m
Encoding: 109 109 80
Width: 1100
Flags: MW
LayerCount: 2
Back
Fore
SplineSet
550 50 m 25,0,-1
 550 950 l 1049,1,-1
150 50 m 1,2,-1
 150 950 l 17,3,-1
 750 950 l 2,4,5
 835 950 835 950 892 892 c 0,6,7
 950 834 950 834 950 750 c 2,8,-1
 950 51 l 1026,9,-1
EndSplineSet
EndChar

StartChar: n
Encoding: 110 110 81
Width: 800
Flags: MW
AnchorPoint: "Cedilla" 351 0 basechar 0
AnchorPoint: "Bottom" 401 -150 basechar 0
AnchorPoint: "Top" 400 1350 basechar 0
LayerCount: 2
Back
Fore
SplineSet
150 50 m 1,0,-1
 150 950 l 17,1,-1
 450 950 l 2,2,3
 535 950 535 950 592 892 c 0,4,5
 650 834 650 834 650 750 c 2,6,-1
 650 51 l 1026,7,-1
EndSplineSet
EndChar

StartChar: o
Encoding: 111 111 82
Width: 800
Flags: W
AnchorPoint: "Ogonek" 300 0 basechar 0
AnchorPoint: "Top" 400 1350 basechar 0
LayerCount: 2
Back
Fore
SplineSet
400 950 m 128,-1,1
 503 950 503 950 576.5 876.5 c 128,-1,2
 650 803 650 803 650 700 c 2,3,-1
 650 300 l 2,4,5
 650 197 650 197 576 124 c 0,6,7
 503 50 503 50 400 50 c 128,-1,8
 297 50 297 50 224 124 c 0,9,10
 150 199 150 199 150 300 c 2,11,-1
 150 700 l 2,12,13
 150 803 150 803 224 876 c 0,14,0
 297 950 297 950 400 950 c 128,-1,1
EndSplineSet
EndChar

StartChar: r
Encoding: 114 114 85
Width: 700
Flags: MW
AnchorPoint: "Top" 350 1350 basechar 0
LayerCount: 2
Back
Fore
SplineSet
150 50 m 1,0,-1
 150 950 l 1,1,-1
 400 950 l 1,2,3
 464 950 464 950 506 907.75 c 0,4,5
 550 864.011904762 550 864.011904762 550 800.5 c 1024,6,7
EndSplineSet
EndChar

StartChar: s
Encoding: 115 115 86
Width: 800
Flags: W
AnchorPoint: "Top" 400 1350 basechar 0
LayerCount: 2
Back
Fore
SplineSet
150 122 m 1,0,1
 251 51 251 51 400 50 c 0,2,3
 509 49 509 49 571.153320312 95.3271484375 c 0,4,5
 650 154 650 154 650 225 c 0,6,7
 650 323 650 323 590 367 c 2,8,-1
 208 650 l 2,9,10
 150 692.968586387 150 692.968586387 150 775 c 0,11,12
 150 855 150 855 208.26953125 903.036132812 c 0,13,14
 266 950 266 950 400 950 c 0,15,16
 530 950 530 950 630.162109375 880.053710938 c 1025,17,-1
EndSplineSet
EndChar

StartChar: t
Encoding: 116 116 87
Width: 600
UnlinkRmOvrlpSave: 1
Flags: MW
AnchorPoint: "Top" 250 1350 basechar 0
LayerCount: 2
Back
Fore
SplineSet
250 50 m 25,0,-1
 250 1350 l 1049
EndSplineSet
Refer: 445 821 S 1 0 0 1 0 0 2
EndChar

StartChar: v
Encoding: 118 118 89
Width: 800
Flags: MW
LayerCount: 2
Back
Fore
SplineSet
650 950 m 1,0,-1
 401 50 l 1025,1,-1
150 950 m 25,2,-1
 399 50 l 1025,3,-1
EndSplineSet
EndChar

StartChar: w
Encoding: 119 119 90
Width: 1200
Flags: MW
AnchorPoint: "Top" 600 1350 basechar 0
LayerCount: 2
Back
Fore
SplineSet
601 750 m 1,0,-1
 849 50 l 1049,1,-1
1050 950 m 25,2,-1
 851 50 l 1025,3,-1
150 950 m 25,4,-1
 349 50 l 1025,5,-1
351 50 m 25,6,-1
 599 750 l 1049,7,-1
EndSplineSet
EndChar

StartChar: x
Encoding: 120 120 91
Width: 800
Flags: W
AnchorPoint: "Top" 400 1350 basechar 0
LayerCount: 2
Back
Fore
SplineSet
150 50 m 25,0,-1
 650 950 l 1053,1,-1
150 950 m 25,2,-1
 650 50 l 1049,3,-1
EndSplineSet
EndChar

StartChar: y
Encoding: 121 121 92
Width: 800
Flags: MW
AnchorPoint: "Top" 400 1350 basechar 0
LayerCount: 2
Back
Fore
SplineSet
150 950 m 1,0,-1
 400 50 l 1049,1,-1
650 950 m 0,2,-1
 332 -200 l 2,3,4
 313 -268 313 -268 272 -309 c 128,-1,6
 231 -350 231 -350 150 -349.75 c 1026,7,-1
EndSplineSet
EndChar

StartChar: z
Encoding: 122 122 93
Width: 800
Flags: MW
AnchorPoint: "Top" 400 1350 basechar 0
LayerCount: 2
Back
Fore
SplineSet
150 950 m 29,0,-1
 650 950 l 25,1,-1
 150 50 l 25,2,-1
 650 50 l 1049,3,-1
EndSplineSet
EndChar

StartChar: braceleft
Encoding: 123 123 94
Width: 500
Flags: W
LayerCount: 2
Back
Fore
SplineSet
150 700 m 2,0,1
 188 700 188 700 218 731 c 0,2,3
 250 764 250 764 250 800 c 2,4,-1
 250 1350 l 2,5,6
 250 1388 250 1388 281 1418 c 0,7,8
 314 1450 314 1450 350 1450 c 1024,9,-1
350 -50 m 2,10,11
 312 -50 312 -50 282 -19 c 0,12,13
 250 14 250 14 250 50 c 2,14,-1
 250 600 l 2,15,16
 250 638 250 638 219 668 c 0,17,18
 186 700 186 700 150 700 c 1024,19,-1
EndSplineSet
EndChar

StartChar: bar
Encoding: 124 124 95
Width: 300
Flags: W
LayerCount: 2
Back
Fore
SplineSet
150 1450 m 25,0,-1
 150 -50 l 1049,1,-1
EndSplineSet
EndChar

StartChar: asciitilde
Encoding: 126 126 97
Width: 900
Flags: W
LayerCount: 2
Back
Fore
SplineSet
150 500 m 2,4,5
 216 550 216 550 300 550 c 0,2,3
 386 550 386 550 450 500 c 152,-1,1
 514 450 514 450 600 450 c 0,8,9
 684 450 684 450 750 500 c 1026,10,-1
EndSplineSet
EndChar

StartChar: cent
Encoding: 162 162 99
Width: 800
Flags: W
LayerCount: 2
Back
Fore
SplineSet
450 1150 m 25,0,-1
 450 -150 l 1053,1,-1
650 950 m 1,2,-1
 350 950 l 2,3,4
 265 950 265 950 208 892 c 0,5,6
 150 834 150 834 150 750 c 2,7,-1
 150 250 l 2,8,9
 150 163 150 163 207 108 c 0,10,11
 267 50 267 50 350 50 c 2,12,-1
 650 50 l 1025,13,-1
EndSplineSet
EndChar

StartChar: sterling
Encoding: 163 163 100
Width: 900
Flags: W
LayerCount: 2
Back
Fore
SplineSet
150 750 m 25,0,-1
 450 750 l 1049,1,-1
750 199.5 m 128,-1,2
 750 137 750 137 706 93.5 c 128,-1,3
 662 50 662 50 600 50 c 0,4,-1
 150 50 l 1025,5,-1
157 50 m 1,6,7
 193 50 193 50 221 79 c 0,8,9
 250 109 250 109 250 150 c 2,10,-1
 250 1150 l 0,11,12
 250 1232 250 1232 309 1291 c 128,-1,13
 368 1350 368 1350 450 1350 c 128,-1,14
 532 1350 532 1350 591 1291 c 128,-1,15
 650 1232 650 1232 650 1150 c 1024,16,-1
EndSplineSet
EndChar

StartChar: currency
Encoding: 164 164 101
Width: 1400
Flags: W
LayerCount: 2
Back
Fore
SplineSet
1250 151 m 25,0,-1
 1100 301 l 1053,1,-1
150 150 m 25,2,-1
 300 299 l 1049,3,-1
1250 1249 m 25,4,-1
 1100 1099 l 1049,5,-1
150 1249 m 25,6,-1
 300 1100 l 1049,7,-1
150 700 m 128,-1,9
 150 850 150 850 224 976 c 128,-1,10
 298 1102 298 1102 424 1176 c 0,11,12
 551 1250 551 1250 700 1250 c 128,-1,13
 849 1250 849 1250 976 1176 c 0,14,15
 1102 1102 1102 1102 1176 976 c 128,-1,16
 1250 850 1250 850 1250 700 c 128,-1,17
 1250 550 1250 550 1176 423.5 c 128,-1,18
 1102 297 1102 297 976 223 c 0,19,20
 849 149 849 149 700 149 c 128,-1,21
 551 149 551 149 424 223 c 0,22,23
 298 297 298 297 224 423.5 c 128,-1,8
 150 550 150 550 150 700 c 128,-1,9
EndSplineSet
EndChar

StartChar: yen
Encoding: 165 165 102
Width: 1000
UnlinkRmOvrlpSave: 1
Flags: MW
LayerCount: 2
Back
Fore
SplineSet
200 550 m 25,0,-1
 800 550 l 1049
200 752 m 25,2,-1
 800 750 l 1049
EndSplineSet
Refer: 60 89 N 1 0 0 1 0 0 2
EndChar

StartChar: brokenbar
Encoding: 166 166 103
Width: 300
Flags: W
LayerCount: 2
Back
Fore
SplineSet
150 550 m 25,0,-1
 150 -50 l 1049,1,-1
150 1450 m 25,2,-1
 150 850 l 1049,3,-1
EndSplineSet
EndChar

StartChar: section
Encoding: 167 167 104
Width: 800
Flags: W
LayerCount: 2
Back
Fore
SplineSet
520 325 m 2,0,1
 542 341 542 341 590 400 c 0,2,3
 650 474 650 474 650 601 c 0,4,5
 650 717 650 717 596 796 c 0,6,7
 547 864 547 864 451 943 c 0,8,9
 298 1070 298 1070 258 1107 c 24,10,11
 200 1160 200 1160 200 1249 c 0,12,13
 200 1332 200 1332 258 1391 c 128,-1,14
 316 1450 316 1450 400 1450 c 0,15,16
 534 1450 534 1450 600 1349 c 1024,17,-1
280 1075 m 2,18,19
 258 1059 258 1059 210 1000 c 0,20,21
 150 926 150 926 150 799 c 0,22,23
 150 683 150 683 204 604 c 0,24,25
 253 536 253 536 349 457 c 0,26,27
 502 330 502 330 542 293 c 24,28,29
 600 240 600 240 600 151 c 0,30,31
 600 68 600 68 542 9 c 128,-1,32
 484 -50 484 -50 400 -50 c 0,33,34
 266 -50 266 -50 200 51 c 1024,35,-1
EndSplineSet
EndChar

StartChar: ordfeminine
Encoding: 170 170 107
Width: 900
Flags: W
LayerCount: 2
Back
Fore
SplineSet
550 900.5 m 128,-1,0
 550 838 550 838 506 794 c 128,-1,1
 462 750 462 750 400 750 c 2,2,-1
 300 750 l 2,3,4
 238 750 238 750 194 793.5 c 128,-1,5
 150 837 150 837 150 900 c 2,6,-1
 150 1200 l 2,7,8
 150 1262 150 1262 194 1306 c 128,-1,9
 238 1350 238 1350 300 1350 c 0,10,-1
 550 1350 l 1,11,-1
 550 1000 l 1025,12,-1
650 750 m 0,13,14
 608 750 608 750 579 779 c 0,15,16
 550 809 550 809 550 850 c 2,17,-1
 550 1000 l 1025,18,-1
EndSplineSet
EndChar

StartChar: logicalnot
Encoding: 172 172 109
Width: 900
Flags: W
LayerCount: 2
Back
Fore
SplineSet
150 600 m 1,0,-1
 750 600 l 1,1,-1
 750 400 l 1029,2,-1
EndSplineSet
EndChar

StartChar: degree
Encoding: 176 176 113
Width: 600
Flags: W
LayerCount: 2
Back
Fore
SplineSet
150 1200 m 132,-1,0
 150 1262 150 1262 194 1306 c 128,-1,1
 238 1350 238 1350 300 1350 c 128,-1,2
 362 1350 362 1350 406 1306 c 128,-1,3
 450 1262 450 1262 450 1200 c 128,-1,4
 450 1138 450 1138 406 1094 c 128,-1,5
 362 1050 362 1050 300 1050 c 128,-1,6
 238 1050 238 1050 194 1094 c 128,-1,7
 150 1138 150 1138 150 1200 c 132,-1,0
EndSplineSet
EndChar

StartChar: acute
Encoding: 180 180 115
Width: 300
Flags: W
AnchorPoint: "Top" 150 1350 mark 0
LayerCount: 2
Back
Fore
SplineSet
100 1250 m 25,0,-1
 150 1350 l 1053,1,-1
EndSplineSet
EndChar

StartChar: paragraph
Encoding: 182 182 117
Width: 1100
Flags: MW
LayerCount: 2
Back
Fore
SplineSet
800 50 m 25,0,-1
 800 1350 l 1049,1,-1
500 50 m 25,2,-1
 500 1350 l 1049,3,-1
950 1350 m 25,4,-1
 450 1350 l 17,5,6
 326 1350 326 1350 238 1262 c 128,-1,8
 150 1174 150 1174 150 1050 c 128,-1,9
 150 926 150 926 238 838 c 0,10,11
 328 750 328 750 450 750 c 9,12,-1
 500 750 l 1049,13,-1
EndSplineSet
EndChar

StartChar: ordmasculine
Encoding: 186 186 121
Width: 600
Flags: W
LayerCount: 2
Back
Fore
SplineSet
150 900 m 22,0,1
 150 838 150 838 194 794 c 128,-1,2
 238 750 238 750 300 750 c 128,-1,3
 362 750 362 750 406 794 c 128,-1,4
 450 838 450 838 450 900 c 2,5,-1
 450 1200 l 2,6,7
 450 1262 450 1262 406 1306 c 128,-1,8
 362 1350 362 1350 300 1350 c 128,-1,9
 238 1350 238 1350 194 1306 c 128,-1,10
 150 1262 150 1262 150 1200 c 10,11,-1
 150 900 l 22,0,1
EndSplineSet
EndChar

StartChar: multiply
Encoding: 215 215 123
Width: 800
Flags: W
LayerCount: 2
Back
Fore
SplineSet
150 250 m 25,0,-1
 650 750 l 1053,1,-1
650 250 m 25,2,-1
 150 750 l 1049,3,-1
EndSplineSet
EndChar

StartChar: uni0394
Encoding: 916 916 134
Width: 1000
Flags: W
LayerCount: 2
Back
Fore
SplineSet
850 52 m 29,0,-1
 501 1350 l 1029,1,-1
150 50 m 5,2,-1
 850 50 l 1029,3,-1
499 1350 m 29,4,-1
 150 51 l 1029,5,-1
EndSplineSet
EndChar

StartChar: Lambda
Encoding: 923 923 141
Width: 1000
Flags: W
LayerCount: 2
Back
Fore
SplineSet
850 50 m 29,0,-1
 501 1350 l 1025,1,-1
499 1350 m 25,2,-1
 150 50 l 1025,3,-1
EndSplineSet
EndChar

StartChar: Xi
Encoding: 926 926 144
Width: 900
Flags: W
LayerCount: 2
Back
Fore
SplineSet
150 50 m 25,0,-1
 750 50 l 1053,1,-1
300 750 m 25,2,-1
 600 750 l 1049,3,-1
150 1350 m 25,4,-1
 750 1350 l 1049,5,-1
EndSplineSet
EndChar

StartChar: Sigma
Encoding: 931 931 148
Width: 900
Flags: W
LayerCount: 2
Back
Fore
SplineSet
750 1350 m 25,0,-1
 150 1350 l 25,1,-1
 450 700 l 25,2,-1
 150 50 l 25,3,-1
 750 50 l 1049,4,-1
EndSplineSet
EndChar

StartChar: Phi
Encoding: 934 934 151
Width: 1000
Flags: MW
LayerCount: 2
Back
Fore
SplineSet
500 1352 m 29,0,-1
 500 50 l 1053,1,-1
150 800 m 22,2,3
 150 946 150 946 252.625 1045.875 c 4,4,5
 360 1150 360 1150 500 1150 c 4,6,7
 646 1150 646 1150 748.25 1047 c 4,8,9
 850 945 850 945 850 800 c 6,10,-1
 850 600 l 6,11,12
 850 454 850 454 747.75 353 c 4,13,14
 644 250 644 250 500 250 c 132,-1,15
 356 250 356 250 251.75 353 c 4,16,17
 150 454 150 454 150 600 c 14,18,-1
 150 800 l 22,2,3
EndSplineSet
EndChar

StartChar: Psi
Encoding: 936 936 153
Width: 1000
Flags: MW
LayerCount: 2
Back
Fore
SplineSet
500 1350 m 25,0,-1
 500 50 l 1049,1,-1
850 1350 m 1,2,-1
 850 800 l 2,3,4
 850 655 850 655 747 552.5 c 128,-1,5
 644 450 644 450 500 450 c 256,6,7
 356 450 356 450 253 552 c 128,-1,7
 150 654 150 654 150 800 c 6,8,-1
 150 1350 l 1041,9,-1
EndSplineSet
EndChar

StartChar: uni03A9
Encoding: 937 937 154
Width: 1000
Flags: W
LayerCount: 2
Back
Fore
SplineSet
750 50 m 25,0,-1
 600 50 l 25,1,-1
 600 300 l 17,2,3
 704 300 704 300 777 373.75 c 0,4,5
 850 448 850 448 850 550 c 2,6,-1
 850 1000.5 l 0,7,8
 850 1146 850 1146 748 1248 c 128,-1,9
 646 1350 646 1350 499.5 1350 c 0,10,11
 354 1350 354 1350 252 1248 c 128,-1,12
 150 1146 150 1146 150 1000 c 0,13,-1
 150 550 l 2,14,15
 150 447 150 447 223 373.5 c 128,-1,16
 296 300 296 300 400 300 c 9,17,-1
 400 50 l 25,18,-1
 250 50 l 1049,19,-1
EndSplineSet
EndChar

StartChar: alpha
Encoding: 945 945 155
Width: 950
Flags: W
LayerCount: 2
Back
Fore
SplineSet
750 950 m 1,0,-1
 542 191 l 2,1,2
 529.422851562 143.89453125 529.422851562 143.89453125 492.25 109 c 0,3,4
 429.397460938 50 429.397460938 50 350 50 c 0,5,6
 266 50 266 50 208.25 108.5 c 0,7,8
 150 167 150 167 150 250 c 2,9,-1
 150 750 l 2,10,11
 150 833 150 833 208.25 891.5 c 0,12,13
 266 950 266 950 350 950 c 0,14,15
 429.397794694 950 429.397794694 950 492.25 891 c 0,16,17
 529.422851562 856.10546875 529.422851562 856.10546875 542 809 c 2,18,-1
 750 50 l 9,19,-1
 800 50 l 1053,20,-1
EndSplineSet
EndChar

StartChar: beta
Encoding: 946 946 156
Width: 800
Flags: W
LayerCount: 2
Back
Fore
SplineSet
150 -350 m 5,0,-1
 150 1100 l 6,1,2
 150 1203 150 1203 216 1276.5 c 132,-1,3
 282 1350 282 1350 375 1350.5 c 4,4,5
 468 1350 468 1350 534 1276.5 c 132,-1,6
 600 1203 600 1203 600 1100 c 132,-1,7
 600 997 600 997 534 923.75 c 4,8,9
 468 850 468 850 375 850 c 6,10,-1
 350 850 l 5,11,-1
 400 850 l 6,12,13
 502 850 502 850 577 775 c 4,14,15
 650 702 650 702 650 600 c 6,16,-1
 650 300 l 6,17,18
 650 199 650 199 577 123.5 c 4,19,20
 506 50 506 50 400 50 c 14,21,-1
 350 50 l 1053,22,-1
EndSplineSet
EndChar

StartChar: gamma
Encoding: 947 947 157
Width: 800
Flags: W
LayerCount: 2
Back
Fore
SplineSet
150 950 m 0,0,1
 337 950 337 950 450 500 c 0,2,3
 500 300 500 300 500 50 c 0,4,5
 500 -350 500 -350 450 -350 c 128,-1,6
 400 -350 400 -350 400 50 c 0,7,8
 400 300 400 300 450 500 c 0,9,10
 507 727 507 727 650 950 c 1024,11,-1
EndSplineSet
EndChar

StartChar: delta
Encoding: 948 948 158
Width: 800
Flags: W
LayerCount: 2
Back
Fore
SplineSet
550 1276 m 0,0,1
 470 1350 470 1350 382 1350 c 4,2,3
 250 1350 250 1350 250 1250 c 0,4,5
 250 1195 250 1195 284 1164 c 1,6,-1
 576.5 876.5 l 1025,7,-1
400 950 m 128,-1,9
 503 950 503 950 576.5 876.5 c 128,-1,10
 650 803 650 803 650 700 c 2,11,-1
 650 300 l 2,12,13
 650 197 650 197 576 124 c 0,14,15
 503 50 503 50 400 50 c 128,-1,16
 297 50 297 50 224 124 c 0,17,18
 150 199 150 199 150 300 c 2,19,-1
 150 700 l 2,20,21
 150 803 150 803 224 876 c 0,22,8
 297 950 297 950 400 950 c 128,-1,9
EndSplineSet
EndChar

StartChar: epsilon
Encoding: 949 949 159
Width: 800
Flags: W
LayerCount: 2
Back
Fore
SplineSet
350 500 m 4,0,1
 282 500 282 500 216 566.5 c 132,-1,2
 150 633 150 633 150 728 c 4,3,4
 150 821 150 821 207 885.5 c 132,-1,5
 264 950 264 950 400.5 950 c 7,6,7
 556 950 556 950 650 900 c 1053,8,-1
450 500 m 1,9,-1
 350 500 l 0,10,11
 282 500 282 500 216 433.5 c 128,-1,12
 150 367 150 367 150 272 c 0,13,14
 150 179 150 179 207 114.5 c 128,-1,15
 264 50 264 50 400.5 50 c 3,16,17
 556 50 556 50 650 100 c 1049,18,-1
EndSplineSet
EndChar

StartChar: zeta
Encoding: 950 950 160
Width: 800
Flags: W
LayerCount: 2
Back
Fore
SplineSet
150 1350 m 128,-1,0
 150 1267 150 1267 207.75 1208.5 c 0,1,2
 264 1150 264 1150 350 1150 c 2,3,-1
 600 1150 l 1053,4,-1
250 -350 m 1,5,-1
 450 -350 l 2,6,7
 532 -350 532 -350 591.25 -289.75 c 0,8,9
 650 -230 650 -230 650 -149.75 c 0,10,11
 650 -70 650 -70 591 -9 c 0,12,13
 534 50 534 50 450 50 c 2,14,-1
 400 50 l 2,15,16
 296 50 296 50 223 123.5 c 128,-1,17
 150 197 150 197 150 300 c 0,18,19
 150 812 150 812 600 1149 c 1024,20,-1
EndSplineSet
EndChar

StartChar: eta
Encoding: 951 951 161
Width: 900
Flags: MW
LayerCount: 2
Back
Fore
SplineSet
250 50 m 5,3,-1
 250 850 l 5,4,-1
 250 890 250 890 220 920 c 132,-1,1
 190 950 190 950 150 950 c 1156,-1,0
250 700 m 4,5,6
 250 803 250 803 323 876.5 c 132,-1,7
 396 950 396 950 500 950 c 132,-1,8
 604 950 604 950 677 876.75 c 4,9,10
 750 804 750 804 750 700 c 6,11,-1
 750 -350 l 1029,12,-1
EndSplineSet
EndChar

StartChar: theta
Encoding: 952 952 162
Width: 1100
Flags: W
LayerCount: 2
Back
Fore
SplineSet
150 450 m 128,-1,0
 150 490 150 490 180 520 c 128,-1,1
 210 550 210 550 250 550 c 0,2,3
 301 550 301 550 328 508 c 258,4,-1
 581 114 l 6,5,6
 622 50 622 50 700 50 c 0,7,8
 762 50 762 50 810 97.25 c 0,9,10
 850 136 850 136 850 200 c 2,11,-1
 850 1100 l 2,12,13
 850 1204 850 1204 777 1277 c 128,-1,14
 704 1350 704 1350 600 1350 c 128,-1,15
 496 1350 496 1350 423 1277 c 128,-1,16
 350 1204 350 1204 350 1100 c 128,-1,17
 350 996 350 996 423 923 c 0,18,19
 495 850 495 850 600 850 c 2,20,-1
 950 850 l 1025,21,-1
EndSplineSet
EndChar

StartChar: iota
Encoding: 953 953 163
Width: 550
Flags: MW
LayerCount: 2
Back
Fore
SplineSet
400 125 m 0,0,1
 394 110 394 110 367 85 c 0,2,3
 329 50 329 50 277 50.125 c 0,4,5
 224 50 224 50 187 87 c 128,-1,6
 150 124 150 124 150 175 c 10,7,-1
 150 950 l 1049,8,-1
EndSplineSet
EndChar

StartChar: kappa
Encoding: 954 954 164
Width: 950
Flags: W
LayerCount: 2
Back
Fore
SplineSet
800 50 m 25,0,-1
 750.5 50 l 2,1,2
 699 50 699 50 665 108 c 2,3,-1
 409 539 l 1026,4,5
150 950 m 128,-1,6
 190 950 190 950 219.5 920 c 128,-1,7
 249 890 249 890 250 850 c 2,8,-1
 250 50 l 1025,9,-1
750 950 m 25,10,-1
 250 350 l 1025,11,-1
EndSplineSet
EndChar

StartChar: lambda
Encoding: 955 955 165
Width: 850
Flags: MW
LayerCount: 2
Back
Fore
SplineSet
700 50 m 0,0,1
 650 50 650 50 636 100 c 2,2,-1
 317 1250 l 2,3,4
 289 1350 289 1350 200 1350 c 1024,5,-1
400 950 m 25,6,-1
 150 50 l 1025,7,-1
EndSplineSet
EndChar

StartChar: uni03BC
Encoding: 956 956 166
Width: 900
Flags: MW
LayerCount: 2
Back
Fore
SplineSet
150 -350 m 5,0,-1
 150 300 l 1053,1,-1
650 950 m 5,2,-1
 650 150 l 5,3,4
 650 110 650 110 680 80 c 132,-1,5
 710 50 710 50 750 50 c 1156,-1,6
650 300 m 4,7,8
 650 197 650 197 577 123.5 c 132,-1,9
 504 50 504 50 400 50 c 132,-1,10
 296 50 296 50 223 123.25 c 4,11,12
 150 196 150 196 150 300 c 6,13,-1
 150 950 l 1037,14,-1
EndSplineSet
EndChar

StartChar: nu
Encoding: 957 957 167
Width: 800
Flags: W
LayerCount: 2
Back
Fore
SplineSet
650 950 m 4,0,1
 650 417 650 417 351 50 c 1052,2,3
349 50 m 4,4,5
 250 501 250 501 250 850 c 5,6,7
 250 889 250 889 220 920 c 4,8,9
 191 950 191 950 150 950 c 1028,10,11
EndSplineSet
EndChar

StartChar: xi
Encoding: 958 958 168
Width: 900
Flags: W
LayerCount: 2
Back
Fore
SplineSet
500 1250 m 132,-1,0
 396 1250 396 1250 323 1177 c 132,-1,1
 250 1104 250 1104 250 1001 c 4,2,3
 250 900.041666667 250 900.041666667 323 824 c 4,4,5
 394 750 394 750 500 750 c 6,6,-1
 600 750 l 1029,7,-1
150 1350 m 4,8,9
 150 1311 150 1311 180.0770194 1279.92042238 c 4,10,11
 209 1250 209 1250 250 1250 c 6,12,-1
 600 1250 l 1029,13,-1
350 -350 m 5,14,-1
 550 -350 l 6,15,16
 632 -350 632 -350 691.25 -289.75 c 4,17,18
 750 -230 750 -230 750 -149.75 c 4,19,20
 750 -70 750 -70 691 -9 c 4,21,22
 634 50 634 50 550 50 c 6,23,-1
 500.5 50 l 6,24,25
 354 50 354 50 252 152 c 132,-1,26
 150 254 150 254 150 400 c 132,-1,27
 150 546 150 546 252 648 c 132,-1,28
 354 750 354 750 499.5 750 c 1028,29,30
EndSplineSet
EndChar

StartChar: pi
Encoding: 960 960 170
Width: 1000
Flags: W
LayerCount: 2
Back
Fore
SplineSet
200 50 m 0,0,1
 242 50 242 50 271 79 c 128,-1,2
 300 108 300 108 300 150 c 10,3,-1
 300 950 l 1049,4,-1
850 1000 m 0,5,6
 785 950 785 950 700 950 c 2,7,-1
 150 950 l 1053,8,-1
800 50 m 0,9,10
 758 50 758 50 729 79 c 128,-1,11
 700 108 700 108 700 150 c 10,12,-1
 700 950 l 1049,13,-1
EndSplineSet
EndChar

StartChar: rho
Encoding: 961 961 171
Width: 800
UnlinkRmOvrlpSave: 1
Flags: MW
LayerCount: 2
Back
Fore
SplineSet
250 101 m 4,0,1
 420 -76 420 -76 350 -350 c 1052
EndSplineSet
Refer: 82 111 S 1 0 0 1 0 0 2
EndChar

StartChar: sigma1
Encoding: 962 962 172
Width: 800
Flags: W
LayerCount: 2
Back
Fore
SplineSet
600 900 m 0,0,1
 463 950 463 950 350 950 c 256,2,3
 267 950 267 950 208.5 891 c 128,-1,4
 150 832 150 832 150 750 c 2,5,-1
 150 250 l 0,6,7
 150 167 150 167 208 108 c 0,8,9
 266 50 266 50 350 50 c 2,10,-1
 450 50 l 2,11,12
 533 50 533 50 592 -10 c 0,13,14
 650 -69 650 -69 650 -147 c 0,15,16
 650 -149 650 -149 650 -150 c 0,17,18
 650 -229 650 -229 590 -290 c 0,19,20
 532 -350 532 -350 450 -350 c 2,21,-1
 250 -350 l 1025,22,-1
EndSplineSet
EndChar

StartChar: sigma
Encoding: 963 963 173
Width: 800
UnlinkRmOvrlpSave: 1
Flags: MW
LayerCount: 2
Back
Fore
SplineSet
500 930 m 4,0,1
 616 892 616 892 750 1000 c 1024
EndSplineSet
Refer: 82 111 N 1 0 0 1 0 0 2
EndChar

StartChar: tau
Encoding: 964 964 174
Width: 850
Flags: W
LayerCount: 2
Back
Fore
SplineSet
700 1000 m 0,0,1
 636 950 636 950 550 950 c 2,2,-1
 150 950 l 1025,3,-1
400 950 m 25,4,-1
 400 150 l 6,5,6
 400 109 400 109 429 79.5 c 128,-1,8
 458 50 458 50 500 50 c 10,9,-1
 550 50 l 1049,10,-1
EndSplineSet
EndChar

StartChar: upsilon
Encoding: 965 965 175
Width: 800
Flags: MW
LayerCount: 2
Back
Fore
SplineSet
150 950 m 256,0,1
 168 950 168 950 184 935 c 128,-1,2
 200 920 200 920 200 900 c 256,3,-1
 200 200 l 2,4,5
 200 138 200 138 245.5 94 c 128,-1,6
 291 50 291 50 350 50 c 256,7,8
 409 50 409 50 456 87 c 256,9,10
 650 200 650 200 650 650 c 0,11,12
 650 798 650 798 639 840.5 c 128,-1,13
 628 883 628 883 600 950 c 1049,14,-1
EndSplineSet
EndChar

StartChar: phi
Encoding: 966 966 176
Width: 1000
Flags: MW
LayerCount: 2
Back
Fore
SplineSet
250 950 m 28,0,1
 150 694 150 694 150 400 c 260,2,3
 150 306 150 306 197 225 c 132,-1,5
 244 144 244 144 324.5 97 c 132,-1,6
 405 50 405 50 500 50 c 260,7,8
 595 50 595 50 675.5 97 c 132,-1,9
 756 144 756 144 803 224.5 c 132,-1,10
 850 305 850 305 850 400 c 260,11,12
 850 950 850 950 624.5 950 c 4,13,14
 572 950 572 950 536 914 c 132,-1,15
 500 878 500 878 500 825 c 270,16,-1
 500 -350 l 1053,17,-1
EndSplineSet
EndChar

StartChar: chi
Encoding: 967 967 177
Width: 900
Flags: MW
LayerCount: 2
Back
Fore
SplineSet
150 950 m 0,0,1
 219.094138544 950 219.094138544 950 250 863 c 2,2,3
 650 -263 l 2,4,5
 681 -350 681 -350 750 -350 c 1024,6,7
700 950 m 25,8,-1
 200 -350 l 1049,9,-1
EndSplineSet
EndChar

StartChar: psi
Encoding: 968 968 178
Width: 1000
Flags: MW
LayerCount: 2
Back
Fore
SplineSet
500 1150 m 25,0,-1
 500 -350 l 1049,1,-1
850 950 m 1,2,-1
 850 400 l 2,3,4
 850 255 850 255 747 152.5 c 128,-1,6
 644 50 644 50 500 50 c 256,7,8
 356 50 356 50 253 152 c 128,-1,8
 150 254 150 254 150 400 c 2,9,-1
 150 950 l 1041,10,-1
EndSplineSet
EndChar

StartChar: omega
Encoding: 969 969 179
Width: 1100
Flags: MW
LayerCount: 2
Back
Fore
SplineSet
250 950 m 1,0,1
 150 734 150 734 150 250 c 256,2,3
 150 166 150 166 208.75 108.25 c 0,4,5
 268 50 268 50 350 50 c 256,6,7
 432 50 432 50 491.25 108.5 c 0,8,9
 550 168 550 168 550 250 c 1290,10,-1
850 950 m 1,11,12
 950 734 950 734 950 250 c 256,13,14
 950 166 950 166 891.25 108.25 c 0,15,16
 832 50 832 50 750 50 c 256,17,18
 668 50 668 50 608.75 108.5 c 0,19,20
 550 168 550 168 550 250 c 266,21,-1
 550 450 l 1049,22,-1
EndSplineSet
EndChar

StartChar: uni0411
Encoding: 1041 1041 182
Width: 900
Flags: W
LayerCount: 2
Back
Fore
SplineSet
150 750 m 1,0,-1
 400 750 l 1,1,2
 497 750 497 750 576 704 c 0,3,4
 658 656 658 656 703 576 c 0,5,6
 750 492 750 492 750 400 c 0,7,8
 750 305 750 305 703 225 c 0,9,10
 656 144 656 144 576 97 c 0,11,12
 495 50 495 50 400 50 c 10,13,-1
 150 50 l 1,14,-1
 150 1350 l 25,15,-1
 650 1350 l 1049,16,-1
EndSplineSet
EndChar

StartChar: uni0413
Encoding: 1043 1043 184
Width: 800
Flags: W
LayerCount: 2
Back
Fore
SplineSet
650 1350 m 25,0,-1
 150 1350 l 29,1,-1
 150 50 l 1049,2,-1
EndSplineSet
EndChar

StartChar: uni0414
Encoding: 1044 1044 185
Width: 1000
Flags: W
LayerCount: 2
Back
Fore
SplineSet
750 50 m 29,0,-1
 750 1350 l 1,1,-1
 450 1350 l 25,2,-1
 250 50 l 1049,3,-1
850 -50 m 25,4,-1
 850 50 l 25,5,-1
 150 50 l 25,6,-1
 150 -50 l 1049,7,-1
EndSplineSet
EndChar

StartChar: uni0416
Encoding: 1046 1046 187
Width: 1100
Flags: MW
LayerCount: 2
Back
Fore
SplineSet
950 1350 m 25,0,-1
 600 750 l 25,1,-1
 950 50 l 1049,2,-1
150 1350 m 25,3,-1
 500 750 l 25,4,-1
 150 50 l 1049,5,-1
550 50 m 25,6,-1
 550 1350 l 1049,7,-1
EndSplineSet
EndChar

StartChar: uni0417
Encoding: 1047 1047 188
Width: 900
Flags: W
LayerCount: 2
Back
Fore
SplineSet
350 750 m 25,0,-1
 450 750 l 18,1,2
 571 750 571 750 648 839 c 128,-1,3
 725 928 725 928 725 1050 c 256,4,5
 725 1172 725 1172 639 1261 c 128,-1,6
 553 1350 553 1350 425.931640625 1350 c 0,7,8
 277 1350 277 1350 200 1275 c 1032,9,-1
450 749 m 0,10,11
 601 749 601 749 675.5 648 c 128,-1,13
 750 547 750 547 750 400 c 256,14,15
 750 249 750 249 663 149.5 c 128,-1,16
 576 50 576 50 425 50 c 256,17,18
 245 50 245 50 150 150 c 1049,19,-1
EndSplineSet
EndChar

StartChar: uni041B
Encoding: 1051 1051 192
Width: 900
Flags: MW
LayerCount: 2
Back
Fore
SplineSet
150 50 m 29,0,-1
 450 1350 l 25,1,-1
 750 1350 l 25,2,-1
 750 50 l 1049,3,-1
EndSplineSet
EndChar

StartChar: uni041F
Encoding: 1055 1055 196
Width: 900
Flags: MW
LayerCount: 2
Back
Fore
SplineSet
150 50 m 25,0,-1
 150 1350 l 25,1,-1
 750 1350 l 25,2,-1
 750 50 l 1053,3,-1
EndSplineSet
EndChar

StartChar: uni0423
Encoding: 1059 1059 200
Width: 900
Flags: MW
LayerCount: 2
Back
Fore
SplineSet
150 1400 m 128,-1,1
 171 1400 171 1400 185.5 1385.5 c 128,-1,2
 200 1371 200 1371 200 1350 c 2,3,-1
 200 1000 l 2,4,5
 200 876 200 876 288 788 c 128,-1,6
 376 700 376 700 500 700 c 2,7,-1
 700 700 l 1,8,-1
 700 1350 l 2,9,10
 700 1371 700 1371 714.5 1385.5 c 128,-1,11
 729 1400 729 1400 750 1400 c 128,-1,12
 771 1400 771 1400 785.5 1385.5 c 128,-1,13
 800 1371 800 1371 800 1350 c 2,14,-1
 800 300 l 2,15,16
 800 176 800 176 712 88 c 128,-1,17
 624 0 624 0 500 0 c 2,18,-1
 250 0 l 2,19,20
 229 0 229 0 214.5 14.5 c 128,-1,21
 200 29 200 29 200 50 c 128,-1,22
 200 71 200 71 214.5 85.5 c 128,-1,23
 229 100 229 100 250 100 c 2,24,-1
 500 100 l 2,25,26
 582 100 582 100 641 159 c 128,-1,27
 700 218 700 218 700 300 c 2,28,-1
 700 600 l 1,29,-1
 500 600 l 2,30,31
 334 600 334 600 217 717 c 128,-1,32
 100 834 100 834 100 1000 c 2,33,-1
 100 1350 l 2,34,35
 100 1371 100 1371 114.5 1385.5 c 128,-1,0
 129 1400 129 1400 150 1400 c 128,-1,1
EndSplineSet
EndChar

StartChar: uni0424
Encoding: 1060 1060 201
Width: 1300
Flags: MW
LayerCount: 2
Back
Fore
SplineSet
650 1400 m 128,-1,1
 671 1400 671 1400 685.5 1385.5 c 128,-1,2
 700 1371 700 1371 700 1350 c 2,3,-1
 700 1200 l 1,4,-1
 750 1200 l 2,5,6
 872 1200 872 1200 976 1140 c 128,-1,7
 1080 1080 1080 1080 1140 976 c 128,-1,8
 1200 872 1200 872 1200 750 c 128,-1,9
 1200 628 1200 628 1140 524 c 128,-1,10
 1080 420 1080 420 976 360 c 128,-1,11
 872 300 872 300 750 300 c 2,12,-1
 700 300 l 1,13,-1
 700 50 l 2,14,15
 700 29 700 29 685.5 14.5 c 128,-1,16
 671 0 671 0 650 0 c 128,-1,17
 629 0 629 0 614.5 14.5 c 128,-1,18
 600 29 600 29 600 50 c 2,19,-1
 600 300 l 1,20,-1
 550 300 l 2,21,22
 428 300 428 300 324 360 c 128,-1,23
 220 420 220 420 160 524 c 128,-1,24
 100 628 100 628 100 750 c 128,-1,25
 100 872 100 872 160 976 c 128,-1,26
 220 1080 220 1080 324 1140 c 128,-1,27
 428 1200 428 1200 550 1200 c 2,28,-1
 600 1200 l 1,29,-1
 600 1350 l 2,30,31
 600 1371 600 1371 614.5 1385.5 c 128,-1,0
 629 1400 629 1400 650 1400 c 128,-1,1
550 1100 m 2,32,33
 405 1100 405 1100 302.5 997.5 c 128,-1,34
 200 895 200 895 200 750 c 128,-1,35
 200 605 200 605 302.5 502.5 c 128,-1,36
 405 400 405 400 550 400 c 2,37,-1
 600 400 l 1,38,-1
 600 1100 l 1,39,-1
 550 1100 l 2,32,33
700 1100 m 1,40,-1
 700 400 l 1,41,-1
 750 400 l 2,42,43
 895 400 895 400 997.5 502.5 c 128,-1,44
 1100 605 1100 605 1100 750 c 128,-1,45
 1100 895 1100 895 997.5 997.5 c 128,-1,46
 895 1100 895 1100 750 1100 c 2,47,-1
 700 1100 l 1,40,-1
EndSplineSet
EndChar

StartChar: uni0426
Encoding: 1062 1062 203
Width: 1000
Flags: MW
LayerCount: 2
Back
Fore
SplineSet
150 1400 m 128,-1,1
 171 1400 171 1400 185.5 1385.5 c 128,-1,2
 200 1371 200 1371 200 1350 c 2,3,-1
 200 100 l 1,4,-1
 700 100 l 1,5,-1
 700 1350 l 2,6,7
 700 1371 700 1371 714.5 1385.5 c 128,-1,8
 729 1400 729 1400 750 1400 c 128,-1,9
 771 1400 771 1400 785.5 1385.5 c 128,-1,10
 800 1371 800 1371 800 1350 c 2,11,-1
 800 100 l 1,12,-1
 850 100 l 2,13,14
 871 100 871 100 885.5 85.5 c 128,-1,15
 900 71 900 71 900 50 c 2,16,-1
 900 -150 l 2,17,18
 900 -171 900 -171 885.5 -185.5 c 128,-1,19
 871 -200 871 -200 850 -200 c 128,-1,20
 829 -200 829 -200 814.5 -185.5 c 128,-1,21
 800 -171 800 -171 800 -150 c 2,22,-1
 800 0 l 1,23,-1
 150 0 l 2,24,25
 129 0 129 0 114.5 14.5 c 128,-1,26
 100 29 100 29 100 50 c 2,27,-1
 100 1350 l 2,28,29
 100 1371 100 1371 114.5 1385.5 c 128,-1,0
 129 1400 129 1400 150 1400 c 128,-1,1
EndSplineSet
EndChar

StartChar: uni0427
Encoding: 1063 1063 204
Width: 900
Flags: MW
LayerCount: 2
Back
Fore
SplineSet
150 1400 m 128,-1,1
 171 1400 171 1400 185.5 1385.5 c 128,-1,2
 200 1371 200 1371 200 1350 c 2,3,-1
 200 1000 l 2,4,5
 200 876 200 876 288 788 c 128,-1,6
 376 700 376 700 500 700 c 2,7,-1
 700 700 l 1,8,-1
 700 1350 l 2,9,10
 700 1371 700 1371 714.5 1385.5 c 128,-1,11
 729 1400 729 1400 750 1400 c 128,-1,12
 771 1400 771 1400 785.5 1385.5 c 128,-1,13
 800 1371 800 1371 800 1350 c 2,14,-1
 800 50 l 2,15,16
 800 29 800 29 785.5 14.5 c 128,-1,17
 771 0 771 0 750 0 c 128,-1,18
 729 0 729 0 714.5 14.5 c 128,-1,19
 700 29 700 29 700 50 c 2,20,-1
 700 600 l 1,21,-1
 500 600 l 2,22,23
 334 600 334 600 217 717 c 128,-1,24
 100 834 100 834 100 1000 c 2,25,-1
 100 1350 l 2,26,27
 100 1371 100 1371 114.5 1385.5 c 128,-1,0
 129 1400 129 1400 150 1400 c 128,-1,1
EndSplineSet
EndChar

StartChar: uni0428
Encoding: 1064 1064 205
Width: 1100
Flags: MW
LayerCount: 2
Back
Fore
SplineSet
150 1400 m 128,-1,1
 171 1400 171 1400 185.5 1385.5 c 128,-1,2
 200 1371 200 1371 200 1350 c 2,3,-1
 200 100 l 1,4,-1
 500 100 l 1,5,-1
 500 1350 l 2,6,7
 500 1371 500 1371 514.5 1385.5 c 128,-1,8
 529 1400 529 1400 550 1400 c 128,-1,9
 571 1400 571 1400 585.5 1385.5 c 128,-1,10
 600 1371 600 1371 600 1350 c 2,11,-1
 600 100 l 1,12,-1
 900 100 l 1,13,-1
 900 1350 l 2,14,15
 900 1371 900 1371 914.5 1385.5 c 128,-1,16
 929 1400 929 1400 950 1400 c 128,-1,17
 971 1400 971 1400 985.5 1385.5 c 128,-1,18
 1000 1371 1000 1371 1000 1350 c 2,19,-1
 1000 50 l 2,20,21
 1000 29 1000 29 985.5 14.5 c 128,-1,22
 971 0 971 0 950 0 c 2,23,-1
 150 0 l 2,24,25
 129 0 129 0 114.5 14.5 c 128,-1,26
 100 29 100 29 100 50 c 2,27,-1
 100 1350 l 2,28,29
 100 1371 100 1371 114.5 1385.5 c 128,-1,0
 129 1400 129 1400 150 1400 c 128,-1,1
EndSplineSet
EndChar

StartChar: uni0429
Encoding: 1065 1065 206
Width: 1200
Flags: MW
LayerCount: 2
Back
Fore
SplineSet
150 1400 m 128,-1,1
 171 1400 171 1400 185.5 1385.5 c 128,-1,2
 200 1371 200 1371 200 1350 c 2,3,-1
 200 100 l 1,4,-1
 500 100 l 1,5,-1
 500 1350 l 2,6,7
 500 1371 500 1371 514.5 1385.5 c 128,-1,8
 529 1400 529 1400 550 1400 c 128,-1,9
 571 1400 571 1400 585.5 1385.5 c 128,-1,10
 600 1371 600 1371 600 1350 c 2,11,-1
 600 100 l 1,12,-1
 900 100 l 1,13,-1
 900 1350 l 2,14,15
 900 1371 900 1371 914.5 1385.5 c 128,-1,16
 929 1400 929 1400 950 1400 c 128,-1,17
 971 1400 971 1400 985.5 1385.5 c 128,-1,18
 1000 1371 1000 1371 1000 1350 c 2,19,-1
 1000 100 l 1,20,-1
 1050 100 l 2,21,22
 1071 100 1071 100 1085.5 85.5 c 128,-1,23
 1100 71 1100 71 1100 50 c 2,24,-1
 1100 -150 l 2,25,26
 1100 -171 1100 -171 1085.5 -185.5 c 128,-1,27
 1071 -200 1071 -200 1050 -200 c 128,-1,28
 1029 -200 1029 -200 1014.5 -185.5 c 128,-1,29
 1000 -171 1000 -171 1000 -150 c 2,30,-1
 1000 0 l 1,31,-1
 150 0 l 2,32,33
 129 0 129 0 114.5 14.5 c 128,-1,34
 100 29 100 29 100 50 c 2,35,-1
 100 1350 l 2,36,37
 100 1371 100 1371 114.5 1385.5 c 128,-1,0
 129 1400 129 1400 150 1400 c 128,-1,1
EndSplineSet
EndChar

StartChar: uni042A
Encoding: 1066 1066 207
Width: 1100
Flags: W
LayerCount: 2
Back
Fore
SplineSet
150 1400 m 2,0,-1
 350 1400 l 2,1,2
 371 1400 371 1400 385.5 1385.5 c 128,-1,3
 400 1371 400 1371 400 1350 c 2,4,-1
 400 800 l 1,5,-1
 600 800 l 2,6,7
 766 800 766 800 883 683 c 128,-1,8
 1000 566 1000 566 1000 400 c 128,-1,9
 1000 234 1000 234 883 117 c 128,-1,10
 766 0 766 0 600 0 c 2,11,-1
 350 0 l 2,12,13
 329 0 329 0 314.5 14.5 c 128,-1,14
 300 29 300 29 300 50 c 2,15,-1
 300 1300 l 1,16,-1
 150 1300 l 2,17,18
 129 1300 129 1300 114.5 1314.5 c 128,-1,19
 100 1329 100 1329 100 1350 c 128,-1,20
 100 1371 100 1371 114.5 1385.5 c 128,-1,21
 129 1400 129 1400 150 1400 c 2,0,-1
400 700 m 1,22,-1
 400 100 l 1,23,-1
 600 100 l 2,24,25
 724 100 724 100 812 188 c 128,-1,26
 900 276 900 276 900 400 c 128,-1,27
 900 524 900 524 812 612 c 128,-1,28
 724 700 724 700 600 700 c 2,29,-1
 400 700 l 1,22,-1
EndSplineSet
EndChar

StartChar: uni042B
Encoding: 1067 1067 208
Width: 1000
Flags: MW
LayerCount: 2
Back
Fore
SplineSet
150 1400 m 128,-1,1
 171 1400 171 1400 185.5 1385.5 c 128,-1,2
 200 1371 200 1371 200 1350 c 2,3,-1
 200 800 l 1,4,-1
 300 800 l 2,5,6
 466 800 466 800 583 683 c 128,-1,7
 700 566 700 566 700 400 c 128,-1,8
 700 234 700 234 583 117 c 128,-1,9
 466 0 466 0 300 0 c 2,10,-1
 150 0 l 2,11,12
 129 0 129 0 114.5 14.5 c 128,-1,13
 100 29 100 29 100 50 c 2,14,-1
 100 1350 l 2,15,16
 100 1371 100 1371 114.5 1385.5 c 128,-1,0
 129 1400 129 1400 150 1400 c 128,-1,1
200 700 m 1,17,-1
 200 100 l 1,18,-1
 300 100 l 2,19,20
 424 100 424 100 512 188 c 128,-1,21
 600 276 600 276 600 400 c 128,-1,22
 600 524 600 524 512 612 c 128,-1,23
 424 700 424 700 300 700 c 2,24,-1
 200 700 l 1,17,-1
850 1400 m 128,-1,26
 871 1400 871 1400 885.5 1385.5 c 128,-1,27
 900 1371 900 1371 900 1350 c 2,28,-1
 900 50 l 2,29,30
 900 29 900 29 885.5 14.5 c 128,-1,31
 871 0 871 0 850 0 c 128,-1,32
 829 0 829 0 814.5 14.5 c 128,-1,33
 800 29 800 29 800 50 c 2,34,-1
 800 1350 l 2,35,36
 800 1371 800 1371 814.5 1385.5 c 128,-1,25
 829 1400 829 1400 850 1400 c 128,-1,26
EndSplineSet
EndChar

StartChar: uni042C
Encoding: 1068 1068 209
Width: 900
Flags: MW
LayerCount: 2
Back
Fore
SplineSet
150 1400 m 128,-1,1
 171 1400 171 1400 185.5 1385.5 c 128,-1,2
 200 1371 200 1371 200 1350 c 2,3,-1
 200 800 l 1,4,-1
 400 800 l 2,5,6
 566 800 566 800 683 683 c 128,-1,7
 800 566 800 566 800 400 c 128,-1,8
 800 234 800 234 683 117 c 128,-1,9
 566 0 566 0 400 0 c 2,10,-1
 150 0 l 2,11,12
 129 0 129 0 114.5 14.5 c 128,-1,13
 100 29 100 29 100 50 c 2,14,-1
 100 1350 l 2,15,16
 100 1371 100 1371 114.5 1385.5 c 128,-1,0
 129 1400 129 1400 150 1400 c 128,-1,1
200 700 m 1,17,-1
 200 100 l 1,18,-1
 400 100 l 2,19,20
 524 100 524 100 612 188 c 128,-1,21
 700 276 700 276 700 400 c 128,-1,22
 700 524 700 524 612 612 c 128,-1,23
 524 700 524 700 400 700 c 2,24,-1
 200 700 l 1,17,-1
EndSplineSet
EndChar

StartChar: uni042D
Encoding: 1069 1069 210
Width: 900
Flags: W
AnchorPoint: "Top" 400 1650 basechar 0
LayerCount: 2
Back
Fore
SplineSet
150 1400 m 2,0,-1
 450 1400 l 2,1,2
 595 1400 595 1400 697.5 1297.5 c 128,-1,3
 800 1195 800 1195 800 1050 c 2,4,-1
 800 350 l 2,5,6
 800 205 800 205 700 102 c 0,7,8
 598 0 598 0 450 0 c 2,9,-1
 150 0 l 2,10,11
 129 0 129 0 114.5 14.5 c 128,-1,12
 100 29 100 29 100 50 c 128,-1,13
 100 71 100 71 114.5 85.5 c 128,-1,14
 129 100 129 100 150 100 c 2,15,-1
 450 100 l 2,16,17
 554 100 554 100 627 173 c 128,-1,18
 700 246 700 246 700 350 c 2,19,-1
 700 700 l 1,20,-1
 350 700 l 2,21,22
 329 700 329 700 314.5 714.5 c 128,-1,23
 300 729 300 729 300 750 c 128,-1,24
 300 771 300 771 314.5 785.5 c 128,-1,25
 329 800 329 800 350 800 c 2,26,-1
 700 800 l 1,27,-1
 700 1050 l 2,28,29
 700 1154 700 1154 627 1227 c 128,-1,30
 554 1300 554 1300 450 1300 c 2,31,-1
 150 1300 l 2,32,33
 129 1300 129 1300 114.5 1314.5 c 128,-1,34
 100 1329 100 1329 100 1350 c 128,-1,35
 100 1371 100 1371 114.5 1385.5 c 128,-1,36
 129 1400 129 1400 150 1400 c 2,0,-1
EndSplineSet
EndChar

StartChar: uni042E
Encoding: 1070 1070 211
Width: 1000
Flags: MW
LayerCount: 2
Back
Fore
SplineSet
150 1400 m 128,-1,1
 171 1400 171 1400 185.5 1385.5 c 128,-1,2
 200 1371 200 1371 200 1350 c 2,3,-1
 200 800 l 1,4,-1
 300 800 l 1,5,-1
 300 1100 l 2,6,7
 300 1224 300 1224 388 1312 c 128,-1,8
 476 1400 476 1400 600 1400 c 128,-1,9
 724 1400 724 1400 812 1312 c 128,-1,10
 900 1224 900 1224 900 1100 c 2,11,-1
 900 300 l 2,12,13
 900 176 900 176 812 88 c 128,-1,14
 724 0 724 0 600 0 c 128,-1,15
 476 0 476 0 388 88 c 128,-1,16
 300 176 300 176 300 300 c 2,17,-1
 300 700 l 1,18,-1
 200 700 l 1,19,-1
 200 50 l 2,20,21
 200 29 200 29 185.5 14.5 c 128,-1,22
 171 0 171 0 150 0 c 128,-1,23
 129 0 129 0 114.5 14.5 c 128,-1,24
 100 29 100 29 100 50 c 2,25,-1
 100 1350 l 2,26,27
 100 1371 100 1371 114.5 1385.5 c 128,-1,0
 129 1400 129 1400 150 1400 c 128,-1,1
600 1300 m 128,-1,29
 518 1300 518 1300 459 1241 c 128,-1,30
 400 1182 400 1182 400 1100 c 2,31,-1
 400 300 l 2,32,33
 400 218 400 218 459 159 c 128,-1,34
 518 100 518 100 600 100 c 128,-1,35
 682 100 682 100 741 159 c 128,-1,36
 800 218 800 218 800 300 c 2,37,-1
 800 1100 l 2,38,39
 800 1182 800 1182 741 1241 c 128,-1,28
 682 1300 682 1300 600 1300 c 128,-1,29
EndSplineSet
EndChar

StartChar: uni042F
Encoding: 1071 1071 212
Width: 900
Flags: MW
LayerCount: 2
Back
Fore
SplineSet
750 1400 m 2,0,1
 771 1400 771 1400 785.5 1385.5 c 128,-1,2
 800 1371 800 1371 800 1350 c 2,3,-1
 800 50 l 2,4,5
 800 29 800 29 785.5 14.5 c 128,-1,6
 771 0 771 0 750 0 c 128,-1,7
 729 0 729 0 714.5 14.5 c 128,-1,8
 700 29 700 29 700 50 c 2,9,-1
 700 600 l 1,10,-1
 529 600 l 1,11,-1
 193 25 l 2,12,13
 178 0 178 0 150 0 c 0,14,15
 129 0 129 0 114.5 14.5 c 128,-1,16
 100 29 100 29 100 50 c 0,17,18
 100 63 100 63 107 75 c 2,19,-1
 418 608 l 1,20,21
 280 637 280 637 190 746.5 c 128,-1,22
 100 856 100 856 100 1000 c 0,23,24
 100 1166 100 1166 217 1283 c 128,-1,25
 334 1400 334 1400 500 1400 c 2,26,-1
 750 1400 l 2,0,1
700 1300 m 1,27,-1
 500 1300 l 2,28,29
 376 1300 376 1300 288 1212 c 128,-1,30
 200 1124 200 1124 200 1000 c 128,-1,31
 200 876 200 876 288 788 c 128,-1,32
 376 700 376 700 500 700 c 2,33,-1
 700 700 l 1,34,-1
 700 1300 l 1,27,-1
EndSplineSet
EndChar

StartChar: uni0431
Encoding: 1073 1073 214
Width: 800
Flags: W
LayerCount: 2
Back
Fore
SplineSet
150 1400 m 2,0,-1
 650 1400 l 2,1,2
 671 1400 671 1400 685.5 1385.5 c 128,-1,3
 700 1371 700 1371 700 1350 c 128,-1,4
 700 1329 700 1329 685.5 1314.5 c 128,-1,5
 671 1300 671 1300 650 1300 c 2,6,-1
 266 1300 l 1,7,-1
 618 906 l 2,8,9
 700 814 700 814 700 700 c 2,10,-1
 700 300 l 2,11,12
 700 176 700 176 612 88 c 128,-1,13
 524 0 524 0 400 0 c 128,-1,14
 276 0 276 0 188 88 c 128,-1,15
 100 176 100 176 100 300 c 2,16,-1
 100 700 l 2,17,18
 100 822 100 822 189 909.5 c 128,-1,19
 278 997 278 997 400 1000 c 1,20,-1
 114 1316 l 2,21,22
 100 1331 100 1331 100 1350 c 0,23,24
 100 1371 100 1371 114.5 1385.5 c 128,-1,25
 129 1400 129 1400 150 1400 c 2,0,-1
400 900 m 128,-1,27
 318 900 318 900 259 841 c 128,-1,28
 200 782 200 782 200 700 c 2,29,-1
 200 300 l 2,30,31
 200 218 200 218 259 159 c 128,-1,32
 318 100 318 100 400 100 c 128,-1,33
 482 100 482 100 541 159 c 128,-1,34
 600 218 600 218 600 300 c 2,35,-1
 600 700 l 2,36,37
 600 782 600 782 541 841 c 128,-1,26
 482 900 482 900 400 900 c 128,-1,27
EndSplineSet
EndChar

StartChar: uni0432
Encoding: 1074 1074 215
Width: 800
Flags: W
LayerCount: 2
Back
Fore
SplineSet
300 1400 m 128,-1,1
 382 1400 382 1400 441 1341 c 128,-1,2
 500 1282 500 1282 500 1200 c 0,3,4
 500 1126 500 1126 452 1070 c 2,5,-1
 392 1000 l 1,6,-1
 400 1000 l 2,7,8
 524 1000 524 1000 612 912 c 128,-1,9
 700 824 700 824 700 700 c 2,10,-1
 700 300 l 2,11,12
 700 176 700 176 612 88 c 128,-1,13
 524 0 524 0 400 0 c 128,-1,14
 276 0 276 0 188 88 c 128,-1,15
 100 176 100 176 100 300 c 2,16,-1
 100 1200 l 2,17,18
 100 1282 100 1282 159 1341 c 128,-1,0
 218 1400 218 1400 300 1400 c 128,-1,1
300 1300 m 128,-1,20
 259 1300 259 1300 229.5 1270.5 c 128,-1,21
 200 1241 200 1241 200 1200 c 2,22,-1
 200 928 l 1,23,-1
 376 1135 l 2,24,25
 400 1163 400 1163 400 1200 c 0,26,27
 400 1241 400 1241 370.5 1270.5 c 128,-1,19
 341 1300 341 1300 300 1300 c 128,-1,20
400 900 m 128,-1,29
 318 900 318 900 259 841 c 128,-1,30
 200 782 200 782 200 700 c 2,31,-1
 200 300 l 2,32,33
 200 218 200 218 259 159 c 128,-1,34
 318 100 318 100 400 100 c 128,-1,35
 482 100 482 100 541 159 c 128,-1,36
 600 218 600 218 600 300 c 2,37,-1
 600 700 l 2,38,39
 600 782 600 782 541 841 c 128,-1,28
 482 900 482 900 400 900 c 128,-1,29
EndSplineSet
EndChar

StartChar: uni0433
Encoding: 1075 1075 216
Width: 800
Flags: W
AnchorPoint: "Top" 400 1350 basechar 0
LayerCount: 2
Back
Fore
SplineSet
410 1000 m 0,0,1
 549 1000 549 1000 625 940 c 0,2,3
 700 881 700 881 700 770 c 0,4,5
 700 655 700 655 615 596 c 2,6,-1
 258 348 l 2,7,8
 200 308 200 308 200 230 c 0,9,10
 200 184 200 184 241 146 c 0,11,12
 291 100 291 100 400 100 c 0,13,14
 560 100 560 100 615 155 c 0,15,16
 630 170 630 170 650 170 c 0,17,18
 671 170 671 170 685.5 155.5 c 128,-1,19
 700 141 700 141 700 120 c 0,20,21
 700 100 700 100 685 85 c 0,22,23
 601 0 601 0 400 0 c 0,24,25
 254 0 254 0 174 72 c 0,26,27
 100 139 100 139 100 230 c 0,28,29
 100 360 100 360 196 427 c 2,30,-1
 554 675 l 2,31,32
 600 707 600 707 600 770 c 0,33,34
 600 832 600 832 563 861 c 0,35,36
 513 900 513 900 410 900 c 0,37,38
 326 900 326 900 270 887 c 128,-1,39
 214 874 214 874 185 845 c 0,40,41
 170 830 170 830 150 830 c 0,42,43
 129 830 129 830 114.5 844.5 c 128,-1,44
 100 859 100 859 100 880 c 0,45,46
 100 900 100 900 115 915 c 0,47,48
 199 1000 199 1000 410 1000 c 0,0,1
EndSplineSet
EndChar

StartChar: uni0434
Encoding: 1076 1076 217
Width: 800
Flags: W
LayerCount: 2
Back
Fore
SplineSet
250 1400 m 2,0,-1
 500 1400 l 2,1,2
 582 1400 582 1400 641 1341 c 128,-1,3
 700 1282 700 1282 700 1200 c 2,4,-1
 700 300 l 2,5,6
 700 176 700 176 612 88 c 128,-1,7
 524 0 524 0 400 0 c 128,-1,8
 276 0 276 0 188 88 c 128,-1,9
 100 176 100 176 100 300 c 2,10,-1
 100 750 l 2,11,12
 100 854 100 854 173 927 c 128,-1,13
 246 1000 246 1000 350 1000 c 2,14,-1
 600 1000 l 1,15,-1
 600 1200 l 2,16,17
 600 1241 600 1241 570.5 1270.5 c 128,-1,18
 541 1300 541 1300 500 1300 c 2,19,-1
 250 1300 l 2,20,21
 229 1300 229 1300 214.5 1314.5 c 128,-1,22
 200 1329 200 1329 200 1350 c 128,-1,23
 200 1371 200 1371 214.5 1385.5 c 128,-1,24
 229 1400 229 1400 250 1400 c 2,0,-1
350 900 m 2,25,26
 288 900 288 900 244 856 c 128,-1,27
 200 812 200 812 200 750 c 2,28,-1
 200 300 l 2,29,30
 200 218 200 218 259 159 c 128,-1,31
 318 100 318 100 400 100 c 128,-1,32
 482 100 482 100 541 159 c 128,-1,33
 600 218 600 218 600 300 c 2,34,-1
 600 900 l 1,35,-1
 350 900 l 2,25,26
EndSplineSet
EndChar

StartChar: uni0436
Encoding: 1078 1078 219
Width: 1000
Flags: MW
AnchorPoint: "Top" 500 1350 basechar 0
LayerCount: 2
Back
Fore
SplineSet
150 1000 m 0,0,1
 177 1000 177 1000 192 977 c 2,2,-1
 450 572 l 1,3,-1
 450 950 l 2,4,5
 450 971 450 971 464.5 985.5 c 128,-1,6
 479 1000 479 1000 500 1000 c 128,-1,7
 521 1000 521 1000 535.5 985.5 c 128,-1,8
 550 971 550 971 550 950 c 2,9,-1
 550 572 l 1,10,-1
 808 977 l 2,11,12
 823 1000 823 1000 850 1000 c 0,13,14
 871 1000 871 1000 885.5 985.5 c 128,-1,15
 900 971 900 971 900 950 c 0,16,17
 900 936 900 936 892 923 c 2,18,-1
 623 500 l 1,19,-1
 892 77 l 2,20,21
 900 64 900 64 900 50 c 0,22,23
 900 29 900 29 885.5 14.5 c 128,-1,24
 871 0 871 0 850 0 c 0,25,26
 823 0 823 0 808 23 c 2,27,-1
 550 428 l 1,28,-1
 550 50 l 2,29,30
 550 29 550 29 535.5 14.5 c 128,-1,31
 521 0 521 0 500 0 c 128,-1,32
 479 0 479 0 464.5 14.5 c 128,-1,33
 450 29 450 29 450 50 c 2,34,-1
 450 428 l 1,35,-1
 192 23 l 2,36,37
 177 0 177 0 150 0 c 0,38,39
 129 0 129 0 114.5 14.5 c 128,-1,40
 100 29 100 29 100 50 c 0,41,42
 100 64 100 64 108 77 c 2,43,-1
 377 500 l 1,44,-1
 108 923 l 2,45,46
 100 936 100 936 100 950 c 0,47,48
 100 971 100 971 114.5 985.5 c 128,-1,49
 129 1000 129 1000 150 1000 c 0,0,1
EndSplineSet
EndChar

StartChar: uni0437
Encoding: 1079 1079 220
Width: 750
Flags: W
AnchorPoint: "Top" 375 1350 basechar 0
LayerCount: 2
Back
Fore
SplineSet
365 1000 m 128,-1,1
 483 1000 483 1000 566.5 916.5 c 128,-1,2
 650 833 650 833 650 715 c 0,3,4
 650 643 650 643 616.5 591 c 128,-1,5
 583 539 583 539 526 500 c 1,6,7
 583 461 583 461 616.5 399 c 128,-1,8
 650 337 650 337 650 265 c 0,9,10
 650 167 650 167 566.5 83.5 c 128,-1,11
 483 0 483 0 365 0 c 0,12,13
 216 0 216 0 118 82 c 0,14,15
 100 97 100 97 100 120 c 0,16,17
 100 141 100 141 114.5 155.5 c 128,-1,18
 129 170 129 170 150 170 c 0,19,20
 167 170 167 170 182 158 c 0,21,22
 224 124 224 124 260.5 112 c 128,-1,23
 297 100 297 100 365 100 c 0,24,25
 442 100 442 100 496 154 c 128,-1,26
 550 208 550 208 550 275 c 128,-1,27
 550 342 550 342 496 396 c 128,-1,28
 442 450 442 450 365 450 c 2,29,-1
 350 450 l 2,30,31
 329 450 329 450 314.5 464.5 c 128,-1,32
 300 479 300 479 300 500 c 128,-1,33
 300 521 300 521 314.5 535.5 c 128,-1,34
 329 550 329 550 350 550 c 2,35,-1
 365 550 l 2,36,37
 442 550 442 550 496 594 c 128,-1,38
 550 638 550 638 550 715 c 128,-1,39
 550 792 550 792 496 846 c 128,-1,40
 442 900 442 900 365 900 c 0,41,42
 291 900 291 900 236 845 c 0,43,44
 221 830 221 830 200 830 c 128,-1,45
 179 830 179 830 164.5 844.5 c 128,-1,46
 150 859 150 859 150 880 c 128,-1,47
 150 901 150 901 164 915 c 0,48,0
 247 1000 247 1000 365 1000 c 128,-1,1
EndSplineSet
EndChar

StartChar: uni043A
Encoding: 1082 1082 223
Width: 800
Flags: MW
AnchorPoint: "Top" 400 1350 basechar 0
LayerCount: 2
Back
Fore
SplineSet
150 1000 m 128,-1,1
 171 1000 171 1000 185.5 985.5 c 128,-1,2
 200 971 200 971 200 950 c 2,3,-1
 200 488 l 1,4,-1
 612 982 l 2,5,6
 627 1000 627 1000 650 1000 c 0,7,8
 671 1000 671 1000 685.5 985.5 c 128,-1,9
 700 971 700 971 700 950 c 0,10,11
 700 933 700 933 688 918 c 2,12,-1
 370 536 l 1,13,-1
 691 79 l 2,14,15
 700 67 700 67 700 50 c 0,16,17
 700 29 700 29 685.5 14.5 c 128,-1,18
 671 0 671 0 650 0 c 0,19,20
 624 0 624 0 609 21 c 2,21,-1
 304 457 l 1,22,-1
 200 332 l 1,23,-1
 200 50 l 2,24,25
 200 29 200 29 185.5 14.5 c 128,-1,26
 171 0 171 0 150 0 c 128,-1,27
 129 0 129 0 114.5 14.5 c 128,-1,28
 100 29 100 29 100 50 c 2,29,-1
 100 950 l 2,30,31
 100 971 100 971 114.5 985.5 c 128,-1,0
 129 1000 129 1000 150 1000 c 128,-1,1
EndSplineSet
EndChar

StartChar: uni043B
Encoding: 1083 1083 224
Width: 800
Flags: MW
LayerCount: 2
Back
Fore
SplineSet
400 1000 m 2,0,-1
 650 1000 l 2,1,2
 671 1000 671 1000 685.5 985.5 c 128,-1,3
 700 971 700 971 700 950 c 2,4,-1
 700 50 l 2,5,6
 700 29 700 29 685.5 14.5 c 128,-1,7
 671 0 671 0 650 0 c 128,-1,8
 629 0 629 0 614.5 14.5 c 128,-1,9
 600 29 600 29 600 50 c 2,10,-1
 600 900 l 1,11,-1
 438 900 l 1,12,-1
 198 37 l 2,13,14
 193 21 193 21 180 10.5 c 128,-1,15
 167 0 167 0 150 0 c 0,16,17
 129 0 129 0 114.5 14.5 c 128,-1,18
 100 29 100 29 100 50 c 0,19,20
 100 55 100 55 102 63 c 2,21,-1
 352 963 l 2,22,23
 357 979 357 979 370 989.5 c 128,-1,24
 383 1000 383 1000 400 1000 c 2,0,-1
EndSplineSet
EndChar

StartChar: uni043C
Encoding: 1084 1084 225
Width: 900
Flags: MW
LayerCount: 2
Back
Fore
SplineSet
150 1000 m 0,0,1
 177 1000 177 1000 192 978 c 2,2,-1
 450 590 l 1,3,-1
 708 978 l 2,4,5
 723 1000 723 1000 750 1000 c 0,6,7
 771 1000 771 1000 785.5 985.5 c 128,-1,8
 800 971 800 971 800 950 c 2,9,-1
 800 50 l 2,10,11
 800 29 800 29 785.5 14.5 c 128,-1,12
 771 0 771 0 750 0 c 128,-1,13
 729 0 729 0 714.5 14.5 c 128,-1,14
 700 29 700 29 700 50 c 2,15,-1
 700 785 l 1,16,-1
 492 472 l 2,17,18
 477 450 477 450 450 450 c 128,-1,19
 423 450 423 450 408 472 c 2,20,-1
 200 785 l 1,21,-1
 200 50 l 2,22,23
 200 29 200 29 185.5 14.5 c 128,-1,24
 171 0 171 0 150 0 c 128,-1,25
 129 0 129 0 114.5 14.5 c 128,-1,26
 100 29 100 29 100 50 c 2,27,-1
 100 950 l 2,28,29
 100 971 100 971 114.5 985.5 c 128,-1,30
 129 1000 129 1000 150 1000 c 0,0,1
EndSplineSet
EndChar

StartChar: uni043D
Encoding: 1085 1085 226
Width: 800
Flags: MW
LayerCount: 2
Back
Fore
SplineSet
150 1000 m 128,-1,1
 171 1000 171 1000 185.5 985.5 c 128,-1,2
 200 971 200 971 200 950 c 2,3,-1
 200 550 l 1,4,-1
 600 550 l 1,5,-1
 600 950 l 2,6,7
 600 971 600 971 614.5 985.5 c 128,-1,8
 629 1000 629 1000 650 1000 c 128,-1,9
 671 1000 671 1000 685.5 985.5 c 128,-1,10
 700 971 700 971 700 950 c 2,11,-1
 700 50 l 2,12,13
 700 29 700 29 685.5 14.5 c 128,-1,14
 671 0 671 0 650 0 c 128,-1,15
 629 0 629 0 614.5 14.5 c 128,-1,16
 600 29 600 29 600 50 c 2,17,-1
 600 450 l 1,18,-1
 200 450 l 1,19,-1
 200 50 l 2,20,21
 200 29 200 29 185.5 14.5 c 128,-1,22
 171 0 171 0 150 0 c 128,-1,23
 129 0 129 0 114.5 14.5 c 128,-1,24
 100 29 100 29 100 50 c 2,25,-1
 100 950 l 2,26,27
 100 971 100 971 114.5 985.5 c 128,-1,0
 129 1000 129 1000 150 1000 c 128,-1,1
EndSplineSet
EndChar

StartChar: uni0443
Encoding: 1091 1091 232
Width: 800
Flags: MW
AnchorPoint: "Top" 400 1350 basechar 0
LayerCount: 2
Back
Fore
SplineSet
150 1000 m 128,-1,1
 171 1000 171 1000 185.5 985.5 c 128,-1,2
 200 971 200 971 200 950 c 2,3,-1
 200 250 l 2,4,5
 200 188 200 188 244 144 c 128,-1,6
 288 100 288 100 350 100 c 2,7,-1
 600 100 l 1,8,-1
 600 950 l 2,9,10
 600 971 600 971 614.5 985.5 c 128,-1,11
 629 1000 629 1000 650 1000 c 128,-1,12
 671 1000 671 1000 685.5 985.5 c 128,-1,13
 700 971 700 971 700 950 c 2,14,-1
 700 -200 l 2,15,16
 700 -282 700 -282 641 -341 c 128,-1,17
 582 -400 582 -400 500 -400 c 2,18,-1
 200 -400 l 2,19,20
 179 -400 179 -400 164.5 -385.5 c 128,-1,21
 150 -371 150 -371 150 -350 c 128,-1,22
 150 -329 150 -329 164.5 -314.5 c 128,-1,23
 179 -300 179 -300 200 -300 c 2,24,-1
 500 -300 l 2,25,26
 541 -300 541 -300 570.5 -270.5 c 128,-1,27
 600 -241 600 -241 600 -200 c 2,28,-1
 600 0 l 1,29,-1
 350 0 l 2,30,31
 246 0 246 0 173 73 c 128,-1,32
 100 146 100 146 100 250 c 2,33,-1
 100 950 l 2,34,35
 100 971 100 971 114.5 985.5 c 128,-1,0
 129 1000 129 1000 150 1000 c 128,-1,1
EndSplineSet
EndChar

StartChar: uni0444
Encoding: 1092 1092 233
Width: 1100
Flags: W
LayerCount: 2
Back
Fore
SplineSet
550 1250 m 128,-1,1
 571 1250 571 1250 585.5 1235.5 c 128,-1,2
 600 1221 600 1221 600 1200 c 2,3,-1
 600 1000 l 1,4,5
 766 1000 766 1000 883 883 c 128,-1,6
 1000 766 1000 766 1000 600 c 2,7,-1
 1000 400 l 2,8,9
 1000 234 1000 234 883 117 c 128,-1,10
 766 0 766 0 600 0 c 1,11,-1
 600 -350 l 2,12,13
 600 -371 600 -371 585.5 -385.5 c 128,-1,14
 571 -400 571 -400 550 -400 c 128,-1,15
 529 -400 529 -400 514.5 -385.5 c 128,-1,16
 500 -371 500 -371 500 -350 c 2,17,-1
 500 0 l 1,18,19
 334 0 334 0 217 117 c 128,-1,20
 100 234 100 234 100 400 c 2,21,-1
 100 600 l 2,22,23
 100 766 100 766 217 883 c 128,-1,24
 334 1000 334 1000 500 1000 c 1,25,-1
 500 1200 l 2,26,27
 500 1221 500 1221 514.5 1235.5 c 128,-1,0
 529 1250 529 1250 550 1250 c 128,-1,1
500 900 m 1,28,29
 376 900 376 900 288 812 c 128,-1,30
 200 724 200 724 200 600 c 2,31,-1
 200 400 l 2,32,33
 200 276 200 276 288 188 c 128,-1,34
 376 100 376 100 500 100 c 1,35,-1
 500 900 l 1,28,29
600 900 m 1,36,-1
 600 100 l 1,37,38
 724 100 724 100 812 188 c 128,-1,39
 900 276 900 276 900 400 c 2,40,-1
 900 600 l 2,41,42
 900 724 900 724 812 812 c 128,-1,43
 724 900 724 900 600 900 c 1,36,-1
EndSplineSet
EndChar

StartChar: uni0446
Encoding: 1094 1094 235
Width: 900
Flags: MW
LayerCount: 2
Back
Fore
SplineSet
150 1000 m 128,-1,1
 171 1000 171 1000 185.5 985.5 c 128,-1,2
 200 971 200 971 200 950 c 2,3,-1
 200 250 l 2,4,5
 200 188 200 188 244 144 c 128,-1,6
 288 100 288 100 350 100 c 2,7,-1
 600 100 l 1,8,-1
 600 950 l 2,9,10
 600 971 600 971 614.5 985.5 c 128,-1,11
 629 1000 629 1000 650 1000 c 128,-1,12
 671 1000 671 1000 685.5 985.5 c 128,-1,13
 700 971 700 971 700 950 c 2,14,-1
 700 100 l 1,15,-1
 750 100 l 2,16,17
 771 100 771 100 785.5 85.5 c 128,-1,18
 800 71 800 71 800 50 c 2,19,-1
 800 -150 l 2,20,21
 800 -171 800 -171 785.5 -185.5 c 128,-1,22
 771 -200 771 -200 750 -200 c 128,-1,23
 729 -200 729 -200 714.5 -185.5 c 128,-1,24
 700 -171 700 -171 700 -150 c 2,25,-1
 700 0 l 1,26,-1
 350 0 l 2,27,28
 246 0 246 0 173 73 c 128,-1,29
 100 146 100 146 100 250 c 2,30,-1
 100 950 l 2,31,32
 100 971 100 971 114.5 985.5 c 128,-1,0
 129 1000 129 1000 150 1000 c 128,-1,1
EndSplineSet
EndChar

StartChar: uni0447
Encoding: 1095 1095 236
Width: 800
Flags: MW
AnchorPoint: "Top" 400 1350 basechar 0
LayerCount: 2
Back
Fore
SplineSet
150 1000 m 128,-1,1
 171 1000 171 1000 185.5 985.5 c 128,-1,2
 200 971 200 971 200 950 c 2,3,-1
 200 700 l 2,4,5
 200 638 200 638 244 594 c 128,-1,6
 288 550 288 550 350 550 c 2,7,-1
 600 550 l 1,8,-1
 600 950 l 2,9,10
 600 971 600 971 614.5 985.5 c 128,-1,11
 629 1000 629 1000 650 1000 c 128,-1,12
 671 1000 671 1000 685.5 985.5 c 128,-1,13
 700 971 700 971 700 950 c 2,14,-1
 700 50 l 2,15,16
 700 29 700 29 685.5 14.5 c 128,-1,17
 671 0 671 0 650 0 c 128,-1,18
 629 0 629 0 614.5 14.5 c 128,-1,19
 600 29 600 29 600 50 c 2,20,-1
 600 450 l 1,21,-1
 350 450 l 2,22,23
 246 450 246 450 173 523 c 128,-1,24
 100 596 100 596 100 700 c 2,25,-1
 100 950 l 2,26,27
 100 971 100 971 114.5 985.5 c 128,-1,0
 129 1000 129 1000 150 1000 c 128,-1,1
EndSplineSet
EndChar

StartChar: uni0449
Encoding: 1097 1097 238
Width: 1200
Flags: MW
LayerCount: 2
Back
Fore
SplineSet
150 1000 m 128,-1,1
 171 1000 171 1000 185.5 985.5 c 128,-1,2
 200 971 200 971 200 950 c 2,3,-1
 200 250 l 2,4,5
 200 188 200 188 244 144 c 128,-1,6
 288 100 288 100 350 100 c 2,7,-1
 500 100 l 1,8,-1
 500 950 l 2,9,10
 500 971 500 971 514.5 985.5 c 128,-1,11
 529 1000 529 1000 550 1000 c 128,-1,12
 571 1000 571 1000 585.5 985.5 c 128,-1,13
 600 971 600 971 600 950 c 2,14,-1
 600 100 l 1,15,-1
 900 100 l 1,16,-1
 900 950 l 2,17,18
 900 971 900 971 914.5 985.5 c 128,-1,19
 929 1000 929 1000 950 1000 c 128,-1,20
 971 1000 971 1000 985.5 985.5 c 128,-1,21
 1000 971 1000 971 1000 950 c 2,22,-1
 1000 100 l 1,23,-1
 1050 100 l 2,24,25
 1071 100 1071 100 1085.5 85.5 c 128,-1,26
 1100 71 1100 71 1100 50 c 2,27,-1
 1100 -150 l 2,28,29
 1100 -171 1100 -171 1085.5 -185.5 c 128,-1,30
 1071 -200 1071 -200 1050 -200 c 128,-1,31
 1029 -200 1029 -200 1014.5 -185.5 c 128,-1,32
 1000 -171 1000 -171 1000 -150 c 2,33,-1
 1000 0 l 1,34,-1
 350 0 l 2,35,36
 246 0 246 0 173 73 c 128,-1,37
 100 146 100 146 100 250 c 2,38,-1
 100 950 l 2,39,40
 100 971 100 971 114.5 985.5 c 128,-1,0
 129 1000 129 1000 150 1000 c 128,-1,1
EndSplineSet
EndChar

StartChar: uni044A
Encoding: 1098 1098 239
Width: 900
Flags: W
LayerCount: 2
Back
Fore
SplineSet
150 1000 m 2,0,-1
 250 1000 l 2,1,2
 271 1000 271 1000 285.5 985.5 c 128,-1,3
 300 971 300 971 300 950 c 2,4,-1
 300 550 l 1,5,-1
 525 550 l 2,6,7
 639 550 639 550 719.5 469.5 c 128,-1,8
 800 389 800 389 800 275 c 128,-1,9
 800 161 800 161 719.5 80.5 c 128,-1,10
 639 0 639 0 525 0 c 2,11,-1
 250 0 l 2,12,13
 229 0 229 0 214.5 14.5 c 128,-1,14
 200 29 200 29 200 50 c 2,15,-1
 200 900 l 1,16,-1
 150 900 l 2,17,18
 129 900 129 900 114.5 914.5 c 128,-1,19
 100 929 100 929 100 950 c 128,-1,20
 100 971 100 971 114.5 985.5 c 128,-1,21
 129 1000 129 1000 150 1000 c 2,0,-1
300 450 m 1,22,-1
 300 100 l 1,23,-1
 525 100 l 2,24,25
 598 100 598 100 649 151 c 128,-1,26
 700 202 700 202 700 275 c 128,-1,27
 700 348 700 348 649 399 c 128,-1,28
 598 450 598 450 525 450 c 2,29,-1
 300 450 l 1,22,-1
EndSplineSet
EndChar

StartChar: uni044B
Encoding: 1099 1099 240
Width: 900
Flags: MW
AnchorPoint: "Top" 450 1350 basechar 0
LayerCount: 2
Back
Fore
SplineSet
150 1000 m 128,-1,1
 171 1000 171 1000 185.5 985.5 c 128,-1,2
 200 971 200 971 200 950 c 2,3,-1
 200 550 l 1,4,-1
 325 550 l 2,5,6
 439 550 439 550 519.5 469.5 c 128,-1,7
 600 389 600 389 600 275 c 128,-1,8
 600 161 600 161 519.5 80.5 c 128,-1,9
 439 0 439 0 325 0 c 2,10,-1
 150 0 l 2,11,12
 129 0 129 0 114.5 14.5 c 128,-1,13
 100 29 100 29 100 50 c 2,14,-1
 100 950 l 2,15,16
 100 971 100 971 114.5 985.5 c 128,-1,0
 129 1000 129 1000 150 1000 c 128,-1,1
200 450 m 1,17,-1
 200 100 l 1,18,-1
 325 100 l 2,19,20
 398 100 398 100 449 151 c 128,-1,21
 500 202 500 202 500 275 c 128,-1,22
 500 348 500 348 449 399 c 128,-1,23
 398 450 398 450 325 450 c 2,24,-1
 200 450 l 1,17,-1
750 1000 m 128,-1,26
 771 1000 771 1000 785.5 985.5 c 128,-1,27
 800 971 800 971 800 950 c 2,28,-1
 800 50 l 2,29,30
 800 29 800 29 785.5 14.5 c 128,-1,31
 771 0 771 0 750 0 c 128,-1,32
 729 0 729 0 714.5 14.5 c 128,-1,33
 700 29 700 29 700 50 c 2,34,-1
 700 950 l 2,35,36
 700 971 700 971 714.5 985.5 c 128,-1,25
 729 1000 729 1000 750 1000 c 128,-1,26
EndSplineSet
EndChar

StartChar: uni044C
Encoding: 1100 1100 241
Width: 800
Flags: MW
LayerCount: 2
Back
Fore
SplineSet
150 1000 m 128,-1,1
 171 1000 171 1000 185.5 985.5 c 128,-1,2
 200 971 200 971 200 950 c 2,3,-1
 200 550 l 1,4,-1
 425 550 l 2,5,6
 539 550 539 550 619.5 469.5 c 128,-1,7
 700 389 700 389 700 275 c 128,-1,8
 700 161 700 161 619.5 80.5 c 128,-1,9
 539 0 539 0 425 0 c 2,10,-1
 150 0 l 2,11,12
 129 0 129 0 114.5 14.5 c 128,-1,13
 100 29 100 29 100 50 c 2,14,-1
 100 950 l 2,15,16
 100 971 100 971 114.5 985.5 c 128,-1,0
 129 1000 129 1000 150 1000 c 128,-1,1
200 450 m 1,17,-1
 200 100 l 1,18,-1
 425 100 l 2,19,20
 498 100 498 100 549 151 c 128,-1,21
 600 202 600 202 600 275 c 128,-1,22
 600 348 600 348 549 399 c 128,-1,23
 498 450 498 450 425 450 c 2,24,-1
 200 450 l 1,17,-1
EndSplineSet
EndChar

StartChar: uni044D
Encoding: 1101 1101 242
Width: 800
Flags: W
AnchorPoint: "Top" 375 1350 basechar 0
LayerCount: 2
Back
Fore
SplineSet
150 1000 m 2,0,-1
 450 1000 l 2,1,2
 554 1000 554 1000 627 927 c 128,-1,3
 700 854 700 854 700 750 c 2,4,-1
 700 250 l 2,5,6
 700 146 700 146 627 73 c 128,-1,7
 554 0 554 0 450 0 c 2,8,-1
 150 0 l 2,9,10
 129 0 129 0 114.5 14.5 c 128,-1,11
 100 29 100 29 100 50 c 128,-1,12
 100 71 100 71 114.5 85.5 c 128,-1,13
 129 100 129 100 150 100 c 2,14,-1
 450 100 l 2,15,16
 512 100 512 100 556 144 c 128,-1,17
 600 188 600 188 600 250 c 2,18,-1
 600 450 l 1,19,-1
 400 450 l 2,20,21
 379 450 379 450 364.5 464.5 c 128,-1,22
 350 479 350 479 350 500 c 128,-1,23
 350 521 350 521 364.5 535.5 c 128,-1,24
 379 550 379 550 400 550 c 2,25,-1
 600 550 l 1,26,-1
 600 750 l 2,27,28
 600 812 600 812 556 856 c 128,-1,29
 512 900 512 900 450 900 c 2,30,-1
 150 900 l 2,31,32
 129 900 129 900 114.5 914.5 c 128,-1,33
 100 929 100 929 100 950 c 128,-1,34
 100 971 100 971 114.5 985.5 c 128,-1,35
 129 1000 129 1000 150 1000 c 2,0,-1
EndSplineSet
EndChar

StartChar: uni044E
Encoding: 1102 1102 243
Width: 900
Flags: MW
LayerCount: 2
Back
Fore
SplineSet
550 1000 m 128,-1,1
 654 1000 654 1000 727 927 c 128,-1,2
 800 854 800 854 800 750 c 2,3,-1
 800 250 l 2,4,5
 800 146 800 146 727 73 c 128,-1,6
 654 0 654 0 550 0 c 128,-1,7
 446 0 446 0 373 73 c 128,-1,8
 300 146 300 146 300 250 c 2,9,-1
 300 450 l 1,10,-1
 200 450 l 1,11,-1
 200 50 l 2,12,13
 200 29 200 29 185.5 14.5 c 128,-1,14
 171 0 171 0 150 0 c 128,-1,15
 129 0 129 0 114.5 14.5 c 128,-1,16
 100 29 100 29 100 50 c 2,17,-1
 100 950 l 2,18,19
 100 971 100 971 114.5 985.5 c 128,-1,20
 129 1000 129 1000 150 1000 c 128,-1,21
 171 1000 171 1000 185.5 985.5 c 128,-1,22
 200 971 200 971 200 950 c 2,23,-1
 200 550 l 1,24,-1
 300 550 l 1,25,-1
 300 750 l 2,26,27
 300 854 300 854 373 927 c 128,-1,0
 446 1000 446 1000 550 1000 c 128,-1,1
550 900 m 128,-1,29
 488 900 488 900 444 856 c 128,-1,30
 400 812 400 812 400 750 c 2,31,-1
 400 250 l 2,32,33
 400 188 400 188 444 144 c 128,-1,34
 488 100 488 100 550 100 c 128,-1,35
 612 100 612 100 656 144 c 128,-1,36
 700 188 700 188 700 250 c 2,37,-1
 700 750 l 2,38,39
 700 812 700 812 656 856 c 128,-1,28
 612 900 612 900 550 900 c 128,-1,29
EndSplineSet
EndChar

StartChar: uni044F
Encoding: 1103 1103 244
Width: 800
Flags: MW
LayerCount: 2
Back
Fore
SplineSet
375 1000 m 2,0,-1
 650 1000 l 2,1,2
 671 1000 671 1000 685.5 985.5 c 128,-1,3
 700 971 700 971 700 950 c 2,4,-1
 700 50 l 2,5,6
 700 29 700 29 685.5 14.5 c 128,-1,7
 671 0 671 0 650 0 c 128,-1,8
 629 0 629 0 614.5 14.5 c 128,-1,9
 600 29 600 29 600 50 c 2,10,-1
 600 450 l 1,11,-1
 429 450 l 1,12,-1
 194 26 l 2,13,14
 178 0 178 0 150 0 c 0,15,16
 129 0 129 0 114.5 14.5 c 128,-1,17
 100 29 100 29 100 50 c 0,18,19
 100 64 100 64 106 74 c 2,20,-1
 318 456 l 1,21,22
 224 476 224 476 162 551.5 c 128,-1,23
 100 627 100 627 100 725 c 0,24,25
 100 839 100 839 180.5 919.5 c 128,-1,26
 261 1000 261 1000 375 1000 c 2,0,-1
375 900 m 2,27,28
 302 900 302 900 251 849 c 128,-1,29
 200 798 200 798 200 725 c 128,-1,30
 200 652 200 652 251 601 c 128,-1,31
 302 550 302 550 375 550 c 2,32,-1
 600 550 l 1,33,-1
 600 900 l 1,34,-1
 375 900 l 2,27,28
EndSplineSet
EndChar

StartChar: emdash
Encoding: 8212 8212 249
Width: 1100
Flags: W
LayerCount: 2
Back
Fore
SplineSet
150 550 m 2,0,-1
 950 550 l 2,1,2
 971 550 971 550 985.5 535.5 c 128,-1,3
 1000 521 1000 521 1000 500 c 128,-1,4
 1000 479 1000 479 985.5 464.5 c 128,-1,5
 971 450 971 450 950 450 c 2,6,-1
 150 450 l 2,7,8
 129 450 129 450 114.5 464.5 c 128,-1,9
 100 479 100 479 100 500 c 128,-1,10
 100 521 100 521 114.5 535.5 c 128,-1,11
 129 550 129 550 150 550 c 2,0,-1
EndSplineSet
EndChar

StartChar: quoteleft
Encoding: 8216 8216 251
Width: 250
Flags: W
LayerCount: 2
Back
Fore
SplineSet
100 1400 m 0,0,1
 117 1400 117 1400 131 1389 c 128,-1,2
 145 1378 145 1378 149 1362 c 2,3,-1
 199 1162 l 2,4,5
 200 1158 200 1158 200 1150 c 0,6,7
 200 1129 200 1129 185.5 1114.5 c 128,-1,8
 171 1100 171 1100 150 1100 c 0,9,10
 133 1100 133 1100 119 1111 c 128,-1,11
 105 1122 105 1122 101 1138 c 2,12,-1
 51 1338 l 2,13,14
 50 1342 50 1342 50 1350 c 0,15,16
 50 1371 50 1371 64.5 1385.5 c 128,-1,17
 79 1400 79 1400 100 1400 c 0,0,1
EndSplineSet
EndChar

StartChar: bullet
Encoding: 8226 8226 259
Width: 400
Flags: W
LayerCount: 2
Back
Fore
SplineSet
300 500 m 128,-1,1
 300 459 300 459 270.5 429.5 c 128,-1,2
 241 400 241 400 200 400 c 128,-1,3
 159 400 159 400 129.5 429.5 c 128,-1,4
 100 459 100 459 100 500 c 128,-1,5
 100 541 100 541 129.5 570.5 c 128,-1,6
 159 600 159 600 200 600 c 128,-1,7
 241 600 241 600 270.5 570.5 c 128,-1,0
 300 541 300 541 300 500 c 128,-1,1
EndSplineSet
EndChar

StartChar: minute
Encoding: 8242 8242 265
Width: 250
Flags: W
LayerCount: 2
Back
Fore
SplineSet
150 1400 m 0,0,1
 171 1400 171 1400 185.5 1385.5 c 128,-1,2
 200 1371 200 1371 200 1350 c 0,3,4
 200 1348 200 1348 199.5 1346 c 128,-1,5
 199 1344 199 1344 199 1342 c 2,6,-1
 149 1042 l 2,7,8
 146 1024 146 1024 132.5 1012 c 128,-1,9
 119 1000 119 1000 100 1000 c 0,10,11
 79 1000 79 1000 64.5 1014.5 c 128,-1,12
 50 1029 50 1029 50 1050 c 0,13,14
 50 1052 50 1052 50.5 1054 c 128,-1,15
 51 1056 51 1056 51 1058 c 2,16,-1
 101 1358 l 2,17,18
 104 1376 104 1376 117.5 1388 c 128,-1,19
 131 1400 131 1400 150 1400 c 0,0,1
EndSplineSet
EndChar

StartChar: guilsinglleft
Encoding: 8249 8249 268
Width: 550
Flags: W
LayerCount: 2
Back
Fore
SplineSet
400 850 m 25,0,-1
 150 500 l 25,1,-1
 400 150 l 1053,2,-1
EndSplineSet
EndChar

StartChar: Euro
Encoding: 8364 8364 276
Width: 1400
Flags: W
LayerCount: 2
Back
Fore
SplineSet
900 1400 m 0,0,1
 1106 1400 1106 1400 1277 1290 c 0,2,3
 1300 1275 1300 1275 1300 1248 c 0,4,5
 1300 1227 1300 1227 1285.5 1212.5 c 128,-1,6
 1271 1198 1271 1198 1250 1198 c 0,7,8
 1236 1198 1236 1198 1223 1206 c 0,9,10
 1076 1300 1076 1300 900 1300 c 0,11,12
 692 1300 692 1300 531 1173 c 128,-1,13
 370 1046 370 1046 319 850 c 1,14,-1
 1050 850 l 2,15,16
 1071 850 1071 850 1085.5 835.5 c 128,-1,17
 1100 821 1100 821 1100 800 c 128,-1,18
 1100 779 1100 779 1085.5 764.5 c 128,-1,19
 1071 750 1071 750 1050 750 c 2,20,-1
 302 750 l 1,21,22
 300 718 300 718 300 700 c 128,-1,23
 300 682 300 682 302 650 c 1,24,-1
 950 650 l 2,25,26
 971 650 971 650 985.5 635.5 c 128,-1,27
 1000 621 1000 621 1000 600 c 128,-1,28
 1000 579 1000 579 985.5 564.5 c 128,-1,29
 971 550 971 550 950 550 c 2,30,-1
 319 550 l 1,31,32
 370 354 370 354 531 227 c 128,-1,33
 692 100 692 100 900 100 c 0,34,35
 1047 100 1047 100 1177 168 c 0,36,37
 1187 173 1187 173 1200 173 c 0,38,39
 1221 173 1221 173 1235.5 158.5 c 128,-1,40
 1250 144 1250 144 1250 123 c 0,41,42
 1250 92 1250 92 1223 79 c 0,43,44
 1071 0 1071 0 900 0 c 0,45,46
 651 0 651 0 459.5 156 c 128,-1,47
 268 312 268 312 216 550 c 1,48,-1
 150 550 l 2,49,50
 129 550 129 550 114.5 564.5 c 128,-1,51
 100 579 100 579 100 600 c 128,-1,52
 100 621 100 621 114.5 635.5 c 128,-1,53
 129 650 129 650 150 650 c 2,54,-1
 202 650 l 1,55,56
 200 684 200 684 200 700 c 128,-1,57
 200 716 200 716 202 750 c 1,58,-1
 150 750 l 2,59,60
 129 750 129 750 114.5 764.5 c 128,-1,61
 100 779 100 779 100 800 c 128,-1,62
 100 821 100 821 114.5 835.5 c 128,-1,63
 129 850 129 850 150 850 c 2,64,-1
 216 850 l 1,65,66
 268 1088 268 1088 459.5 1244 c 128,-1,67
 651 1400 651 1400 900 1400 c 0,0,1
EndSplineSet
EndChar

StartChar: trademark
Encoding: 8482 8482 280
Width: 1400
Flags: W
LayerCount: 2
Back
Fore
SplineSet
150 1400 m 2,0,-1
 550 1400 l 2,1,2
 571 1400 571 1400 585.5 1385.5 c 128,-1,3
 600 1371 600 1371 600 1350 c 128,-1,4
 600 1329 600 1329 585.5 1314.5 c 128,-1,5
 571 1300 571 1300 550 1300 c 2,6,-1
 400 1300 l 1,7,-1
 400 750 l 2,8,9
 400 729 400 729 385.5 714.5 c 128,-1,10
 371 700 371 700 350 700 c 128,-1,11
 329 700 329 700 314.5 714.5 c 128,-1,12
 300 729 300 729 300 750 c 2,13,-1
 300 1300 l 1,14,-1
 150 1300 l 2,15,16
 129 1300 129 1300 114.5 1314.5 c 128,-1,17
 100 1329 100 1329 100 1350 c 128,-1,18
 100 1371 100 1371 114.5 1385.5 c 128,-1,19
 129 1400 129 1400 150 1400 c 2,0,-1
750 1400 m 0,20,21
 776 1400 776 1400 791 1379 c 2,22,-1
 1000 1086 l 1,23,-1
 1209 1379 l 2,24,25
 1224 1400 1224 1400 1250 1400 c 0,26,27
 1271 1400 1271 1400 1285.5 1385.5 c 128,-1,28
 1300 1371 1300 1371 1300 1350 c 2,29,-1
 1300 750 l 2,30,31
 1300 729 1300 729 1285.5 714.5 c 128,-1,32
 1271 700 1271 700 1250 700 c 128,-1,33
 1229 700 1229 700 1214.5 714.5 c 128,-1,34
 1200 729 1200 729 1200 750 c 2,35,-1
 1200 1194 l 1,36,-1
 1041 972 l 2,37,38
 1026 950 1026 950 1000 950 c 128,-1,39
 974 950 974 950 959 972 c 2,40,-1
 800 1194 l 1,41,-1
 800 750 l 2,42,43
 800 729 800 729 785.5 714.5 c 128,-1,44
 771 700 771 700 750 700 c 128,-1,45
 729 700 729 700 714.5 714.5 c 128,-1,46
 700 729 700 729 700 750 c 2,47,-1
 700 1350 l 2,48,49
 700 1371 700 1371 714.5 1385.5 c 128,-1,50
 729 1400 729 1400 750 1400 c 0,20,21
EndSplineSet
EndChar

StartChar: uni2215
Encoding: 8725 8725 303
Width: 1100
Flags: W
LayerCount: 2
Back
Fore
SplineSet
950 1700 m 4,0,1
 971 1700 971 1700 985.5 1685.5 c 132,-1,2
 1000 1671 1000 1671 1000 1650 c 4,3,4
 1000 1638 1000 1638 996 1630 c 6,5,-1
 196 -170 l 6,6,7
 182 -200 182 -200 150 -200 c 4,8,9
 129 -200 129 -200 114.5 -185.5 c 132,-1,10
 100 -171 100 -171 100 -150 c 4,11,12
 100 -138 100 -138 104 -130 c 6,13,-1
 904 1670 l 6,14,15
 918 1700 918 1700 950 1700 c 4,0,1
EndSplineSet
EndChar

StartChar: uni2216
Encoding: 8726 8726 304
Width: 1100
Flags: W
LayerCount: 2
Back
Fore
SplineSet
150 1700 m 0,0,1
 182 1700 182 1700 196 1670 c 2,2,-1
 996 -130 l 2,3,4
 1000 -138 1000 -138 1000 -150 c 0,5,6
 1000 -171 1000 -171 985.5 -185.5 c 128,-1,7
 971 -200 971 -200 950 -200 c 0,8,9
 918 -200 918 -200 904 -170 c 2,10,-1
 104 1630 l 2,11,12
 100 1638 100 1638 100 1650 c 0,13,14
 100 1671 100 1671 114.5 1685.5 c 128,-1,15
 129 1700 129 1700 150 1700 c 0,0,1
EndSplineSet
EndChar

StartChar: radical
Encoding: 8730 8730 308
Width: 900
VWidth: 1800
Flags: W
TeX: 100 1800
LayerCount: 2
Back
Fore
SplineSet
750 1700 m 2,0,-1
 1000 1700 l 1,1,-1
 1000 1600 l 1,2,-1
 790 1600 l 1,3,-1
 399 -160 l 2,4,5
 395 -177 395 -177 381.5 -188.5 c 128,-1,6
 368 -200 368 -200 350 -200 c 256,7,8
 332 -200 332 -200 318 -188 c 0,9,10
 304 -177 304 -177 301 -159 c 2,11,-1
 100 941 l 2,12,13
 99 946 99 946 100 950 c 0,14,15
 107 978 107 978 114 986 c 0,16,17
 129 1000 129 1000 150 1000 c 0,18,19
 168 1000 168 1000 182 988 c 0,20,21
 196 977 196 977 199 959 c 2,22,-1
 355 103 l 1,23,-1
 701 1661 l 2,24,25
 705 1678 705 1678 719 1689 c 0,26,27
 732 1700 732 1700 750 1700 c 2,0,-1
EndSplineSet
EndChar

StartChar: proportional
Encoding: 8733 8733 309
Width: 1050
Flags: W
LayerCount: 2
Back
Fore
SplineSet
300 700 m 0,0,1
 354 700 354 700 400 673 c 2,2,-1
 600 558 l 1,3,-1
 800 673 l 2,4,5
 846 700 846 700 900 700 c 0,6,7
 921 700 921 700 935.5 685.5 c 128,-1,8
 950 671 950 671 950 650 c 128,-1,9
 950 629 950 629 935.5 614.5 c 128,-1,10
 921 600 921 600 900 600 c 0,11,12
 873 600 873 600 850 586 c 2,13,-1
 700 500 l 1,14,-1
 850 414 l 2,15,16
 873 400 873 400 900 400 c 0,17,18
 921 400 921 400 935.5 385.5 c 128,-1,19
 950 371 950 371 950 350 c 128,-1,20
 950 329 950 329 935.5 314.5 c 128,-1,21
 921 300 921 300 900 300 c 0,22,23
 846 300 846 300 800 327 c 2,24,-1
 600 442 l 1,25,-1
 400 327 l 2,26,27
 354 300 354 300 300 300 c 0,28,29
 217 300 217 300 158.5 358.5 c 128,-1,30
 100 417 100 417 100 500 c 128,-1,31
 100 583 100 583 158.5 641.5 c 128,-1,32
 217 700 217 700 300 700 c 0,0,1
300 600 m 0,33,34
 259 600 259 600 229.5 570.5 c 128,-1,35
 200 541 200 541 200 500 c 128,-1,36
 200 459 200 459 229.5 429.5 c 128,-1,37
 259 400 259 400 300 400 c 0,38,39
 327 400 327 400 350 414 c 2,40,-1
 500 500 l 1,41,-1
 350 586 l 2,42,43
 327 600 327 600 300 600 c 0,33,34
EndSplineSet
EndChar

StartChar: infinity
Encoding: 8734 8734 310
Width: 1200
Flags: W
LayerCount: 2
Back
Fore
SplineSet
300 700 m 0,0,1
 354 700 354 700 400 673 c 2,2,-1
 600 558 l 1,3,-1
 800 673 l 2,4,5
 846 700 846 700 900 700 c 0,6,7
 983 700 983 700 1041.5 641.5 c 128,-1,8
 1100 583 1100 583 1100 500 c 128,-1,9
 1100 417 1100 417 1041.5 358.5 c 128,-1,10
 983 300 983 300 900 300 c 0,11,12
 846 300 846 300 800 327 c 2,13,-1
 600 442 l 1,14,-1
 400 327 l 2,15,16
 354 300 354 300 300 300 c 0,17,18
 217 300 217 300 158.5 358.5 c 128,-1,19
 100 417 100 417 100 500 c 128,-1,20
 100 583 100 583 158.5 641.5 c 128,-1,21
 217 700 217 700 300 700 c 0,0,1
300 600 m 0,22,23
 259 600 259 600 229.5 570.5 c 128,-1,24
 200 541 200 541 200 500 c 128,-1,25
 200 459 200 459 229.5 429.5 c 128,-1,26
 259 400 259 400 300 400 c 0,27,28
 327 400 327 400 350 414 c 2,29,-1
 500 500 l 1,30,-1
 350 586 l 2,31,32
 327 600 327 600 300 600 c 0,22,23
900 600 m 0,33,34
 873 600 873 600 850 586 c 2,35,-1
 700 500 l 1,36,-1
 850 414 l 2,37,38
 873 400 873 400 900 400 c 0,39,40
 941 400 941 400 970.5 429.5 c 128,-1,41
 1000 459 1000 459 1000 500 c 128,-1,42
 1000 541 1000 541 970.5 570.5 c 128,-1,43
 941 600 941 600 900 600 c 0,33,34
EndSplineSet
EndChar

StartChar: orthogonal
Encoding: 8735 8735 311
Width: 900
Flags: W
LayerCount: 2
Back
Fore
SplineSet
150 1050 m 128,-1,1
 171 1050 171 1050 185.5 1035.5 c 128,-1,2
 200 1021 200 1021 200 1000 c 2,3,-1
 200 400 l 1,4,-1
 800 400 l 2,5,6
 821 400 821 400 835.5 385.5 c 128,-1,7
 850 371 850 371 850 350 c 128,-1,8
 850 329 850 329 835.5 314.5 c 128,-1,9
 821 300 821 300 800 300 c 2,10,-1
 150 300 l 2,11,12
 129 300 129 300 114.5 314.5 c 128,-1,13
 100 329 100 329 100 350 c 2,14,-1
 100 1000 l 2,15,16
 100 1021 100 1021 114.5 1035.5 c 128,-1,0
 129 1050 129 1050 150 1050 c 128,-1,1
EndSplineSet
EndChar

StartChar: angle
Encoding: 8736 8736 312
Width: 950
Flags: W
LayerCount: 2
Back
Fore
SplineSet
800 800 m 0,0,1
 821 800 821 800 835.5 785.5 c 128,-1,2
 850 771 850 771 850 750 c 0,3,4
 850 722 850 722 826 707 c 2,5,-1
 327 400 l 1,6,-1
 800 400 l 2,7,8
 821 400 821 400 835.5 385.5 c 128,-1,9
 850 371 850 371 850 350 c 128,-1,10
 850 329 850 329 835.5 314.5 c 128,-1,11
 821 300 821 300 800 300 c 2,12,-1
 150 300 l 2,13,14
 129 300 129 300 114.5 314.5 c 128,-1,15
 100 329 100 329 100 350 c 0,16,17
 100 378 100 378 124 393 c 2,18,-1
 774 793 l 2,19,20
 785 800 785 800 800 800 c 0,0,1
EndSplineSet
EndChar

StartChar: uni2221
Encoding: 8737 8737 313
Width: 950
Flags: W
LayerCount: 2
Back
Fore
SplineSet
650 880 m 128,-1,1
 671 880 671 880 685.5 865.5 c 128,-1,2
 700 851 700 851 700 830 c 2,3,-1
 700 747 l 1,4,-1
 774 793 l 2,5,6
 785 800 785 800 800 800 c 0,7,8
 821 800 821 800 835.5 785.5 c 128,-1,9
 850 771 850 771 850 750 c 0,10,11
 850 722 850 722 826 707 c 2,12,-1
 700 630 l 1,13,-1
 700 400 l 1,14,-1
 800 400 l 2,15,16
 821 400 821 400 835.5 385.5 c 128,-1,17
 850 371 850 371 850 350 c 128,-1,18
 850 329 850 329 835.5 314.5 c 128,-1,19
 821 300 821 300 800 300 c 2,20,-1
 700 300 l 1,21,-1
 700 200 l 2,22,23
 700 179 700 179 685.5 164.5 c 128,-1,24
 671 150 671 150 650 150 c 128,-1,25
 629 150 629 150 614.5 164.5 c 128,-1,26
 600 179 600 179 600 200 c 2,27,-1
 600 300 l 1,28,-1
 150 300 l 2,29,30
 129 300 129 300 114.5 314.5 c 128,-1,31
 100 329 100 329 100 350 c 0,32,33
 100 378 100 378 124 393 c 2,34,-1
 600 686 l 1,35,-1
 600 830 l 2,36,37
 600 851 600 851 614.5 865.5 c 128,-1,0
 629 880 629 880 650 880 c 128,-1,1
600 568 m 1,38,-1
 327 400 l 1,39,-1
 600 400 l 1,40,-1
 600 568 l 1,38,-1
EndSplineSet
EndChar

StartChar: uni2222
Encoding: 8738 8738 314
Width: 950
Flags: W
LayerCount: 2
Back
Fore
SplineSet
650 950 m 128,-1,1
 671 950 671 950 685.5 935.5 c 128,-1,2
 700 921 700 921 700 900 c 2,3,-1
 700 809 l 1,4,-1
 779 845 l 2,5,6
 789 850 789 850 800 850 c 0,7,8
 821 850 821 850 835.5 835.5 c 128,-1,9
 850 821 850 821 850 800 c 0,10,11
 850 769 850 769 821 755 c 2,12,-1
 700 699 l 1,13,-1
 700 301 l 1,14,-1
 821 245 l 2,15,16
 850 231 850 231 850 200 c 0,17,18
 850 179 850 179 835.5 164.5 c 128,-1,19
 821 150 821 150 800 150 c 0,20,21
 789 150 789 150 779 155 c 2,22,-1
 700 191 l 1,23,-1
 700 100 l 2,24,25
 700 79 700 79 685.5 64.5 c 128,-1,26
 671 50 671 50 650 50 c 128,-1,27
 629 50 629 50 614.5 64.5 c 128,-1,28
 600 79 600 79 600 100 c 2,29,-1
 600 237 l 1,30,-1
 129 455 l 2,31,32
 100 469 100 469 100 500 c 128,-1,33
 100 531 100 531 129 545 c 2,34,-1
 600 763 l 1,35,-1
 600 900 l 2,36,37
 600 921 600 921 614.5 935.5 c 128,-1,0
 629 950 629 950 650 950 c 128,-1,1
600 653 m 1,38,-1
 269 500 l 1,39,-1
 600 347 l 1,40,-1
 600 653 l 1,38,-1
EndSplineSet
EndChar

StartChar: integral
Encoding: 8747 8747 317
Width: 1100
Flags: W
HStem: -200 100<114.955 260.031> 1600 100<839.969 985.045>
DStem2: 295 10 391 -16 0.265067 0.96423<-108.849 1671.09>
LayerCount: 2
Back
Fore
SplineSet
950 1700 m 0,0,1
 971 1700 971 1700 985.5 1685.5 c 128,-1,2
 1000 1671 1000 1671 1000 1650 c 128,-1,3
 1000 1629 1000 1629 985.5 1614.5 c 128,-1,4
 971 1600 971 1600 950 1600 c 0,5,6
 899 1600 899 1600 858.5 1569 c 128,-1,7
 818 1538 818 1538 805 1490 c 2,8,-1
 391 -16 l 2,9,10
 369 -96 369 -96 302 -148 c 128,-1,11
 235 -200 235 -200 150 -200 c 0,12,13
 129 -200 129 -200 114.5 -185.5 c 128,-1,14
 100 -171 100 -171 100 -150 c 128,-1,15
 100 -129 100 -129 114.5 -114.5 c 128,-1,16
 129 -100 129 -100 150 -100 c 0,17,18
 201 -100 201 -100 241.5 -69 c 128,-1,19
 282 -38 282 -38 295 10 c 2,20,-1
 709 1516 l 2,21,22
 731 1596 731 1596 798 1648 c 128,-1,23
 865 1700 865 1700 950 1700 c 0,0,1
EndSplineSet
EndChar

StartChar: uni223D
Encoding: 8765 8765 321
Width: 800
Flags: MW
LayerCount: 2
Back
Fore
SplineSet
529 600 m 1,0,1
 607 600 607 600 680 542 c 0,2,3
 700 526 700 526 700 500 c 0,4,5
 700 477 700 477 688 464 c 0,6,7
 675 450 675 450 657 450 c 0,8,9
 644 450 644 450 631 460 c 0,10,11
 581 500 581 500 529 500 c 0,12,13
 475 500 475 500 425 459 c 0,14,15
 353 400 353 400 271 400 c 0,16,17
 191 400 191 400 121 457 c 0,18,19
 100 474 100 474 100 500 c 0,20,21
 100 523 100 523 112 536 c 0,22,23
 125 550 125 550 143 550 c 0,24,25
 157 550 157 550 168 541 c 0,26,27
 217 500 217 500 268 500 c 1,28,29
 320 500 320 500 375 541 c 0,30,31
 454 600 454 600 529 600 c 1,0,1
EndSplineSet
EndChar

StartChar: uni223E
Encoding: 8766 8766 322
Width: 1200
Flags: W
LayerCount: 2
Back
Fore
SplineSet
300 700 m 0,0,1
 354 700 354 700 400 673 c 2,2,-1
 850 413 l 2,3,4
 873 400 873 400 900 400 c 0,5,6
 941 400 941 400 970.5 429.5 c 128,-1,7
 1000 459 1000 459 1000 500 c 0,8,9
 1000 532 1000 532 981.5 558 c 128,-1,10
 963 584 963 584 933 594 c 0,11,12
 919 600 919 600 909.5 612.5 c 128,-1,13
 900 625 900 625 900 641 c 0,14,15
 900 662 900 662 914.5 676.5 c 128,-1,16
 929 691 929 691 950 691 c 0,17,18
 959 691 959 691 967 688 c 0,19,20
 1026 667 1026 667 1063 615.5 c 128,-1,21
 1100 564 1100 564 1100 500 c 0,22,23
 1100 417 1100 417 1041.5 358.5 c 128,-1,24
 983 300 983 300 900 300 c 0,25,26
 846 300 846 300 800 327 c 2,27,-1
 350 587 l 2,28,29
 327 600 327 600 300 600 c 0,30,31
 259 600 259 600 229.5 570.5 c 128,-1,32
 200 541 200 541 200 500 c 0,33,34
 200 468 200 468 218.5 442 c 128,-1,35
 237 416 237 416 267 406 c 0,36,37
 281 400 281 400 290.5 387.5 c 128,-1,38
 300 375 300 375 300 359 c 0,39,40
 300 338 300 338 285.5 323.5 c 128,-1,41
 271 309 271 309 250 309 c 0,42,43
 241 309 241 309 233 312 c 0,44,45
 174 333 174 333 137 384.5 c 128,-1,46
 100 436 100 436 100 500 c 0,47,48
 100 583 100 583 158.5 641.5 c 128,-1,49
 217 700 217 700 300 700 c 0,0,1
EndSplineSet
EndChar

StartChar: uni223F
Encoding: 8767 8767 323
Width: 900
Flags: W
LayerCount: 2
Back
Fore
SplineSet
300 700 m 128,-1,1
 382 700 382 700 441 641 c 128,-1,2
 500 582 500 582 500 500 c 0,3,4
 500 459 500 459 529.5 429.5 c 128,-1,5
 559 400 559 400 600 400 c 128,-1,6
 641 400 641 400 670.5 429.5 c 128,-1,7
 700 459 700 459 700 500 c 0,8,9
 700 521 700 521 714.5 535.5 c 128,-1,10
 729 550 729 550 750 550 c 128,-1,11
 771 550 771 550 785.5 535.5 c 128,-1,12
 800 521 800 521 800 500 c 0,13,14
 800 418 800 418 741 359 c 128,-1,15
 682 300 682 300 600 300 c 128,-1,16
 518 300 518 300 459 359 c 128,-1,17
 400 418 400 418 400 500 c 0,18,19
 400 541 400 541 370.5 570.5 c 128,-1,20
 341 600 341 600 300 600 c 128,-1,21
 259 600 259 600 229.5 570.5 c 128,-1,22
 200 541 200 541 200 500 c 0,23,24
 200 479 200 479 185.5 464.5 c 128,-1,25
 171 450 171 450 150 450 c 128,-1,26
 129 450 129 450 114.5 464.5 c 128,-1,27
 100 479 100 479 100 500 c 0,28,29
 100 582 100 582 159 641 c 128,-1,0
 218 700 218 700 300 700 c 128,-1,1
EndSplineSet
EndChar

StartChar: perpendicular
Encoding: 8869 8869 338
Width: 900
Flags: MW
LayerCount: 2
Back
Fore
SplineSet
450 1000 m 128,-1,1
 471 1000 471 1000 485.5 985.5 c 128,-1,2
 500 971 500 971 500 950 c 2,3,-1
 500 100 l 1,4,-1
 750 100 l 2,5,6
 771 100 771 100 785.5 85.5 c 128,-1,7
 800 71 800 71 800 50 c 128,-1,8
 800 29 800 29 785.5 14.5 c 128,-1,9
 771 0 771 0 750 0 c 2,10,-1
 150 0 l 2,11,12
 129 0 129 0 114.5 14.5 c 128,-1,13
 100 29 100 29 100 50 c 128,-1,14
 100 71 100 71 114.5 85.5 c 128,-1,15
 129 100 129 100 150 100 c 2,16,-1
 400 100 l 1,17,-1
 400 950 l 2,18,19
 400 971 400 971 414.5 985.5 c 128,-1,0
 429 1000 429 1000 450 1000 c 128,-1,1
EndSplineSet
EndChar

StartChar: uni2300
Encoding: 8960 8960 339
Width: 1000
Flags: W
LayerCount: 2
Back
Fore
SplineSet
700 1400 m 0,0,1
 721 1400 721 1400 735.5 1385.5 c 128,-1,2
 750 1371 750 1371 750 1350 c 0,3,4
 750 1342 750 1342 748 1335 c 2,5,-1
 665 1065 l 1,6,7
 770 1017 770 1017 835 918.5 c 128,-1,8
 900 820 900 820 900 700 c 0,9,10
 900 534 900 534 783 417 c 128,-1,11
 666 300 666 300 500 300 c 0,12,13
 465 300 465 300 431 306 c 1,14,-1
 348 35 l 2,15,16
 343 20 343 20 330 10 c 128,-1,17
 317 0 317 0 300 0 c 0,18,19
 279 0 279 0 264.5 14.5 c 128,-1,20
 250 29 250 29 250 50 c 0,21,22
 250 58 250 58 252 65 c 2,23,-1
 335 335 l 1,24,25
 230 383 230 383 165 481.5 c 128,-1,26
 100 580 100 580 100 700 c 0,27,28
 100 866 100 866 217 983 c 128,-1,29
 334 1100 334 1100 500 1100 c 0,30,31
 535 1100 535 1100 569 1094 c 1,32,-1
 652 1365 l 2,33,34
 657 1380 657 1380 670 1390 c 128,-1,35
 683 1400 683 1400 700 1400 c 0,0,1
500 1000 m 0,36,37
 376 1000 376 1000 288 912 c 128,-1,38
 200 824 200 824 200 700 c 0,39,40
 200 613 200 613 245 541.5 c 128,-1,41
 290 470 290 470 365 432 c 1,42,-1
 539 997 l 1,43,44
 520 1000 520 1000 500 1000 c 0,36,37
635 968 m 1,45,-1
 461 403 l 1,46,47
 480 400 480 400 500 400 c 0,48,49
 624 400 624 400 712 488 c 128,-1,50
 800 576 800 576 800 700 c 0,51,52
 800 787 800 787 755 858.5 c 128,-1,53
 710 930 710 930 635 968 c 1,45,-1
EndSplineSet
EndChar

StartChar: revlogicalnot
Encoding: 8976 8976 340
Width: 900
Flags: W
LayerCount: 2
Back
Fore
SplineSet
750 650 m 2,0,1
 771 650 771 650 785.5 635.5 c 128,-1,2
 800 621 800 621 800 600 c 128,-1,3
 800 579 800 579 785.5 564.5 c 128,-1,4
 771 550 771 550 750 550 c 2,5,-1
 200 550 l 1,6,-1
 200 400 l 2,7,8
 200 379 200 379 185.5 364.5 c 128,-1,9
 171 350 171 350 150 350 c 128,-1,10
 129 350 129 350 114.5 364.5 c 128,-1,11
 100 379 100 379 100 400 c 2,12,-1
 100 600 l 2,13,14
 100 621 100 621 114.5 635.5 c 128,-1,15
 129 650 129 650 150 650 c 2,16,-1
 750 650 l 2,0,1
EndSplineSet
EndChar

StartChar: uni2316
Encoding: 8982 8982 341
Width: 2400
Flags: W
LayerCount: 2
Back
Fore
SplineSet
1200 1800 m 128,-1,1
 1221 1800 1221 1800 1235.5 1785.5 c 128,-1,2
 1250 1771 1250 1771 1250 1750 c 2,3,-1
 1250 1398 l 1,4,5
 1510 1380 1510 1380 1695 1195 c 128,-1,6
 1880 1010 1880 1010 1898 750 c 1,7,-1
 2250 750 l 2,8,9
 2271 750 2271 750 2285.5 735.5 c 128,-1,10
 2300 721 2300 721 2300 700 c 128,-1,11
 2300 679 2300 679 2285.5 664.5 c 128,-1,12
 2271 650 2271 650 2250 650 c 2,13,-1
 1898 650 l 1,14,15
 1880 390 1880 390 1695 205 c 128,-1,16
 1510 20 1510 20 1250 2 c 1,17,-1
 1250 -350 l 2,18,19
 1250 -371 1250 -371 1235.5 -385.5 c 128,-1,20
 1221 -400 1221 -400 1200 -400 c 128,-1,21
 1179 -400 1179 -400 1164.5 -385.5 c 128,-1,22
 1150 -371 1150 -371 1150 -350 c 2,23,-1
 1150 2 l 1,24,25
 890 20 890 20 705 205 c 128,-1,26
 520 390 520 390 502 650 c 1,27,-1
 150 650 l 2,28,29
 129 650 129 650 114.5 664.5 c 128,-1,30
 100 679 100 679 100 700 c 128,-1,31
 100 721 100 721 114.5 735.5 c 128,-1,32
 129 750 129 750 150 750 c 2,33,-1
 502 750 l 1,34,35
 520 1010 520 1010 705 1195 c 128,-1,36
 890 1380 890 1380 1150 1398 c 1,37,-1
 1150 1750 l 2,38,39
 1150 1771 1150 1771 1164.5 1785.5 c 128,-1,0
 1179 1800 1179 1800 1200 1800 c 128,-1,1
1150 1298 m 1,40,41
 932 1280 932 1280 776 1124 c 128,-1,42
 620 968 620 968 602 750 c 1,43,-1
 1150 750 l 1,44,-1
 1150 1298 l 1,40,41
1250 1298 m 1,45,-1
 1250 750 l 1,46,-1
 1798 750 l 1,47,48
 1780 968 1780 968 1624 1124 c 128,-1,49
 1468 1280 1468 1280 1250 1298 c 1,45,-1
602 650 m 1,50,51
 620 432 620 432 776 276 c 128,-1,52
 932 120 932 120 1150 102 c 1,53,-1
 1150 650 l 1,54,-1
 602 650 l 1,50,51
1250 650 m 1,55,-1
 1250 102 l 1,56,57
 1468 120 1468 120 1624 276 c 128,-1,58
 1780 432 1780 432 1798 650 c 1,59,-1
 1250 650 l 1,55,-1
EndSplineSet
EndChar

StartChar: uni232D
Encoding: 9005 9005 342
Width: 3000
Flags: W
LayerCount: 2
Back
Fore
SplineSet
1350 1800 m 0,0,1
 1371 1800 1371 1800 1385.5 1785.5 c 128,-1,2
 1400 1771 1400 1771 1400 1750 c 0,3,4
 1400 1737 1400 1737 1393 1725 c 2,5,-1
 1156 1310 l 1,6,7
 1317 1400 1317 1400 1500 1400 c 0,8,9
 1613 1400 1613 1400 1718.5 1365.5 c 128,-1,10
 1824 1331 1824 1331 1909.5 1267.5 c 128,-1,11
 1995 1204 1995 1204 2060 1119.5 c 128,-1,12
 2125 1035 2125 1035 2161.5 930 c 128,-1,13
 2198 825 2198 825 2200 713 c 1,14,-1
 2807 1775 l 2,15,16
 2822 1800 2822 1800 2850 1800 c 0,17,18
 2871 1800 2871 1800 2885.5 1785.5 c 128,-1,19
 2900 1771 2900 1771 2900 1750 c 0,20,21
 2900 1736 2900 1736 2892 1725 c 2,22,-1
 1693 -375 l 2,23,24
 1678 -400 1678 -400 1650 -400 c 0,25,26
 1629 -400 1629 -400 1614.5 -385.5 c 128,-1,27
 1600 -371 1600 -371 1600 -350 c 0,28,29
 1600 -337 1600 -337 1607 -325 c 2,30,-1
 1844 90 l 1,31,32
 1683 0 1683 0 1500 0 c 0,33,34
 1387 0 1387 0 1281.5 34.5 c 128,-1,35
 1176 69 1176 69 1090.5 132.5 c 128,-1,36
 1005 196 1005 196 940 280.5 c 128,-1,37
 875 365 875 365 838.5 470 c 128,-1,38
 802 575 802 575 800 687 c 1,39,-1
 193 -375 l 2,40,41
 178 -400 178 -400 150 -400 c 0,42,43
 129 -400 129 -400 114.5 -385.5 c 128,-1,44
 100 -371 100 -371 100 -350 c 0,45,46
 100 -337 100 -337 107 -325 c 2,47,-1
 1307 1775 l 2,48,49
 1322 1800 1322 1800 1350 1800 c 0,0,1
1500 1300 m 128,-1,51
 1337 1300 1337 1300 1199 1219.5 c 128,-1,52
 1061 1139 1061 1139 980.5 1001 c 128,-1,53
 900 863 900 863 900 700 c 128,-1,54
 900 537 900 537 980.5 399 c 128,-1,55
 1061 261 1061 261 1199 180.5 c 128,-1,56
 1337 100 1337 100 1500 100 c 128,-1,57
 1663 100 1663 100 1801 180.5 c 128,-1,58
 1939 261 1939 261 2019.5 399 c 128,-1,59
 2100 537 2100 537 2100 700 c 128,-1,60
 2100 863 2100 863 2019.5 1001 c 128,-1,61
 1939 1139 1939 1139 1801 1219.5 c 128,-1,50
 1663 1300 1663 1300 1500 1300 c 128,-1,51
EndSplineSet
EndChar

StartChar: uni232F
Encoding: 9007 9007 343
Width: 2400
Flags: W
LayerCount: 2
Back
Fore
SplineSet
150 750 m 2,0,-1
 2250 750 l 2,1,2
 2271 750 2271 750 2285.5 735.5 c 128,-1,3
 2300 721 2300 721 2300 700 c 128,-1,4
 2300 679 2300 679 2285.5 664.5 c 128,-1,5
 2271 650 2271 650 2250 650 c 2,6,-1
 150 650 l 2,7,8
 129 650 129 650 114.5 664.5 c 128,-1,9
 100 679 100 679 100 700 c 128,-1,10
 100 721 100 721 114.5 735.5 c 128,-1,11
 129 750 129 750 150 750 c 2,0,-1
550 300 m 2,12,-1
 1850 300 l 2,13,14
 1871 300 1871 300 1885.5 285.5 c 128,-1,15
 1900 271 1900 271 1900 250 c 128,-1,16
 1900 229 1900 229 1885.5 214.5 c 128,-1,17
 1871 200 1871 200 1850 200 c 2,18,-1
 550 200 l 2,19,20
 529 200 529 200 514.5 214.5 c 128,-1,21
 500 229 500 229 500 250 c 128,-1,22
 500 271 500 271 514.5 285.5 c 128,-1,23
 529 300 529 300 550 300 c 2,12,-1
550 1200 m 2,24,-1
 1850 1200 l 2,25,26
 1871 1200 1871 1200 1885.5 1185.5 c 128,-1,27
 1900 1171 1900 1171 1900 1150 c 128,-1,28
 1900 1129 1900 1129 1885.5 1114.5 c 128,-1,29
 1871 1100 1871 1100 1850 1100 c 2,30,-1
 550 1100 l 2,31,32
 529 1100 529 1100 514.5 1114.5 c 128,-1,33
 500 1129 500 1129 500 1150 c 128,-1,34
 500 1171 500 1171 514.5 1185.5 c 128,-1,35
 529 1200 529 1200 550 1200 c 2,24,-1
EndSplineSet
EndChar

StartChar: uni2330
Encoding: 9008 9008 344
Width: 4500
Flags: W
LayerCount: 2
Back
Fore
SplineSet
2250 1800 m 0,0,1
 2271 1800 2271 1800 2285.5 1785.5 c 128,-1,2
 2300 1771 2300 1771 2300 1750 c 0,3,4
 2300 1734 2300 1734 2291 1722 c 2,5,-1
 1741 922 l 2,6,7
 1726 900 1726 900 1700 900 c 0,8,9
 1679 900 1679 900 1664.5 914.5 c 128,-1,10
 1650 929 1650 929 1650 950 c 0,11,12
 1650 1005 1650 1005 1622 1052 c 1,13,-1
 271 -300 l 1,14,-1
 2229 -300 l 1,15,-1
 3652 1122 l 1,16,17
 3605 1150 3605 1150 3550 1150 c 0,18,19
 3529 1150 3529 1150 3514.5 1164.5 c 128,-1,20
 3500 1179 3500 1179 3500 1200 c 0,21,22
 3500 1226 3500 1226 3522 1241 c 2,23,-1
 4322 1791 l 2,24,25
 4334 1800 4334 1800 4350 1800 c 0,26,27
 4371 1800 4371 1800 4385.5 1785.5 c 128,-1,28
 4400 1771 4400 1771 4400 1750 c 0,29,30
 4400 1734 4400 1734 4391 1722 c 2,31,-1
 3841 922 l 2,32,33
 3826 900 3826 900 3800 900 c 0,34,35
 3779 900 3779 900 3764.5 914.5 c 128,-1,36
 3750 929 3750 929 3750 950 c 0,37,38
 3750 1005 3750 1005 3722 1052 c 1,39,-1
 2285 -385 l 2,40,41
 2270 -400 2270 -400 2250 -400 c 2,42,-1
 150 -400 l 2,43,44
 129 -400 129 -400 114.5 -385.5 c 128,-1,45
 100 -371 100 -371 100 -350 c 0,46,47
 100 -330 100 -330 115 -315 c 2,48,-1
 1552 1122 l 1,49,50
 1505 1150 1505 1150 1450 1150 c 0,51,52
 1429 1150 1429 1150 1414.5 1164.5 c 128,-1,53
 1400 1179 1400 1179 1400 1200 c 0,54,55
 1400 1226 1400 1226 1422 1241 c 2,56,-1
 2222 1791 l 2,57,58
 2234 1800 2234 1800 2250 1800 c 0,0,1
EndSplineSet
EndChar

StartChar: uni2332
Encoding: 9010 9010 345
Width: 900
Flags: W
LayerCount: 2
Back
Fore
SplineSet
150 800 m 0,0,1
 157 800 157 800 169 796 c 2,2,-1
 769 546 l 2,3,4
 800 532 800 532 800 500 c 128,-1,5
 800 468 800 468 769 454 c 2,6,-1
 169 204 l 2,7,8
 157 200 157 200 150 200 c 0,9,10
 129 200 129 200 114.5 214.5 c 128,-1,11
 100 229 100 229 100 250 c 2,12,-1
 100 750 l 2,13,14
 100 771 100 771 114.5 785.5 c 128,-1,15
 129 800 129 800 150 800 c 0,0,1
200 675 m 1,16,-1
 200 325 l 1,17,-1
 620 500 l 1,18,-1
 200 675 l 1,16,-1
EndSplineSet
EndChar

StartChar: uni2333
Encoding: 9011 9011 346
Width: 900
Flags: W
LayerCount: 2
Back
Fore
SplineSet
100 800 m 0,0,1
 115 800 115 800 126 793 c 2,2,-1
 776 393 l 2,3,4
 800 378 800 378 800 350 c 0,5,6
 800 329 800 329 785.5 314.5 c 128,-1,7
 771 300 771 300 750 300 c 2,8,-1
 100 300 l 2,9,10
 79 300 79 300 64.5 314.5 c 128,-1,11
 50 329 50 329 50 350 c 128,-1,12
 50 371 50 371 64.5 385.5 c 128,-1,13
 79 400 79 400 100 400 c 2,14,-1
 573 400 l 1,15,-1
 74 707 l 2,16,17
 50 722 50 722 50 750 c 0,18,19
 50 771 50 771 64.5 785.5 c 128,-1,20
 79 800 79 800 100 800 c 0,0,1
EndSplineSet
EndChar

StartChar: uni23E4
Encoding: 9188 9188 347
Width: 2400
Flags: W
LayerCount: 2
Back
Fore
SplineSet
150 750 m 2,0,-1
 2250 750 l 2,1,2
 2271 750 2271 750 2285.5 735.5 c 128,-1,3
 2300 721 2300 721 2300 700 c 128,-1,4
 2300 679 2300 679 2285.5 664.5 c 128,-1,5
 2271 650 2271 650 2250 650 c 2,6,-1
 150 650 l 2,7,8
 129 650 129 650 114.5 664.5 c 128,-1,9
 100 679 100 679 100 700 c 128,-1,10
 100 721 100 721 114.5 735.5 c 128,-1,11
 129 750 129 750 150 750 c 2,0,-1
EndSplineSet
EndChar

StartChar: uni23E5
Encoding: 9189 9189 348
Width: 3150
Flags: W
LayerCount: 2
Back
Fore
SplineSet
900 1400 m 2,0,-1
 3000 1400 l 2,1,2
 3021 1400 3021 1400 3035.5 1385.5 c 128,-1,3
 3050 1371 3050 1371 3050 1350 c 0,4,5
 3050 1337 3050 1337 3043 1325 c 2,6,-1
 2293 25 l 2,7,8
 2278 0 2278 0 2250 0 c 2,9,-1
 150 0 l 2,10,11
 129 0 129 0 114.5 14.5 c 128,-1,12
 100 29 100 29 100 50 c 0,13,14
 100 63 100 63 107 75 c 2,15,-1
 857 1375 l 2,16,17
 872 1400 872 1400 900 1400 c 2,0,-1
929 1300 m 1,18,-1
 237 100 l 1,19,-1
 2221 100 l 1,20,-1
 2913 1300 l 1,21,-1
 929 1300 l 1,18,-1
EndSplineSet
EndChar

StartChar: circle
Encoding: 9675 9675 349
Width: 1600
Flags: W
LayerCount: 2
Back
Fore
SplineSet
800 1400 m 128,-1,1
 943 1400 943 1400 1072.5 1344.5 c 128,-1,2
 1202 1289 1202 1289 1295.5 1195.5 c 128,-1,3
 1389 1102 1389 1102 1444.5 972.5 c 128,-1,4
 1500 843 1500 843 1500 700 c 128,-1,5
 1500 557 1500 557 1444.5 427.5 c 128,-1,6
 1389 298 1389 298 1295.5 204.5 c 128,-1,7
 1202 111 1202 111 1072.5 55.5 c 128,-1,8
 943 0 943 0 800 0 c 128,-1,9
 657 0 657 0 527.5 55.5 c 128,-1,10
 398 111 398 111 304.5 204.5 c 128,-1,11
 211 298 211 298 155.5 427.5 c 128,-1,12
 100 557 100 557 100 700 c 128,-1,13
 100 843 100 843 155.5 972.5 c 128,-1,14
 211 1102 211 1102 304.5 1195.5 c 128,-1,15
 398 1289 398 1289 527.5 1344.5 c 128,-1,0
 657 1400 657 1400 800 1400 c 128,-1,1
800 1300 m 128,-1,17
 637 1300 637 1300 499 1219.5 c 128,-1,18
 361 1139 361 1139 280.5 1001 c 128,-1,19
 200 863 200 863 200 700 c 128,-1,20
 200 537 200 537 280.5 399 c 128,-1,21
 361 261 361 261 499 180.5 c 128,-1,22
 637 100 637 100 800 100 c 128,-1,23
 963 100 963 100 1101 180.5 c 128,-1,24
 1239 261 1239 261 1319.5 399 c 128,-1,25
 1400 537 1400 537 1400 700 c 128,-1,26
 1400 863 1400 863 1319.5 1001 c 128,-1,27
 1239 1139 1239 1139 1101 1219.5 c 128,-1,16
 963 1300 963 1300 800 1300 c 128,-1,17
EndSplineSet
EndChar

StartChar: uni25EF
Encoding: 9711 9711 351
Width: 2400
Flags: W
LayerCount: 2
Back
Fore
SplineSet
1200 1800 m 128,-1,1
 1424 1800 1424 1800 1627.5 1713 c 128,-1,2
 1831 1626 1831 1626 1978.5 1478.5 c 128,-1,3
 2126 1331 2126 1331 2213 1127.5 c 128,-1,4
 2300 924 2300 924 2300 700 c 128,-1,5
 2300 476 2300 476 2213 272.5 c 128,-1,6
 2126 69 2126 69 1978.5 -78.5 c 128,-1,7
 1831 -226 1831 -226 1627.5 -313 c 128,-1,8
 1424 -400 1424 -400 1200 -400 c 128,-1,9
 976 -400 976 -400 772.5 -313 c 128,-1,10
 569 -226 569 -226 421.5 -78.5 c 128,-1,11
 274 69 274 69 187 272.5 c 128,-1,12
 100 476 100 476 100 700 c 128,-1,13
 100 924 100 924 187 1127.5 c 128,-1,14
 274 1331 274 1331 421.5 1478.5 c 128,-1,15
 569 1626 569 1626 772.5 1713 c 128,-1,0
 976 1800 976 1800 1200 1800 c 128,-1,1
1200 1700 m 128,-1,17
 1037 1700 1037 1700 884.5 1649.5 c 128,-1,18
 732 1599 732 1599 609 1506.5 c 128,-1,19
 486 1414 486 1414 393.5 1291 c 128,-1,20
 301 1168 301 1168 250.5 1015.5 c 128,-1,21
 200 863 200 863 200 700 c 128,-1,22
 200 537 200 537 250.5 384.5 c 128,-1,23
 301 232 301 232 393.5 109 c 128,-1,24
 486 -14 486 -14 609 -106.5 c 128,-1,25
 732 -199 732 -199 884.5 -249.5 c 128,-1,26
 1037 -300 1037 -300 1200 -300 c 128,-1,27
 1363 -300 1363 -300 1515.5 -249.5 c 128,-1,28
 1668 -199 1668 -199 1791 -106.5 c 128,-1,29
 1914 -14 1914 -14 2006.5 109 c 128,-1,30
 2099 232 2099 232 2149.5 384.5 c 128,-1,31
 2200 537 2200 537 2200 700 c 128,-1,32
 2200 863 2200 863 2149.5 1015.5 c 128,-1,33
 2099 1168 2099 1168 2006.5 1291 c 128,-1,34
 1914 1414 1914 1414 1791 1506.5 c 128,-1,35
 1668 1599 1668 1599 1515.5 1649.5 c 128,-1,16
 1363 1700 1363 1700 1200 1700 c 128,-1,17
EndSplineSet
EndChar

StartChar: percentslash
Encoding: 57345 -1 353
Width: 1100
GlyphClass: 5
Flags: W
LayerCount: 2
Back
Fore
SplineSet
950 1400 m 4,0,1
 971 1400 971 1400 985.5 1385.5 c 132,-1,2
 1000 1371 1000 1371 1000 1350 c 4,3,4
 1000 1336 1000 1336 993 1324 c 6,5,-1
 193 24 l 6,6,7
 178 0 178 0 150 0 c 4,8,9
 129 0 129 0 114.5 14.5 c 132,-1,10
 100 29 100 29 100 50 c 4,11,12
 100 64 100 64 107 76 c 6,13,-1
 907 1376 l 6,14,15
 922 1400 922 1400 950 1400 c 4,0,1
EndSplineSet
EndChar

StartChar: uni2028
Encoding: 8232 8232 359
Width: 850
Flags: MW
LayerCount: 2
Back
Fore
SplineSet
700 0 m 2,0,1
 271 0 l 1,2,-1
 485 -215 l 2,3,4
 500 -230 500 -230 500 -250 c 0,5,6
 500 -271 500 -271 485.5 -285.5 c 128,-1,7
 471 -300 471 -300 450 -300 c 0,8,9
 430 -300 430 -300 415 -285 c 2,10,-1
 115 15 l 2,11,12
 100 30 100 30 100 50 c 128,-1,13
 100 70 100 70 115 85 c 2,14,-1
 415 385 l 2,15,16
 430 400 430 400 450 400 c 0,17,18
 471 400 471 400 485.5 385.5 c 128,-1,19
 500 371 500 371 500 350 c 0,20,21
 500 330 500 330 485 315 c 2,22,-1
 271 100 l 1,23,-1
 650 100 l 25,24,-1
 650 950 l 2,25,26
 650 971 650 971 664.5 985.5 c 128,-1,27
 679 1000 679 1000 700 1000 c 128,-1,28
 721 1000 721 1000 735.5 985.5 c 128,-1,29
 750 971 750 971 750 950 c 2,30,-1
 750 50 l 2,31,32
 750 29 750 29 735.5 14.5 c 128,-1,33
 721 0 721 0 700 0 c 2,0,1
EndSplineSet
EndChar

StartChar: partialdiff
Encoding: 8706 8706 362
Width: 800
Flags: W
LayerCount: 2
Back
Fore
SplineSet
400 900 m 128,-1,1
 318 900 318 900 259 841 c 128,-1,2
 200 782 200 782 200 700 c 2,3,-1
 200 300 l 2,4,5
 200 218 200 218 259 159 c 128,-1,6
 318 100 318 100 400 100 c 128,-1,7
 482 100 482 100 541 159 c 128,-1,8
 600 218 600 218 600 300 c 2,9,-1
 600 700 l 2,10,11
 600 782 600 782 541 841 c 128,-1,0
 482 900 482 900 400 900 c 128,-1,1
700 300 m 2,12,13
 700 176 700 176 612 88 c 128,-1,14
 524 0 524 0 400 0 c 128,-1,15
 276 0 276 0 188 88 c 128,-1,16
 100 176 100 176 100 300 c 2,17,-1
 100 700 l 2,18,19
 100 824 100 824 188 912 c 128,-1,20
 276 1000 276 1000 400 1000 c 0,21,22
 516 1000 516 1000 600 923 c 1,23,-1
 600 1150 l 2,24,25
 600 1212 600 1212 556 1256 c 128,-1,26
 512 1300 512 1300 450 1300 c 2,27,-1
 250 1300 l 2,28,29
 229 1300 229 1300 214.5 1314.5 c 128,-1,30
 200 1329 200 1329 200 1350 c 128,-1,31
 200 1371 200 1371 214.5 1385.5 c 128,-1,32
 229 1400 229 1400 250 1400 c 2,33,-1
 450 1400 l 2,34,35
 554 1400 554 1400 627 1327 c 128,-1,36
 700 1254 700 1254 700 1150 c 2,37,-1
 700 700 l 1,38,-1
 700 300 l 2,12,13
EndSplineSet
EndChar

StartChar: existential
Encoding: 8707 8707 363
Width: 800
Flags: MW
LayerCount: 2
Back
Fore
SplineSet
650 1400 m 2,0,1
 671 1400 671 1400 685.5 1385.5 c 128,-1,2
 700 1371 700 1371 700 1350 c 2,3,-1
 700 50 l 2,4,5
 700 29 700 29 685.5 14.5 c 128,-1,6
 671 0 671 0 650 0 c 2,7,-1
 150 0 l 2,8,9
 129 0 129 0 114.5 14.5 c 128,-1,10
 100 29 100 29 100 50 c 128,-1,11
 100 71 100 71 114.5 85.5 c 128,-1,12
 129 100 129 100 150 100 c 2,13,-1
 600 100 l 1,14,-1
 600 650 l 1,15,-1
 150 650 l 2,16,17
 129 650 129 650 114.5 664.5 c 128,-1,18
 100 679 100 679 100 700 c 128,-1,19
 100 721 100 721 114.5 735.5 c 128,-1,20
 129 750 129 750 150 750 c 2,21,-1
 600 750 l 1,22,-1
 600 1300 l 1,23,-1
 150 1300 l 2,24,25
 129 1300 129 1300 114.5 1314.5 c 128,-1,26
 100 1329 100 1329 100 1350 c 128,-1,27
 100 1371 100 1371 114.5 1385.5 c 128,-1,28
 129 1400 129 1400 150 1400 c 2,29,-1
 650 1400 l 2,0,1
EndSplineSet
EndChar

StartChar: uni2204
Encoding: 8708 8708 364
Width: 800
Flags: MW
LayerCount: 2
Back
Fore
SplineSet
650 1600 m 0,0,1
 671 1600 671 1600 685.5 1585.5 c 128,-1,2
 700 1571 700 1571 700 1550 c 0,3,4
 700 1544 700 1544 696 1530 c 2,5,-1
 658 1400 l 1,6,7
 674 1398 674 1398 686 1386 c 0,8,9
 700 1372 700 1372 700 1350 c 2,10,-1
 700 50 l 2,11,12
 700 27 700 27 686 14 c 0,13,14
 671 -0 671 -0 650 -0 c 2,15,-1
 246 -0 l 1,16,-1
 196 -170 l 2,17,18
 187 -200 187 -200 150 -200 c 0,19,20
 129 -200 129 -200 114.5 -185.5 c 128,-1,21
 100 -171 100 -171 100 -150 c 0,22,23
 100 -144 100 -144 104 -130 c 2,24,-1
 142 0 l 1,25,26
 126 2 126 2 114 14 c 0,27,28
 100 28 100 28 100 50 c 0,29,30
 100 71 100 71 114.5 85.5 c 128,-1,31
 129 100 129 100 150 100 c 2,32,-1
 172 100 l 1,33,-1
 333 650 l 1,34,-1
 150 650 l 2,35,36
 129 650 129 650 114.5 664.5 c 128,-1,37
 100 679 100 679 100 700 c 128,-1,38
 100 721 100 721 114.5 735.5 c 128,-1,39
 129 750 129 750 150 750 c 2,40,-1
 363 750 l 1,41,-1
 525 1300 l 1,42,-1
 150 1300 l 2,43,44
 129 1300 129 1300 114.5 1314.5 c 128,-1,45
 100 1329 100 1329 100 1350 c 128,-1,46
 100 1371 100 1371 114.5 1385.5 c 128,-1,47
 129 1400 129 1400 150 1400 c 2,48,-1
 554 1400 l 1,49,-1
 604 1570 l 2,50,51
 613 1600 613 1600 650 1600 c 0,0,1
600 1204 m 1,52,-1
 467 750 l 1,53,-1
 600 750 l 1,54,-1
 600 1204 l 1,52,-1
437 650 m 1,55,-1
 275 100 l 1,56,-1
 600 100 l 1,57,-1
 600 650 l 1,58,-1
 437 650 l 1,55,-1
EndSplineSet
EndChar

StartChar: biground
Encoding: 57343 -1 365
Width: 1000
GlyphClass: 5
Flags: W
HStem: 300 100<329.334 666.097> 1000 100<332.16 665.678>
VStem: 100 100<530.617 871.597> 800 100<533.26 863.806>
LayerCount: 2
Back
Fore
SplineSet
500 1100 m 0,0,1
 668 1100 668 1100 785 986 c 1,2,3
 900 865 900 865 900 700 c 0,4,5
 900 528 900 528 781 413 c 0,6,7
 664 300 664 300 500 300 c 1,8,9
 337 300 337 300 217 417 c 0,10,11
 100 530 100 530 100 700 c 0,12,13
 100 866 100 866 217 983 c 128,-1,14
 334 1100 334 1100 500 1100 c 0,0,1
500 400 m 1,15,16
 627 400 627 400 712 484 c 0,17,18
 800 571 800 571 800 700 c 0,19,20
 800 825 800 825 712 915 c 0,21,22
 628 1000 628 1000 500 1000 c 1,23,24
 376 1000 376 1000 288 919 c 128,-1,25
 200 838 200 838 200 700 c 0,26,27
 200 571 200 571 285 484 c 0,28,29
 365 400 365 400 500 400 c 1,15,16
EndSplineSet
EndChar

StartChar: uni20DD
Encoding: 8413 8413 366
Width: 1700
Flags: MW
LayerCount: 2
Back
Fore
SplineSet
850 1600 m 128,-1,1
 559.289321881 1600 559.289321881 1600 354.644660941 1395.35533906 c 128,-1,2
 150 1190.71067812 150 1190.71067812 150 900 c 128,-1,3
 150 609.289321881 150 609.289321881 354.644660941 404.644660941 c 128,-1,4
 559.289321881 200 559.289321881 200 850 200 c 128,-1,5
 1140.71067812 200 1140.71067812 200 1345.35533906 404.644660941 c 128,-1,6
 1550 609.289321881 1550 609.289321881 1550 900 c 128,-1,7
 1550 1190.71067812 1550 1190.71067812 1345.35533906 1395.35533906 c 128,-1,0
 1140.71067812 1600 1140.71067812 1600 850 1600 c 128,-1,1
EndSplineSet
EndChar

StartChar: uni225D
Encoding: 8797 8797 375
Width: 2100
LayerCount: 2
Back
Fore
SplineSet
100 1646 m 1052,0,-1
EndSplineSet
EndChar

StartChar: uni225E
Encoding: 8798 8798 376
Width: 2100
LayerCount: 2
Back
Fore
SplineSet
80 1670 m 1052,0,-1
EndSplineSet
EndChar

StartChar: uni2263
Encoding: 8803 8803 377
Width: 800
Flags: W
LayerCount: 2
Back
Fore
SplineSet
50 1661 m 1048
EndSplineSet
Refer: 16 45 N 1 0 0 1 0 300 2
Refer: 16 45 N 1 0 0 1 0 100 2
Refer: 16 45 N 1 0 0 1 0 -300 2
Refer: 16 45 N 1 0 0 1 0 -100 2
EndChar

StartChar: integraltp
Encoding: 8992 8992 378
Width: 600
Flags: W
LayerCount: 2
Back
Fore
SplineSet
200 -400 m 4,0,-1
 200 1450 l 6,1,2
 200 1554 200 1554 274 1628 c 4,3,4
 346 1700 346 1700 450 1700 c 4,5,6
 471 1700 471 1700 485.5 1685.5 c 132,-1,7
 500 1671 500 1671 500 1650 c 132,-1,8
 500 1629 500 1629 485.5 1614.5 c 132,-1,9
 471 1600 471 1600 450 1600 c 4,10,11
 389 1600 389 1600 344 1558 c 4,12,13
 300 1516 300 1516 300 1449 c 6,14,-1
 300 -400 l 28,15,16
 200 -400 l 4,0,-1
EndSplineSet
EndChar

StartChar: uni239B
Encoding: 9115 9115 380
Width: 400
Flags: W
LayerCount: 2
Back
Fore
SplineSet
100 -400 m 21,0,1
 100 1060 100 1060 198 1452 c 4,2,3
 210 1500 210 1500 250 1500 c 4,4,5
 271 1500 271 1500 285.5 1485.5 c 132,-1,6
 300 1471 300 1471 300 1450 c 4,7,8
 300 1444 300 1444 298 1437 c 4,9,10
 200 1094 200 1094 200 -400 c 4,11,-1
 100 -400 l 21,0,1
EndSplineSet
EndChar

StartChar: uni239D
Encoding: 9117 9117 382
Width: 400
Flags: W
LayerCount: 2
Back
Fore
SplineSet
100 1800 m 9,0,1
 200 1800 l 0,2,3
 200 306 200 306 298 -37 c 0,4,5
 300 -44 300 -44 300 -50 c 0,6,7
 300 -71 300 -71 285.5 -85.5 c 128,-1,8
 271 -100 271 -100 250 -100 c 0,9,10
 210 -100 210 -100 198 -52 c 0,11,12
 100 340 100 340 100 1800 c 9,0,1
EndSplineSet
EndChar

StartChar: uni23A1
Encoding: 9121 9121 386
Width: 2100
LayerCount: 2
Back
Fore
SplineSet
50 1658 m 1052,0,-1
EndSplineSet
EndChar

StartChar: uni23A2
Encoding: 9122 9122 387
Width: 2100
LayerCount: 2
Back
Fore
SplineSet
50 1673 m 1052,0,-1
EndSplineSet
EndChar

StartChar: uni23A3
Encoding: 9123 9123 388
Width: 2100
LayerCount: 2
Back
Fore
SplineSet
50 1652 m 1052,0,-1
EndSplineSet
EndChar

StartChar: uni23A4
Encoding: 9124 9124 389
Width: 2100
LayerCount: 2
Back
Fore
SplineSet
50 1676 m 1052,0,-1
EndSplineSet
EndChar

StartChar: uni23A5
Encoding: 9125 9125 390
Width: 2100
LayerCount: 2
Back
Fore
SplineSet
16 1625 m 1052,0,-1
EndSplineSet
EndChar

StartChar: uni23A6
Encoding: 9126 9126 391
Width: 2100
LayerCount: 2
Back
Fore
SplineSet
50 1649 m 1052,0,-1
EndSplineSet
EndChar

StartChar: uni23A7
Encoding: 9127 9127 392
Width: 2100
LayerCount: 2
Back
Fore
SplineSet
50 1646 m 1052,0,-1
EndSplineSet
EndChar

StartChar: uni23A8
Encoding: 9128 9128 393
Width: 2100
LayerCount: 2
Back
Fore
SplineSet
50 1637 m 1052,0,-1
EndSplineSet
EndChar

StartChar: uni23A9
Encoding: 9129 9129 394
Width: 2100
LayerCount: 2
Back
Fore
SplineSet
50 1661 m 1052,0,-1
EndSplineSet
EndChar

StartChar: uni23AA
Encoding: 9130 9130 395
Width: 2100
LayerCount: 2
Back
Fore
SplineSet
50 1658 m 1052,0,-1
EndSplineSet
EndChar

StartChar: uni23AB
Encoding: 9131 9131 396
Width: 2100
LayerCount: 2
Back
Fore
SplineSet
50 1649 m 1052,0,-1
EndSplineSet
EndChar

StartChar: uni23AC
Encoding: 9132 9132 397
Width: 2100
LayerCount: 2
Back
Fore
SplineSet
70 1650 m 1052,0,-1
EndSplineSet
EndChar

StartChar: uni23AD
Encoding: 9133 9133 398
Width: 2100
LayerCount: 2
Back
Fore
SplineSet
50 1658 m 1052,0,-1
EndSplineSet
EndChar

StartChar: uni23AE
Encoding: 9134 9134 399
Width: 600
Flags: W
LayerCount: 2
Back
Fore
SplineSet
200 -400 m 0,0,-1
 200 1800 l 1,1,2
 300 1799 l 1,3,-1
 300 -400 l 24,4,-1
 200 -400 l 0,0,-1
EndSplineSet
EndChar

StartChar: uni2A7D
Encoding: 10877 10877 400
Width: 800
UnlinkRmOvrlpSave: 1
Flags: W
HStem: 300 600<638 671>
VStem: 100 162<519 681> 100 600
DStem2: 128 645 262 600 0.894427 0.447214<99.7286 580.594> 262 600 128 555 0.894427 -0.447214<0 480.866> 672 145 128 305 0.894427 -0.447214<-580.595 22.4718>
LayerCount: 2
Back
Fore
SplineSet
150 400 m 0,0,1
 162 400 162 400 172 395 c 2,2,-1
 672 145 l 2,3,4
 700 131 700 131 700 100 c 0,5,6
 700 79 700 79 685.5 64.5 c 0,7,8
 671 50 671 50 650 50 c 0,9,10
 638 50 638 50 626 56 c 2,11,-1
 128 305 l 2,12,13
 100 319 100 319 100 350 c 0,14,15
 100 371 100 371 114.5 385.5 c 0,16,17
 129 400 129 400 150 400 c 0,0,1
EndSplineSet
Refer: 31 60 N 1 0 0 1 0 100 2
EndChar

StartChar: uni2A7E
Encoding: 10878 10878 401
Width: 800
UnlinkRmOvrlpSave: 1
Flags: W
HStem: 300 600<129 162>
VStem: 100 600 538 162<519 681>
DStem2: 128 145 174 56 0.894427 0.447214<-22.4718 580.595> 538 600 672 645 0.894427 -0.447214<-480.866 0> 672 555 538 600 0.894427 0.447214<-580.594 -99.7286>
LayerCount: 2
Back
Fore
SplineSet
650 400 m 0,0,1
 671 400 671 400 685.5 385.5 c 0,2,3
 700 371 700 371 700 350 c 0,4,5
 700 319 700 319 672 305 c 2,6,-1
 174 56 l 2,7,8
 162 50 162 50 150 50 c 0,9,10
 129 50 129 50 114.5 64.5 c 0,11,12
 100 79 100 79 100 100 c 0,13,14
 100 131 100 131 128 145 c 2,15,-1
 628 395 l 2,16,17
 638 400 638 400 650 400 c 0,0,1
EndSplineSet
Refer: 33 62 N 1 0 0 1 0 50 2
EndChar

StartChar: uni0308
Encoding: 776 776 402
Width: 600
Flags: W
AnchorPoint: "Top" 300 1350 mark 0
LayerCount: 2
Back
Fore
SplineSet
450 1350 m 1049,0,-1
150 1350 m 1049,1,-1
EndSplineSet
EndChar

StartChar: uni0304
Encoding: 772 772 403
Width: 500
Flags: W
AnchorPoint: "TopMark" 250 1350 mark 0
AnchorPoint: "Top" 250 1350 mark 0
LayerCount: 2
Back
Fore
SplineSet
150 1350 m 25,0,-1
 350 1350 l 1053,1,-1
EndSplineSet
EndChar

StartChar: uni0306
Encoding: 774 774 421
Width: 500
Flags: W
AnchorPoint: "Top" 250 1350 mark 0
LayerCount: 2
Back
Fore
SplineSet
150 1400 m 128,-1,1
 171 1400 171 1400 185.5 1385.5 c 128,-1,2
 200 1371 200 1371 200 1350 c 128,-1,3
 200 1329 200 1329 214.5 1314.5 c 128,-1,4
 229 1300 229 1300 250 1300 c 128,-1,5
 271 1300 271 1300 285.5 1314.5 c 128,-1,6
 300 1329 300 1329 300 1350 c 128,-1,7
 300 1371 300 1371 314.5 1385.5 c 128,-1,8
 329 1400 329 1400 350 1400 c 128,-1,9
 371 1400 371 1400 385.5 1385.5 c 128,-1,10
 400 1371 400 1371 400 1350 c 0,11,12
 400 1288 400 1288 356 1244 c 128,-1,13
 312 1200 312 1200 250 1200 c 128,-1,14
 188 1200 188 1200 144 1244 c 128,-1,15
 100 1288 100 1288 100 1350 c 0,16,17
 100 1371 100 1371 114.5 1385.5 c 128,-1,0
 129 1400 129 1400 150 1400 c 128,-1,1
EndSplineSet
EndChar

StartChar: tildecomb
Encoding: 771 771 422
Width: 600
Flags: W
AnchorPoint: "TopMark" 300 1550 basemark 0
AnchorPoint: "Top" 300 1350 mark 0
LayerCount: 2
Back
Fore
SplineSet
225 1400 m 4,0,1
 282 1400 282 1400 330 1365 c 4,2,3
 350 1350 350 1350 375 1350 c 132,-1,4
 400 1350 400 1350 420 1365 c 4,5,6
 433 1375 433 1375 450 1375 c 4,7,8
 471 1375 471 1375 485.5 1360.5 c 132,-1,9
 500 1346 500 1346 500 1325 c 4,10,11
 500 1297 500 1297 478 1283 c 4,12,13
 432 1250 432 1250 375 1250 c 132,-1,14
 318 1250 318 1250 270 1285 c 4,15,16
 250 1300 250 1300 225 1300 c 132,-1,17
 200 1300 200 1300 180 1285 c 4,18,19
 167 1275 167 1275 150 1275 c 4,20,21
 129 1275 129 1275 114.5 1289.5 c 132,-1,22
 100 1304 100 1304 100 1325 c 4,23,24
 100 1352 100 1352 123 1367 c 4,25,26
 172 1400 172 1400 225 1400 c 4,0,1
EndSplineSet
EndChar

StartChar: uni030A
Encoding: 778 778 424
Width: 500
Flags: W
AnchorPoint: "Top" 250 1350 mark 0
LayerCount: 2
Back
Fore
SplineSet
150 1250 m 132,-1,1
 150 1291 150 1291 179.5 1320.75 c 4,2,3
 208 1350 208 1350 250 1350 c 4,4,5
 293 1350 293 1350 321.5 1320.5 c 132,-1,6
 350 1291 350 1291 350 1250 c 132,-1,7
 350 1209 350 1209 320.114377897 1179.5 c 132,-1,8
 290.228755793 1150 290.228755793 1150 250 1150 c 4,9,10
 208 1150 208 1150 179 1179.5 c 132,-1,0
 150 1209 150 1209 150 1250 c 132,-1,1
EndSplineSet
EndChar

StartChar: uni0302
Encoding: 770 770 426
Width: 500
Flags: W
AnchorPoint: "Top" 250 1350 mark 0
LayerCount: 2
Back
Fore
SplineSet
250 1400 m 128,-1,1
 270 1400 270 1400 285 1385 c 2,2,-1
 385 1285 l 2,3,4
 400 1270 400 1270 400 1250 c 0,5,6
 400 1229 400 1229 385.5 1214.5 c 128,-1,7
 371 1200 371 1200 350 1200 c 0,8,9
 330 1200 330 1200 315 1215 c 2,10,-1
 250 1279 l 1,11,-1
 185 1215 l 2,12,13
 170 1200 170 1200 150 1200 c 0,14,15
 129 1200 129 1200 114.5 1214.5 c 128,-1,16
 100 1229 100 1229 100 1250 c 0,17,18
 100 1270 100 1270 115 1285 c 2,19,-1
 215 1385 l 2,20,0
 230 1400 230 1400 250 1400 c 128,-1,1
EndSplineSet
EndChar

StartChar: uni030C
Encoding: 780 780 427
Width: 500
Flags: W
AnchorPoint: "Top" 250 1350 mark 0
LayerCount: 2
Back
Fore
SplineSet
250 1200 m 132,-1,1
 230 1200 230 1200 215 1215 c 6,2,-1
 115 1315 l 6,3,4
 100 1330 100 1330 100 1350 c 4,5,6
 100 1371 100 1371 114.5 1385.5 c 132,-1,7
 129 1400 129 1400 150 1400 c 4,8,9
 170 1400 170 1400 185 1385 c 6,10,-1
 250 1321 l 5,11,-1
 315 1385 l 6,12,13
 330 1400 330 1400 350 1400 c 4,14,15
 371 1400 371 1400 385.5 1385.5 c 132,-1,16
 400 1371 400 1371 400 1350 c 4,17,18
 400 1330 400 1330 385 1315 c 6,19,-1
 285 1215 l 6,20,0
 270 1200 270 1200 250 1200 c 132,-1,1
EndSplineSet
EndChar

StartChar: gravecomb
Encoding: 768 768 429
Width: 300
Flags: W
AnchorPoint: "Top" 150 1350 mark 0
LayerCount: 2
Back
Fore
SplineSet
150 1200 m 0,0,1
 119 1200 119 1200 105 1228 c 2,2,-1
 55 1328 l 2,3,4
 50 1340 50 1340 50 1350 c 0,5,6
 50 1371 50 1371 64.5 1385.5 c 128,-1,7
 79 1400 79 1400 100 1400 c 0,8,9
 131 1400 131 1400 145 1372 c 2,10,-1
 195 1272 l 2,11,12
 200 1260 200 1260 200 1250 c 0,13,14
 200 1229 200 1229 185.5 1214.5 c 128,-1,15
 171 1200 171 1200 150 1200 c 0,0,1
EndSplineSet
EndChar

StartChar: dotlessi
Encoding: 305 305 430
Width: 300
Flags: W
AnchorPoint: "Top" 150 1350 basechar 0
LayerCount: 2
Back
Fore
SplineSet
150 950 m 25,0,-1
 150 50 l 1049,1,-1
EndSplineSet
EndChar

StartChar: uni0237
Encoding: 567 567 431
Width: 500
Flags: W
AnchorPoint: "Top" 350 1350 basechar 0
LayerCount: 2
Back
Fore
SplineSet
350 950 m 4,0,-1
 350 -200 l 2,1,2
 350 -262 350 -262 306 -306.25 c 0,3,4
 262 -350 262 -350 200 -350 c 10,5,-1
 150 -350 l 1049,6,-1
EndSplineSet
EndChar

StartChar: uni0327
Encoding: 807 807 433
Width: 300
Flags: W
LayerCount: 2
Back
Fore
SplineSet
100 -150 m 29,0,-1
 200 50 l 1053,1,-1
EndSplineSet
EndChar

StartChar: uni0337
Encoding: 823 823 438
Width: 900
Flags: W
LayerCount: 2
Back
Fore
SplineSet
150 50 m 1,0,-1
 750 950 l 1025,1,-1
EndSplineSet
EndChar

StartChar: uni0338
Encoding: 824 824 439
Width: 1100
Flags: W
LayerCount: 2
Back
Fore
SplineSet
150 50 m 29,0,-1
 950 1350 l 1049,1,-1
EndSplineSet
EndChar

StartChar: uni0326
Encoding: 806 806 440
Width: 300
Flags: W
AnchorPoint: "Bottom" 150 -150 mark 0
LayerCount: 2
Back
Fore
SplineSet
150 -250 m 25,0,-1
 150 -150 l 1053,1,-1
EndSplineSet
EndChar

StartChar: AE
Encoding: 198 198 443
Width: 1400
Flags: W
LayerCount: 2
Back
Fore
SplineSet
750 750 m 1,0,-1
 1050 750 l 1,1,-1
 1050 752 l 1025,2,-1
750 1350 m 0,3,4
 750 450 l 1,5,6
 750 50 l 1,7,-1
 1250 50 l 1025,8,9
266 450 m 1,10,-1
 750 450 l 1025,11,-1
1250 1350 m 25,12,-1
 500 1350 l 25,13,-1
 150 50 l 1049,14,-1
EndSplineSet
EndChar

StartChar: ae
Encoding: 230 230 444
Width: 1300
Flags: W
LayerCount: 2
Back
Fore
SplineSet
200 950 m 25,0,-1
 500 950 l 2,1,2
 562 950 562 950 605.5 906 c 128,-1,3
 649 862 649 862 650 799.5 c 0,4,-1
 650 200 l 1050,5,-1
650 500 m 1025,6,-1
650 500 m 1,7,-1
 1150 500 l 1,8,-1
 1150 800.5 l 2,9,10
 1150 863 1150 863 1106 906.5 c 128,-1,11
 1062 950 1062 950 1000 950 c 2,12,-1
 800 950 l 2,13,14
 738 950 738 950 694 905.75 c 0,15,16
 650 862 650 862 650 799.5 c 1024,17,-1
1150 50 m 24,18,-1
 800 50 l 1,19,20
 738 50 738 50 694 94 c 128,-1,21
 650 138 650 138 650 200 c 0,22,23
 650 138 650 138 606 94 c 128,-1,24
 562 50 562 50 500 50 c 2,25,-1
 300 50 l 2,26,27
 238 50 238 50 194 93.5 c 128,-1,28
 150 137 150 137 150 199.5 c 2,29,-1
 150 350 l 2,30,31
 150 412 150 412 194 455.75 c 0,32,33
 239 500 239 500 300 500 c 2,34,-1
 650 500 l 1025,35,-1
650 500 m 1025,36,-1
EndSplineSet
EndChar

StartChar: uni0335
Encoding: 821 821 445
Width: 600
VWidth: 0
Flags: W
LayerCount: 2
Back
Fore
SplineSet
150 950 m 29,0,-1
 450 950 l 1053,1,-1
EndSplineSet
EndChar

StartChar: uni1D3F
Encoding: 7487 7487 446
Width: 800
VWidth: 0
Flags: W
LayerCount: 2
Back
Fore
SplineSet
650 450 m 1,0,-1
 449.876953125 850 l 1029,1,-1
150 850 m 1,2,-1
 449.876953125 850 l 6,3,4
 502 850 502 850 548.913085938 884 c 4,5,6
 596 917 596 917 620.62890625 974 c 4,7,8
 650 1039 650 1039 650 1100 c 4,9,10
 650 1164 650 1164 620.62890625 1228 c 4,11,12
 594 1286 594 1286 548.913085938 1318 c 4,13,14
 503 1350 503 1350 450.559570312 1350 c 6,15,-1
 150 1350 l 1,16,-1
 150 450 l 1025,17,-1
EndSplineSet
EndChar

StartChar: uni0328
Encoding: 808 808 454
Width: 300
VWidth: 0
Flags: W
LayerCount: 2
Back
Fore
SplineSet
150 -50 m 1,0,-1
 150 -150 l 1025,1,-1
EndSplineSet
EndChar

StartChar: Thorn
Encoding: 222 222 456
Width: 900
Flags: W
LayerCount: 2
Back
Fore
SplineSet
150 1350 m 5,0,-1
 150 50 l 1025,1,-1
150 350 m 1,2,-1
 400 350 l 2,3,4
 497 350 497 350 576 396 c 0,5,6
 658 444 658 444 703 524 c 0,7,8
 750 608 750 608 750 700 c 0,9,10
 750 795 750 795 703 875 c 0,11,12
 656 956 656 956 576 1003 c 0,13,14
 495 1050 495 1050 400 1050 c 10,15,-1
 150 1050 l 1025,16,-1
EndSplineSet
EndChar

StartChar: eth
Encoding: 240 240 458
Width: 800
Flags: W
AnchorPoint: "Ogonek" 300 0 basechar 0
AnchorPoint: "Top" 400 1350 basechar 0
LayerCount: 2
Back
Fore
SplineSet
300 1100 m 29,0,-1
 550 1250 l 1025,1,-1
350 1350 m 256,2,3
 428 1272 428 1272 508.5 1154.5 c 128,-1,4
 589 1037 589 1037 619.5 926.5 c 128,-1,5
 650 816 650 816 650.017578125 699.935546875 c 1024,6,7
400 950 m 128,-1,9
 503 950 503 950 576 876.5 c 0,10,11
 649.9965755 801.99659864 649.9965755 801.99659864 650 700 c 2,12,-1
 650 300 l 2,13,14
 650 204 650 204 576 124 c 0,15,16
 507 50 507 50 400 50 c 0,17,18
 297 50 297 50 224 124 c 0,19,20
 150 199 150 199 150 300 c 2,21,-1
 150 700 l 2,22,23
 150 803 150 803 224 876 c 0,24,8
 297 950 297 950 400 950 c 128,-1,9
EndSplineSet
EndChar

StartChar: thorn
Encoding: 254 254 459
Width: 800
Flags: W
LayerCount: 2
Back
Fore
SplineSet
150 -350 m 5,0,-1
 150 950 l 1025,1,-1
150 50 m 1,2,-1
 450 50 l 2,3,4
 535 50 535 50 592 108 c 0,5,6
 650 166 650 166 650 250 c 2,7,-1
 650 300 l 2,8,9
 650 387 650 387 594 444 c 0,10,11
 539 500 539 500 450 500 c 2,12,-1
 150 500 l 1025,13,-1
EndSplineSet
EndChar

StartChar: uni20BD
Encoding: 8381 8381 461
Width: 1000
Flags: W
LayerCount: 2
Back
Fore
SplineSet
150 450 m 1,0,-1
 650 450 l 1049,1,-1
150 650 m 1,2,-1
 500 650 l 2,3,4
 597 650 597 650 676 696 c 0,5,6
 758 744 758 744 803 824 c 0,7,8
 850 908 850 908 850 1000 c 0,9,10
 850 1095 850 1095 803 1175 c 0,11,12
 756 1256 756 1256 676 1303 c 0,13,14
 595 1350 595 1350 500 1350 c 10,15,-1
 250 1350 l 1,16,-1
 250 50 l 1049,17,-1
EndSplineSet
EndChar

StartChar: uni0336
Encoding: 822 822 463
Width: 1100
VWidth: 0
Flags: W
LayerCount: 2
Back
Fore
SplineSet
150 950 m 1,0,-1
 950 950 l 1049,1,-1
EndSplineSet
EndChar

StartChar: Lslash
Encoding: 321 321 467
Width: 800
UnlinkRmOvrlpSave: 1
Flags: W
LayerCount: 2
Back
Fore
SplineSet
150 650 m 5,0,-1
 450 950 l 1053
EndSplineSet
Refer: 47 76 N 1 0 0 1 100 0 2
EndChar

StartChar: lslash
Encoding: 322 322 468
Width: 600
Flags: W
LayerCount: 2
Back
Fore
SplineSet
250 1350 m 0,0,-1
 250 200 l 2,1,2
 250 138 250 138 294 93.75 c 0,3,4
 338 50 338 50 400 50 c 10,5,-1
 450 50 l 1049,6,-1
150 650 m 1,7,-1
 450 950 l 1049,8,-1
EndSplineSet
EndChar
